# Blender v2.82 (sub 7) OBJ File: 'BlueTable.blend'
# www.blender.org
mtllib BlueTable.mtl
o Cube
v 2.128471 1.761079 -6.203684
v 2.128471 1.576085 -6.203684
v 2.128471 1.761079 3.069983
v 2.128471 1.576085 3.069983
v -2.115508 1.761079 -6.203684
v -2.115508 1.576085 -6.203684
v -2.115508 1.761079 3.069983
v -2.115508 1.576085 3.069983
v -2.115508 1.576085 -2.439328
v 2.128471 1.761079 -2.439328
v -2.115508 1.761079 -2.439328
v 2.128471 1.576085 -2.439328
v -2.115508 1.576085 2.593653
v 2.128471 1.761079 2.593653
v -2.115508 1.761079 2.593653
v 2.128471 1.576085 2.593653
v -2.115508 1.761079 -5.727354
v 2.128471 1.576085 -5.727354
v -2.115508 1.576085 -5.727354
v 2.128471 1.761079 -5.727354
v -2.115508 1.761079 -5.965519
v 2.128471 1.576085 -5.965519
v -2.115508 1.576085 -5.965519
v 2.128471 1.761079 -5.965519
v -2.115508 1.576085 2.831818
v 2.128471 1.761079 2.831818
v -2.115508 1.761079 2.831818
v 2.128471 1.576085 2.831818
v -0.551272 1.576085 -6.203684
v -0.551272 1.761079 3.069983
v -0.551272 1.576085 3.069983
v -0.551272 1.761079 -6.203684
v -0.551272 1.576085 -2.439328
v -0.551272 1.761079 -2.439328
v -0.551272 1.576085 2.593653
v -0.551272 1.761079 2.593653
v -0.551272 1.761079 -5.727354
v -0.551272 1.576085 -5.727354
v -0.551272 1.576085 -5.965519
v -0.551272 1.761079 -5.965519
v -0.551272 1.576085 2.831818
v -0.551272 1.761079 2.831818
v 1.854730 1.576085 3.069983
v 1.854730 1.761079 -6.203684
v 1.854730 1.761079 -2.439328
v 1.854730 1.761079 2.593653
v 1.854730 1.761079 -5.727354
v 1.854730 1.761079 -5.965519
v 1.854730 1.761079 2.831818
v 1.854730 1.576085 -6.203684
v 1.854730 1.761079 3.069983
v 1.854730 1.576085 -2.439328
v 1.854730 1.576085 2.593653
v 1.854730 1.576085 -5.727354
v 1.854730 1.576085 -5.965519
v 1.854730 1.576085 2.831818
v -1.841767 1.576085 -6.203684
v -1.841767 1.761079 3.069983
v -1.841767 1.576085 -2.439328
v -1.841767 1.576085 2.593653
v -1.841767 1.576085 -5.727354
v -1.841767 1.576085 -5.965519
v -1.841767 1.576085 2.831818
v -1.841767 1.576085 3.069983
v -1.841767 1.761079 -6.203684
v -1.841767 1.761079 -2.439328
v -1.841767 1.761079 2.593653
v -1.841767 1.761079 -5.727354
v -1.841767 1.761079 -5.965519
v -1.841767 1.761079 2.831818
v 2.328471 -0.551273 2.831818
v 2.328471 -0.551273 2.593653
v -2.041767 -0.551273 2.593653
v -2.315508 -0.551273 2.593653
v -2.315508 -0.551273 -5.965519
v -2.315508 -0.551273 -5.727354
v -2.041767 -0.551273 -5.727354
v 2.328471 -0.551273 -5.727354
v 2.328471 -0.551273 -5.965519
v -2.041767 -0.551273 -5.965519
v -2.315508 -0.551273 2.831818
v -2.041767 -0.551273 2.831818
v 2.054730 -0.551273 2.593653
v 2.054730 -0.551273 -5.727354
v 2.054730 -0.551273 -5.965519
v 2.054730 -0.551273 2.831818
v -2.315508 1.576085 2.831818
v -2.315508 1.576085 3.069983
v -2.315508 1.761079 3.069983
v -2.315508 1.761079 -6.203684
v -2.315508 1.576085 -6.203684
v -2.315508 1.761079 -5.965519
v -2.315508 1.576085 -5.727354
v -2.315508 1.576085 -2.439328
v -2.315508 1.761079 2.593653
v -2.315508 1.761079 -2.439328
v -2.315508 1.576085 2.593653
v -2.315508 1.761079 2.831818
v -2.315508 1.761079 -5.727354
v -2.315508 1.576085 -5.965519
v 2.328471 1.761079 -6.203684
v 2.328471 1.576085 -6.203684
v 2.328471 1.761079 3.069983
v 2.328471 1.576085 3.069983
v 2.328471 1.761079 2.831818
v 2.328471 1.576085 -5.965519
v 2.328471 1.761079 -5.727354
v 2.328471 1.761079 -2.439328
v 2.328471 1.576085 2.593653
v 2.328471 1.576085 -2.439328
v 2.328471 1.761079 2.593653
v 2.328471 1.576085 2.831818
v 2.328471 1.576085 -5.727354
v 2.328471 1.761079 -5.965519
v -2.295508 -0.351273 2.831818
v -2.021767 -0.351273 2.831818
v -2.295508 -0.351273 2.593653
v -2.021767 -0.351273 2.593653
v 2.034730 -0.351273 2.831818
v 2.308471 -0.351273 2.831818
v 2.034730 -0.351273 2.593653
v 2.308471 -0.351273 2.593653
v -2.021767 -0.351273 -5.727354
v -2.021767 -0.351273 -5.965519
v -2.295508 -0.351273 -5.965519
v -2.295508 -0.351273 -5.727354
v 2.034730 -0.351273 -5.965519
v 2.034730 -0.351273 -5.727354
v 2.308471 -0.351273 -5.727354
v 2.308471 -0.351273 -5.965519
v -1.999267 -0.126273 2.831818
v -1.999267 -0.126273 2.593653
v -2.273008 -0.126273 2.831818
v -2.273008 -0.126273 2.593653
v 2.285971 -0.126273 2.831818
v 2.285971 -0.126273 2.593653
v 2.012230 -0.126273 2.831818
v 2.012230 -0.126273 2.593653
v -1.999267 -0.126273 -5.965519
v -2.273008 -0.126273 -5.727354
v -1.999267 -0.126273 -5.727354
v -2.273008 -0.126273 -5.965519
v 2.012230 -0.126273 -5.727354
v 2.285971 -0.126273 -5.965519
v 2.012230 -0.126273 -5.965519
v 2.285971 -0.126273 -5.727354
v 2.012230 -0.126273 -5.752354
v 2.034730 -0.351273 -5.752354
v 2.034730 -0.351273 -5.940519
v 2.012230 -0.126273 -5.940519
v -1.999267 -0.126273 -5.752354
v -2.021767 -0.351273 -5.752354
v -2.021767 -0.351273 -5.940519
v -1.999267 -0.126273 -5.940519
v 2.012230 -0.126273 2.806818
v 2.034730 -0.351273 2.806818
v 2.034730 -0.351273 2.618653
v 2.012230 -0.126273 2.618653
v -1.999267 -0.126273 2.806818
v -2.021767 -0.351273 2.806818
v -1.999267 -0.126273 2.618653
v -2.021767 -0.351273 2.618653
v -1.934204 0.661227 2.819910
v -1.934204 0.661227 2.605561
v -2.180571 0.661227 2.819910
v -2.180571 0.661227 2.605561
v 2.193534 0.661227 2.819910
v 2.193534 0.661227 2.605561
v 1.947167 0.661227 2.819910
v 1.947167 0.661227 2.605561
v 1.947167 0.661227 -5.739263
v 2.193534 0.661227 -5.953611
v 1.947167 0.661227 -5.953611
v 2.193534 0.661227 -5.739263
v -1.934204 0.661227 -5.953611
v -2.180571 0.661227 -5.739263
v -1.934204 0.661227 -5.739263
v -2.180571 0.661227 -5.953611
v -0.551272 -0.137523 -5.761763
v -0.551272 -0.340023 -5.761763
v -0.551272 -0.340023 -5.931111
v -0.551272 -0.137523 -5.931111
v -0.551272 -0.340023 2.628062
v -0.551272 -0.137523 2.797410
v -0.551272 -0.340023 2.797410
v -0.551272 -0.137523 2.628062
vt 0.066772 0.200189
vt 0.067984 0.200189
vt 0.067984 0.200708
vt 0.066772 0.200708
vt 0.040288 0.213345
vt 0.054136 0.213345
vt 0.054136 0.214556
vt 0.040288 0.214556
vt 0.067984 0.199670
vt 0.067984 0.193784
vt 0.067984 0.193784
vt 0.067984 0.199670
vt 0.039076 0.200189
vt 0.040288 0.200189
vt 0.040288 0.200708
vt 0.039076 0.200708
vt 0.040288 0.199670
vt 0.040288 0.193784
vt 0.040288 0.193784
vt 0.040288 0.199670
vt 0.040288 0.185649
vt 0.054136 0.185649
vt 0.054136 0.186860
vt 0.040288 0.186860
vt 0.040288 0.187899
vt 0.040288 0.187380
vt 0.040288 0.187380
vt 0.040288 0.187899
vt 0.039076 0.187899
vt 0.039076 0.193784
vt 0.067984 0.187899
vt 0.067984 0.187380
vt 0.067984 0.187380
vt 0.067984 0.187899
vt 0.066772 0.187899
vt 0.066772 0.193784
vt 0.054136 0.200189
vt 0.054136 0.200708
vt 0.054136 0.200708
vt 0.054136 0.200189
vt 0.039076 0.199670
vt 0.066772 0.199670
vt 0.066772 0.187380
vt 0.429726 0.944395
vt 0.429726 0.943875
vt 0.429726 0.943875
vt 0.429726 0.944395
vt 0.026440 0.193784
vt 0.026440 0.199670
vt 0.026440 0.199670
vt 0.026440 0.193784
vt 0.054136 0.193784
vt 0.054136 0.199670
vt 0.054136 0.199670
vt 0.054136 0.193784
vt 0.039076 0.186860
vt 0.039076 0.187380
vt 0.066772 0.186860
vt 0.067984 0.186860
vt 0.054136 0.173012
vt 0.040288 0.173012
vt 0.040288 0.173012
vt 0.054136 0.173012
vt 0.026440 0.187899
vt 0.026440 0.187899
vt 0.054136 0.187899
vt 0.054136 0.187899
vt 0.418301 0.956685
vt 0.417090 0.956685
vt 0.417090 0.956685
vt 0.418301 0.956685
vt 0.055348 0.199670
vt 0.061060 0.199670
vt 0.061060 0.200189
vt 0.055348 0.200189
vt 0.027652 0.199670
vt 0.033364 0.199670
vt 0.033364 0.200189
vt 0.027652 0.200189
vt 0.055348 0.186860
vt 0.061060 0.186860
vt 0.061060 0.187380
vt 0.055348 0.187380
vt 0.027652 0.186860
vt 0.033364 0.186860
vt 0.033364 0.187380
vt 0.027652 0.187380
vt 0.033364 0.187899
vt 0.027652 0.187899
vt 0.061060 0.187899
vt 0.055348 0.187899
vt 0.055348 0.193784
vt 0.061060 0.193784
vt 0.027652 0.193784
vt 0.033364 0.193784
vt 0.040288 0.174224
vt 0.054136 0.174224
vt 0.054136 0.179936
vt 0.040288 0.179936
vt 0.033364 0.200708
vt 0.027652 0.200708
vt 0.040288 0.201920
vt 0.054136 0.201920
vt 0.054136 0.207632
vt 0.040288 0.207632
vt 0.061060 0.200708
vt 0.055348 0.200708
vt 0.054136 0.187380
vt 0.026440 0.200189
vt 0.026440 0.200708
vt 0.429726 0.956685
vt 0.429726 0.956165
vt 0.429726 0.956165
vt 0.429726 0.956685
vt 0.026440 0.186860
vt 0.026440 0.187380
vt 0.430938 0.956685
vt 0.430938 0.956685
vt 0.430938 0.943875
vt 0.430938 0.944395
vt 0.430938 0.956165
vt 0.417090 0.943875
vt 0.418301 0.943875
vt 0.418301 0.944395
vt 0.417090 0.944395
vt 0.417090 0.956165
vt 0.418301 0.956165
vt 0.430938 0.916179
vt 0.430938 0.916699
vt 0.430938 0.916699
vt 0.430938 0.916179
vt 0.430938 0.943875
vt 0.430938 0.944395
vt 0.418301 0.943875
vt 0.418301 0.944395
vt 0.430938 0.928470
vt 0.430938 0.928989
vt 0.430938 0.928989
vt 0.430938 0.928470
vt 0.430938 0.956165
vt 0.418301 0.956165
vt 0.417090 0.944395
vt 0.417090 0.956165
vt 0.417090 0.943875
vt 0.040288 0.172493
vt 0.054136 0.172493
vt 0.040288 0.160203
vt 0.054136 0.160203
vt 0.054136 0.166088
vt 0.040288 0.166088
vt 0.040288 0.159684
vt 0.054136 0.159684
vt 0.054136 0.171974
vt 0.040288 0.171974
vt 0.040288 0.159164
vt 0.054136 0.159164
vt 0.040288 0.160203
vt 0.040288 0.159684
vt 0.067984 0.200189
vt 0.026440 0.200708
vt 0.026440 0.200189
vt 0.040288 0.172493
vt 0.040288 0.171974
vt 0.026440 0.187380
vt 0.026440 0.186860
vt 0.067984 0.200708
vt 0.067984 0.186860
vt 0.054136 0.214556
vt 0.040288 0.214556
vt 0.040288 0.200189
vt 0.040288 0.200708
vt 0.054136 0.187380
vt 0.040288 0.186860
vt 0.054136 0.186860
vt 0.417090 0.956165
vt 0.418301 0.956165
vt 0.418301 0.956685
vt 0.430938 0.916179
vt 0.430938 0.916699
vt 0.417090 0.956685
vt 0.429726 0.956165
vt 0.430938 0.956165
vt 0.430938 0.956685
vt 0.429726 0.956685
vt 0.671556 0.572236
vt 0.671556 0.571717
vt 0.671556 0.571717
vt 0.671556 0.572236
vt 0.417090 0.943875
vt 0.418301 0.943875
vt 0.418301 0.944395
vt 0.417090 0.944395
vt 0.430938 0.928470
vt 0.430938 0.928989
vt 0.429726 0.943875
vt 0.430938 0.943875
vt 0.430938 0.944395
vt 0.429726 0.944395
vt 0.418301 0.956685
vt 0.417090 0.956685
vt 0.430938 0.916179
vt 0.430938 0.916699
vt 0.418301 0.956165
vt 0.417090 0.956165
vt 0.429726 0.956685
vt 0.429726 0.956165
vt 0.430938 0.956685
vt 0.430938 0.956165
vt 0.418301 0.943875
vt 0.418301 0.944395
vt 0.430938 0.928470
vt 0.430938 0.928989
vt 0.417090 0.944395
vt 0.417090 0.943875
vt 0.429726 0.944395
vt 0.429726 0.943875
vt 0.430938 0.943875
vt 0.430938 0.944395
vt 0.651996 0.531212
vt 0.651996 0.531212
vt 0.651996 0.531212
vt 0.651996 0.531212
vt 0.651996 0.531212
vt 0.651996 0.531212
vt 0.651996 0.531212
vt 0.651996 0.531212
vt 0.429726 0.944395
vt 0.429726 0.944395
vt 0.651996 0.531212
vt 0.651996 0.531212
vt 0.651996 0.531212
vt 0.651996 0.531212
vt 0.410166 0.915660
vt 0.410166 0.915660
vt 0.410166 0.915660
vt 0.410166 0.915660
vt 0.410166 0.915660
vt 0.410166 0.915660
vt 0.410166 0.915660
vt 0.410166 0.915660
vt 0.410166 0.915660
vt 0.410166 0.915660
vt 0.410166 0.915660
vt 0.424014 0.944395
vt 0.424014 0.944395
vt 0.651996 0.531212
vt 0.651996 0.531212
vt 0.651996 0.531212
vt 0.651996 0.531212
vt 0.410166 0.915660
vt 0.410166 0.915660
vt 0.410166 0.915660
vt 0.410166 0.915660
vt 0.417090 0.956165
vt 0.418301 0.956165
vt 0.410166 0.915660
vt 0.410166 0.915660
vt 0.410166 0.915660
vt 0.410166 0.915660
vt 0.410166 0.915660
vt 0.410166 0.915660
vt 0.410166 0.915660
vt 0.410166 0.915660
vt 0.651996 0.531212
vt 0.651996 0.531212
vt 0.651996 0.531212
vt 0.651996 0.531212
vt 0.410166 0.915660
vt 0.410166 0.915660
vt 0.410166 0.915660
vt 0.410166 0.915660
vt 0.423999 0.956685
vt 0.424014 0.956685
vt 0.418301 0.956685
vt 0.418272 0.956685
vt 0.418301 0.956685
vt 0.430938 0.916179
vt 0.430938 0.916699
vt 0.417090 0.956685
vt 0.429726 0.956165
vt 0.430938 0.956165
vt 0.430938 0.956685
vt 0.429726 0.956685
vt 0.429726 0.943875
vt 0.430938 0.943875
vt 0.430938 0.944395
vt 0.429726 0.944395
vt 0.417090 0.943875
vt 0.418301 0.943875
vt 0.418301 0.944395
vt 0.417090 0.944395
vt 0.430938 0.928470
vt 0.430938 0.928989
vt 0.418301 0.944395
vt 0.418301 0.944395
vt 0.410166 0.915660
vt 0.410166 0.915660
vt 0.429726 0.956685
vt 0.429726 0.956685
vt 0.410166 0.915660
vt 0.410166 0.915660
vn 0.0000 1.0000 0.0000
vn 0.0000 0.0000 1.0000
vn 0.0000 -1.0000 0.0000
vn 0.0000 0.0000 -1.0000
vn -0.9950 -0.0995 0.0000
vn -0.9950 0.0995 0.0000
vn 0.9950 0.0995 0.0000
vn 0.9950 -0.0995 0.0000
vn -1.0000 0.0000 0.0000
vn 1.0000 0.0000 0.0000
vn 0.0000 0.0151 0.9999
vn -0.9932 0.1166 0.0000
vn 0.9966 -0.0823 0.0000
vn -0.0000 0.0151 -0.9999
vn -0.9966 -0.0823 0.0000
vn 0.9932 0.1166 0.0000
vn -0.0037 -0.0002 -1.0000
vn -0.0044 1.0000 -0.0000
vn -0.0044 -1.0000 0.0000
vn -0.0037 -0.0002 1.0000
vn 0.0000 -0.0130 -0.9999
vn 0.0064 -0.0003 1.0000
vn 0.9949 -0.1005 0.0000
vn -0.9975 0.0709 0.0000
vn -0.0000 -0.0130 0.9999
vn 0.9975 0.0709 0.0000
vn -0.9949 -0.1005 0.0000
vn 0.0077 -1.0000 0.0000
vn 0.0078 1.0000 0.0000
vn 0.0064 -0.0003 -1.0000
usemtl Material
s off
f 70/1/1 27/2/1 7/3/1 58/4/1
f 64/5/2 58/6/2 7/7/2 8/8/2
f 15/9/1 11/10/1 96/11/1 95/12/1
f 56/13/3 28/14/3 4/15/3 43/16/3
f 16/17/3 12/18/3 110/19/3 109/20/3
f 50/21/4 44/22/4 1/23/4 2/24/4
f 18/25/3 22/26/3 106/27/3 113/28/3
f 54/29/3 18/25/3 12/18/3 52/30/3
f 17/31/1 21/32/1 92/33/1 99/34/1
f 68/35/1 17/31/1 11/10/1 66/36/1
f 11/10/1 17/31/1 99/34/1 96/11/1
f 26/37/1 3/38/1 103/39/1 105/40/1
f 52/30/3 12/18/3 16/17/3 53/41/3
f 66/36/1 11/10/1 15/9/1 67/42/1
f 69/43/1 21/32/1 17/31/1 68/35/1
f 128/44/5 127/45/5 85/46/5 84/47/5
f 12/18/3 18/25/3 113/28/3 110/19/3
f 9/48/3 13/49/3 97/50/3 94/51/3
f 10/52/1 14/53/1 111/54/1 108/55/1
f 50/56/3 2/24/3 22/26/3 55/57/3
f 65/58/1 5/59/1 21/32/1 69/43/1
f 5/60/4 6/61/4 91/62/4 90/63/4
f 19/64/3 9/48/3 94/51/3 93/65/3
f 20/66/1 10/52/1 108/55/1 107/67/1
f 116/68/2 115/69/2 81/70/2 82/71/2
f 67/42/1 15/9/1 27/2/1 70/1/1
f 46/72/1 36/73/1 42/74/1 49/75/1
f 60/76/3 35/77/3 41/78/3 63/79/3
f 44/80/1 32/81/1 40/82/1 48/83/1
f 57/84/3 29/85/3 39/86/3 62/87/3
f 62/87/3 39/86/3 38/88/3 61/89/3
f 48/83/1 40/82/1 37/90/1 47/91/1
f 45/92/1 34/93/1 36/73/1 46/72/1
f 59/94/3 33/95/3 35/77/3 60/76/3
f 47/91/1 37/90/1 34/93/1 45/92/1
f 61/89/3 38/88/3 33/95/3 59/94/3
f 57/96/4 65/97/4 32/98/4 29/99/4
f 63/79/3 41/78/3 31/100/3 64/101/3
f 43/102/2 51/103/2 30/104/2 31/105/2
f 49/75/1 42/74/1 30/106/1 51/107/1
f 26/37/1 49/75/1 51/107/1 3/38/1
f 4/15/2 3/38/2 51/103/2 43/102/2
f 20/66/1 47/91/1 45/92/1 10/52/1
f 10/52/1 45/92/1 46/72/1 14/53/1
f 24/108/1 48/83/1 47/91/1 20/66/1
f 1/23/1 44/80/1 48/83/1 24/108/1
f 14/53/1 46/72/1 49/75/1 26/37/1
f 35/77/3 53/41/3 56/13/3 41/78/3
f 29/85/3 50/56/3 55/57/3 39/86/3
f 39/86/3 55/57/3 54/29/3 38/88/3
f 33/95/3 52/30/3 53/41/3 35/77/3
f 38/88/3 54/29/3 52/30/3 33/95/3
f 29/99/4 32/98/4 44/22/4 50/21/4
f 41/78/3 56/13/3 43/16/3 31/100/3
f 25/109/3 63/79/3 64/101/3 8/110/3
f 6/61/4 5/60/4 65/97/4 57/96/4
f 19/64/3 61/89/3 59/94/3 9/48/3
f 9/48/3 59/94/3 60/76/3 13/49/3
f 119/111/5 121/112/5 83/113/5 86/114/5
f 6/115/3 57/84/3 62/87/3 23/116/3
f 120/117/2 119/111/2 86/114/2 71/118/2
f 36/73/1 67/42/1 70/1/1 42/74/1
f 32/81/1 65/58/1 69/43/1 40/82/1
f 40/82/1 69/43/1 68/35/1 37/90/1
f 34/93/1 66/36/1 67/42/1 36/73/1
f 37/90/1 68/35/1 66/36/1 34/93/1
f 31/105/2 30/104/2 58/6/2 64/5/2
f 42/74/1 70/1/1 58/4/1 30/106/1
f 85/46/3 79/119/3 78/120/3 84/47/3
f 83/113/3 72/121/3 71/118/3 86/114/3
f 75/122/3 80/123/3 77/124/3 76/125/3
f 74/126/3 73/127/3 82/71/3 81/70/3
f 115/128/6 117/129/6 74/130/6 81/131/6
f 130/132/7 129/133/7 78/120/7 79/119/7
f 124/134/8 123/135/8 77/124/8 80/123/8
f 126/136/6 125/137/6 75/138/6 76/139/6
f 122/140/7 120/117/7 71/118/7 72/121/7
f 121/112/4 122/140/4 72/121/4 83/113/4
f 118/141/8 116/68/8 82/71/8 73/127/8
f 129/133/2 128/44/2 84/47/2 78/120/2
f 127/45/4 130/132/4 79/119/4 85/46/4
f 123/135/2 126/142/2 76/125/2 77/124/2
f 117/143/4 118/141/4 73/127/4 74/126/4
f 125/144/4 124/134/4 80/123/4 75/122/4
f 100/145/9 92/146/9 90/63/9 91/62/9
f 97/147/9 95/148/9 96/149/9 94/150/9
f 87/151/9 98/152/9 95/148/9 97/147/9
f 94/150/9 96/149/9 99/153/9 93/154/9
f 93/154/9 99/153/9 92/146/9 100/145/9
f 88/155/9 89/156/9 98/152/9 87/151/9
f 13/157/3 25/158/3 87/151/3 97/147/3
f 27/2/1 15/9/1 95/12/1 98/159/1
f 25/109/3 8/110/3 88/160/3 87/161/3
f 23/162/3 19/163/3 93/154/3 100/145/3
f 6/115/3 23/116/3 100/164/3 91/165/3
f 7/3/1 27/2/1 98/159/1 89/166/1
f 21/32/1 5/59/1 90/167/1 92/33/1
f 8/8/2 7/7/2 89/168/2 88/169/2
f 112/170/10 105/40/10 103/39/10 104/171/10
f 113/28/10 107/67/10 108/55/10 110/19/10
f 110/19/10 108/55/10 111/54/10 109/20/10
f 106/27/10 114/172/10 107/67/10 113/28/10
f 102/173/10 101/174/10 114/172/10 106/27/10
f 109/20/10 111/54/10 105/40/10 112/170/10
f 14/53/1 26/37/1 105/40/1 111/54/1
f 28/14/3 16/17/3 109/20/3 112/170/3
f 24/108/1 20/66/1 107/67/1 114/172/1
f 2/24/4 1/23/4 101/174/4 102/173/4
f 1/23/1 24/108/1 114/172/1 101/174/1
f 4/15/3 28/14/3 112/170/3 104/171/3
f 22/26/3 2/24/3 102/173/3 106/27/3
f 3/38/2 4/15/2 104/171/2 103/39/2
f 134/175/4 132/176/4 118/141/4 117/143/4
f 132/176/8 131/177/8 116/68/8 118/141/8
f 133/178/6 134/179/6 117/129/6 115/128/6
f 131/177/2 133/180/2 115/69/2 116/68/2
f 138/181/4 136/182/4 122/140/4 121/112/4
f 136/182/7 135/183/7 120/117/7 122/140/7
f 135/183/2 137/184/2 119/111/2 120/117/2
f 137/185/5 138/186/5 121/187/5 119/188/5
f 142/189/4 139/190/4 124/134/4 125/144/4
f 141/191/2 140/192/2 126/142/2 123/135/2
f 140/193/6 142/194/6 125/137/6 126/136/6
f 139/190/8 141/191/8 123/135/8 124/134/8
f 145/195/4 144/196/4 130/132/4 127/45/4
f 146/197/2 143/198/2 128/44/2 129/133/2
f 144/196/7 146/197/7 129/133/7 130/132/7
f 163/199/11 165/200/11 133/180/11 131/177/11
f 165/201/12 166/202/12 134/179/12 133/178/12
f 164/203/13 163/199/13 131/177/13 132/176/13
f 166/204/14 164/203/14 132/176/14 134/175/14
f 169/205/15 170/206/15 138/181/15 137/184/15
f 167/207/11 169/205/11 137/184/11 135/183/11
f 168/208/16 167/207/16 135/183/16 136/182/16
f 170/206/14 168/208/14 136/182/14 138/181/14
f 175/209/13 177/210/13 141/191/13 139/190/13
f 176/211/12 178/212/12 142/194/12 140/193/12
f 177/210/11 176/213/11 140/192/11 141/191/11
f 178/214/14 175/209/14 139/190/14 142/189/14
f 171/215/15 173/216/15 145/195/15 143/198/15
f 172/217/16 174/218/16 146/197/16 144/196/16
f 174/218/11 171/215/11 143/198/11 146/197/11
f 173/216/14 172/217/14 144/196/14 145/195/14
f 156/219/2 157/220/2 121/221/2 119/222/2
f 155/223/3 137/224/3 138/225/3 158/226/3
f 148/227/5 128/44/5 143/198/5 147/228/5
f 148/229/2 149/230/2 127/231/2 128/232/2
f 147/233/3 143/234/3 145/235/3 150/236/3
f 150/236/5 145/235/5 127/237/5 149/238/5
f 182/239/17 150/236/17 149/238/17 181/240/17
f 179/241/18 147/233/18 150/236/18 182/239/18
f 180/242/19 181/240/19 149/238/19 148/243/19
f 180/244/20 148/227/20 147/228/20 179/245/20
f 123/246/2 124/247/2 153/248/2 152/249/2
f 141/250/1 151/251/1 154/252/1 139/253/1
f 13/254/21 60/255/21 164/203/21 166/204/21
f 184/256/18 155/257/18 158/258/18 186/259/18
f 186/259/17 158/258/17 157/260/17 183/261/17
f 185/262/19 183/261/19 157/260/19 156/263/19
f 116/264/2 118/265/2 162/266/2 160/267/2
f 131/268/1 159/269/1 161/270/1 132/271/1
f 185/272/22 184/273/22 159/274/22 160/275/22
f 60/255/23 63/276/23 163/199/23 164/203/23
f 25/277/24 13/278/24 166/202/24 165/201/24
f 63/276/25 25/279/25 165/200/25 163/199/25
f 53/280/21 16/281/21 168/208/21 170/206/21
f 16/281/26 28/282/26 167/207/26 168/208/26
f 28/282/25 56/283/25 169/205/25 167/207/25
f 56/283/27 53/280/27 170/206/27 169/205/27
f 55/284/21 22/285/21 172/217/21 173/216/21
f 18/286/25 54/287/25 171/215/25 174/218/25
f 22/285/26 18/286/26 174/218/26 172/217/26
f 54/287/27 55/284/27 173/216/27 171/215/27
f 23/288/21 62/289/21 175/209/21 178/214/21
f 61/290/25 19/291/25 176/213/25 177/210/25
f 19/292/24 23/293/24 178/212/24 176/211/24
f 62/289/23 61/290/23 177/210/23 175/209/23
f 152/294/22 180/244/22 179/245/22 151/295/22
f 152/296/28 153/297/28 181/240/28 180/242/28
f 151/251/29 179/241/29 182/239/29 154/252/29
f 154/252/30 182/239/30 181/240/30 153/297/30
f 156/298/20 155/299/20 184/273/20 185/272/20
f 160/300/28 162/301/28 183/261/28 185/262/28
f 161/270/30 186/259/30 183/261/30 162/301/30
f 159/269/29 184/256/29 186/259/29 161/270/29
