# Blender v2.82 (sub 7) OBJ File: 'Chair.blend'
# www.blender.org
mtllib Chair.mtl
o Cube.001
v -0.635367 1.651859 -0.422908
v -0.635367 1.801805 -0.422908
v -0.635367 1.651859 -2.022908
v -0.635367 1.801805 -2.022908
v 0.964633 1.651859 -0.422908
v 0.964633 1.801805 -0.422908
v 0.964633 1.651859 -2.022908
v 0.964633 1.801805 -2.022908
v -0.635367 1.651859 -0.582908
v -0.635367 1.801805 -0.582908
v 0.964633 1.651859 -0.582908
v 0.964633 1.801805 -0.582908
v -0.635367 1.801805 -1.878908
v 0.964633 1.651859 -1.878908
v -0.635367 1.651859 -1.878908
v 0.964633 1.801805 -1.878908
v 0.964633 1.551859 -2.022908
v -0.635367 1.551859 -2.022908
v 0.964633 1.551859 -1.878908
v -0.635367 1.551859 -1.878908
v -0.635367 1.551859 -0.582908
v -0.635367 1.551859 -0.422908
v 0.964633 1.551859 -0.422908
v 0.964633 1.551859 -0.582908
v -0.475367 1.651859 -2.022908
v -0.475367 1.801805 -2.022908
v -0.475367 1.651859 -0.422908
v -0.475367 1.801805 -0.422908
v -0.475367 1.801805 -0.582908
v -0.475367 1.651859 -0.582908
v -0.475367 1.651859 -1.878908
v -0.475367 1.801805 -1.878908
v -0.475367 1.551859 -2.022908
v -0.475367 1.551859 -1.878908
v -0.475367 1.551859 -0.422908
v -0.475367 1.551859 -0.582908
v 0.820633 1.801805 -2.022908
v 0.820633 1.651859 -0.422908
v 0.820633 1.801805 -0.582908
v 0.820633 1.801805 -1.878908
v 0.820633 1.551859 -0.422908
v 0.820633 1.651859 -2.022908
v 0.820633 1.801805 -0.422908
v 0.820633 1.651859 -0.582908
v 0.820633 1.651859 -1.878908
v 0.820633 1.551859 -2.022908
v 0.820633 1.551859 -1.878908
v 0.820633 1.551859 -0.582908
v -0.522686 0.551859 -2.022908
v -0.682686 0.551859 -2.022908
v 1.055099 0.551859 -1.878908
v 1.055099 0.551859 -2.022908
v -0.682686 0.551859 -1.878908
v -0.522686 0.551859 -1.878908
v -0.682686 0.551859 -0.582908
v -0.682686 0.551859 -0.422908
v 0.911099 0.551859 -0.422908
v 1.055099 0.551859 -0.422908
v 1.055099 0.551859 -0.582908
v -0.522686 0.551859 -0.582908
v -0.522686 0.551859 -0.422908
v 0.911099 0.551859 -2.022908
v 0.911099 0.551859 -1.878908
v 0.911099 0.551859 -0.582908
v 1.046052 0.651859 -1.878908
v 1.046052 0.651859 -2.022908
v 0.902052 0.651859 -2.022908
v 0.902052 0.651859 -1.878908
v 1.046052 0.651859 -0.582908
v 0.902052 0.651859 -0.582908
v 0.902052 0.651859 -0.422908
v 1.046052 0.651859 -0.422908
v -0.517954 0.651859 -2.022908
v -0.677954 0.651859 -2.022908
v -0.677954 0.651859 -1.878908
v -0.517954 0.651859 -1.878908
v -0.517954 0.651859 -0.422908
v -0.517954 0.651859 -0.582908
v -0.677954 0.651859 -0.582908
v -0.677954 0.651859 -0.422908
v 1.037910 0.741859 -2.022908
v 0.893910 0.741859 -1.878908
v 1.037910 0.741859 -1.878908
v 0.893910 0.741859 -2.022908
v -0.673695 0.741859 -2.022908
v -0.673695 0.741859 -1.878908
v -0.513695 0.741859 -1.878908
v -0.513695 0.741859 -2.022908
v -0.513695 0.741859 -0.582908
v -0.673695 0.741859 -0.422908
v -0.513695 0.741859 -0.422908
v -0.673695 0.741859 -0.582908
v 0.893910 0.741859 -0.582908
v 0.893910 0.741859 -0.422908
v 1.037910 0.741859 -0.422908
v 1.037910 0.741859 -0.582908
v -0.752156 1.651859 -0.582908
v -0.752156 1.651859 -0.422908
v -0.752156 1.801805 -0.422908
v -0.752156 1.801805 -1.878908
v -0.752156 1.801805 -2.022908
v -0.752156 1.651859 -2.022908
v -0.752156 1.651859 -1.878908
v -0.752156 1.801805 -0.582908
v 1.014633 1.651859 -0.372908
v 1.014633 1.801805 -0.372908
v 1.014633 1.651859 -2.072908
v 1.014633 1.801805 -2.072908
v 1.014633 1.801805 -1.878908
v 1.014633 1.651859 -0.582908
v 1.014633 1.651859 -0.422908
v 1.014633 1.801805 -0.422908
v -0.635367 1.651859 -0.372908
v -0.635367 1.801805 -0.372908
v -0.475367 1.801805 -0.372908
v -0.475367 1.651859 -0.372908
v 0.820633 1.801805 -0.372908
v 0.820633 1.651859 -0.372908
v -0.752156 1.651859 -0.372908
v -0.752156 1.801805 -0.372908
v -0.635367 1.801805 -2.072908
v -0.635367 1.651859 -2.072908
v -0.475367 1.651859 -2.072908
v 0.820633 1.651859 -2.072908
v -0.475367 1.801805 -2.072908
v 0.820633 1.801805 -2.072908
v -0.752156 1.801805 -2.072908
v -0.752156 1.651859 -2.072908
v 0.820633 1.801805 -2.072908
v 0.964633 1.801805 -2.072908
v 0.964633 1.651859 -2.072908
v 0.820633 1.651859 -2.072908
v 1.014633 1.651859 -2.022908
v 1.014633 1.801805 -2.022908
v 0.964633 1.801805 -0.372908
v 0.964633 1.651859 -0.372908
v 0.820633 1.651859 -0.372908
v 0.820633 1.801805 -0.372908
v 1.014633 1.801805 -0.582908
v 1.014633 1.651859 -1.878908
v 0.863094 1.651859 -0.422908
v 0.863094 1.551859 -0.422908
v 0.863094 1.651859 -2.022908
v 0.863094 1.651859 -0.582908
v 0.863094 1.651859 -1.878908
v 0.863094 1.551859 -2.022908
v 0.863094 1.551859 -1.878908
v 0.863094 1.551859 -0.582908
v 0.953561 0.551859 -0.422908
v 0.953561 0.551859 -2.022908
v 0.953561 0.551859 -1.878908
v 0.953561 0.551859 -0.582908
v 0.944514 0.651859 -1.878908
v 0.944514 0.651859 -2.022908
v 0.944514 0.651859 -0.422908
v 0.944514 0.651859 -0.582908
v 0.936372 0.741859 -2.022908
v 0.936372 0.741859 -1.878908
v 0.936372 0.741859 -0.582908
v 0.936372 0.741859 -0.422908
v 0.863094 1.801805 -2.072908
v 0.863094 1.651859 -2.072908
v 0.863094 1.651859 -0.372908
v 0.863094 1.801805 -0.372908
v 1.082423 3.642221 -2.072908
v 1.032423 3.642221 -2.072908
v 1.032423 3.642221 -0.582908
v 1.032423 3.642221 -0.422908
v 1.032423 3.642221 -2.022908
v 1.082423 3.642221 -2.022908
v 1.032423 3.642221 -1.878908
v 1.082423 3.642221 -0.582908
v 1.082423 3.642221 -1.878908
v 1.082423 3.642221 -0.422908
v 1.082423 3.642221 -0.372908
v 1.032423 3.642221 -0.372908
v 0.930885 3.642221 -2.072908
v 0.930885 3.642221 -0.372908
vt 0.375000 0.477500
vt 0.625000 0.477500
vt 0.625000 0.477500
vt 0.375000 0.477500
vt 0.625000 0.750000
vt 0.375000 0.750000
vt 0.375000 0.750000
vt 0.625000 0.750000
vt 0.375000 0.975000
vt 0.375000 0.772500
vt 0.375000 0.772500
vt 0.375000 0.975000
vt 0.375000 0.725000
vt 0.375000 0.750000
vt 0.375000 0.750000
vt 0.375000 0.725000
vt 0.850000 0.725000
vt 0.875000 0.725000
vt 0.875000 0.750000
vt 0.850000 0.750000
vt 0.850000 0.522500
vt 0.875000 0.522500
vt 0.359135 0.522500
vt 0.375000 0.522500
vt 0.359135 0.725000
vt 0.375000 0.522500
vt 0.375000 0.725000
vt 0.375000 0.500000
vt 0.625000 0.500000
vt 0.625000 0.500000
vt 0.375000 0.500000
vt 0.375000 0.500000
vt 0.375000 0.522500
vt 0.375000 0.500000
vt 0.850000 0.500000
vt 0.875000 0.500000
vt 0.150000 0.725000
vt 0.150000 0.750000
vt 0.150000 0.750000
vt 0.150000 0.725000
vt 0.150000 0.522500
vt 0.125000 0.522500
vt 0.125000 0.522500
vt 0.150000 0.522500
vt 0.375000 0.484135
vt 0.375000 0.484135
vt 0.375000 0.227500
vt 0.375000 0.250000
vt 0.375000 0.250000
vt 0.375000 0.227500
vt 0.375000 0.250000
vt 0.375000 0.275000
vt 0.375000 0.275000
vt 0.375000 0.250000
vt 0.375000 1.000000
vt 0.375000 1.000000
vt 0.375000 0.975000
vt 0.359135 0.725000
vt 0.375000 0.000000
vt 0.375000 0.025000
vt 0.375000 0.025000
vt 0.375000 0.000000
vt 0.125000 0.725000
vt 0.150000 0.725000
vt 0.150000 0.725000
vt 0.125000 0.725000
vt 0.375000 0.772500
vt 0.352500 0.750000
vt 0.352500 0.725000
vt 0.352500 0.725000
vt 0.352500 0.750000
vt 0.375000 0.275000
vt 0.375000 0.275000
vt 0.352500 0.522500
vt 0.352500 0.522500
vt 0.359135 0.725000
vt 0.375000 0.725000
vt 0.375000 0.725000
vt 0.359135 0.725000
vt 0.647500 0.500000
vt 0.647500 0.522500
vt 0.647500 0.725000
vt 0.647500 0.750000
vt 0.850000 0.750000
vt 0.647500 0.750000
vt 0.375000 0.250000
vt 0.625000 0.250000
vt 0.625000 0.250000
vt 0.375000 0.250000
vt 0.625000 0.765865
vt 0.375000 0.765865
vt 0.359135 0.522500
vt 0.375000 0.765865
vt 0.375000 0.765865
vt 0.352500 0.725000
vt 0.352500 0.725000
vt 0.352500 0.750000
vt 0.150000 0.750000
vt 0.375000 0.477500
vt 0.150000 0.500000
vt 0.352500 0.500000
vt 0.375000 0.477500
vt 0.625000 0.477500
vt 0.359135 0.500000
vt 0.375000 0.500000
vt 0.375000 0.522500
vt 0.359135 0.522500
vt 0.375000 0.750000
vt 0.359135 0.750000
vt 0.125000 0.725000
vt 0.125000 0.750000
vt 0.125000 0.500000
vt 0.150000 0.500000
vt 0.150000 0.522500
vt 0.125000 0.522500
vt 0.375000 0.000000
vt 0.375000 0.025000
vt 0.375000 0.025000
vt 0.375000 0.000000
vt 0.375000 0.500000
vt 0.375000 0.522500
vt 0.375000 0.765866
vt 0.375000 0.772500
vt 0.375000 0.772500
vt 0.375000 0.765865
vt 0.352500 0.522500
vt 0.352500 0.500000
vt 0.352500 0.500000
vt 0.352500 0.522500
vt 0.375000 0.227500
vt 0.375000 0.227500
vt 0.375000 0.750000
vt 0.150000 0.522500
vt 0.125000 0.522500
vt 0.150000 0.500000
vt 0.125000 0.725000
vt 0.375000 0.975000
vt 0.375000 1.000000
vt 0.375000 1.000000
vt 0.375000 0.975000
vt 0.375000 0.484135
vt 0.375000 0.484135
vt 0.359135 0.522500
vt 0.359135 0.522500
vt 0.352500 0.522500
vt 0.375000 0.484135
vt 0.375000 0.500000
vt 0.352500 0.500000
vt 0.375000 0.522500
vt 0.375000 0.725000
vt 0.375000 0.750000
vt 0.375000 0.765865
vt 0.375000 0.772500
vt 0.359135 0.725000
vt 0.352500 0.750000
vt 0.352500 0.725000
vt 0.150000 0.500000
vt 0.150000 0.522500
vt 0.125000 0.522500
vt 0.375000 0.227500
vt 0.375000 0.250000
vt 0.375000 0.275000
vt 0.375000 0.975000
vt 0.375000 1.000000
vt 0.125000 0.725000
vt 0.150000 0.725000
vt 0.375000 0.000000
vt 0.375000 0.025000
vt 0.150000 0.750000
vt 0.000000 0.000000
vt 0.000000 0.000000
vt 0.000000 0.000000
vt 0.000000 0.000000
vt 0.000000 0.000000
vt 0.000000 0.000000
vt 0.000000 0.000000
vt 0.000000 0.000000
vt 0.000000 0.000000
vt 0.000000 0.000000
vt 0.000000 0.000000
vt 0.000000 0.000000
vt 0.000000 0.000000
vt 0.000000 0.000000
vt 0.875000 0.500000
vt 0.875000 0.500000
vt 0.875000 0.500000
vt 0.625000 0.227500
vt 0.375000 0.227500
vt 0.375000 0.025000
vt 0.375000 0.000000
vt 0.625000 0.000000
vt 0.625000 0.025000
vt 0.125000 0.725000
vt 0.125000 0.522500
vt 0.625000 0.772500
vt 0.625000 0.772500
vt 0.875000 0.522500
vt 0.875000 0.725000
vt 0.875000 0.750000
vt 0.375000 0.484135
vt 0.375000 0.772500
vt 0.625000 0.750000
vt 0.625000 0.750000
vt 0.625000 0.750000
vt 0.375000 0.500000
vt 0.625000 0.725000
vt 0.625000 0.725000
vt 0.625000 0.522500
vt 0.625000 0.500000
vt 0.625000 0.500000
vt 0.625000 0.522500
vt 0.375000 0.750000
vt 0.000000 0.000000
vt 0.000000 0.000000
vt 0.000000 0.000000
vt 0.000000 0.000000
vt 0.625000 0.975000
vt 0.625000 1.000000
vt 0.375000 1.000000
vt 0.625000 1.000000
vt 0.375000 1.000000
vt 0.875000 0.750000
vt 0.875000 0.750000
vt 0.375000 0.000000
vt 0.625000 0.000000
vt 0.375000 0.000000
vt 0.375000 0.250000
vt 0.625000 0.250000
vt 0.625000 0.275000
vt 0.375000 0.275000
vt 0.850000 0.500000
vt 0.647500 0.500000
vt 0.625000 0.484135
vt 0.000000 0.000000
vt 0.000000 0.000000
vt 0.000000 0.000000
vt 0.000000 0.000000
vt 0.000000 0.000000
vt 0.000000 0.000000
vt 0.625000 0.772500
vt 0.375000 0.477500
vt 0.375000 0.477500
vt 0.375000 0.477500
vt 0.000000 0.000000
vt 0.000000 0.000000
vt 0.000000 0.000000
vt 0.000000 0.000000
vt 0.000000 0.000000
vt 0.000000 0.000000
vt 0.625000 0.484135
vt 0.625000 0.765865
vt 0.625000 0.750000
vt 0.625000 0.500000
vt 0.000000 0.000000
vt 0.000000 0.000000
vt 0.625000 0.500000
vt 0.000000 0.000000
vt 0.000000 0.000000
vn -1.0000 0.0000 0.0000
vn 0.0000 0.0000 1.0000
vn 0.0000 -1.0000 0.0000
vn 1.0000 0.0000 0.0000
vn 0.0000 1.0000 0.0000
vn 0.0000 0.0000 -1.0000
vn 0.9989 -0.0473 0.0000
vn -0.9959 -0.0901 0.0000
vn -0.9989 0.0473 0.0000
vn 0.9959 0.0901 0.0000
vn 0.9993 -0.0368 0.0000
vn -0.9993 0.0368 0.0000
usemtl None
s off
f 42/1/1 37/2/1 129/3/1 132/4/1
f 135/5/2 136/6/2 105/7/2 106/8/2
f 27/9/3 38/10/3 118/11/3 116/12/3
f 11/13/4 5/14/4 23/15/4 24/16/4
f 29/17/5 10/18/5 2/19/5 28/20/5
f 32/21/5 13/22/5 10/18/5 29/17/5
f 145/23/3 14/24/3 11/13/3 144/25/3
f 11/13/3 14/24/3 140/26/3 110/27/3
f 131/28/6 130/29/6 108/30/6 107/31/6
f 7/32/4 14/24/4 19/33/4 17/34/4
f 26/35/5 4/36/5 13/22/5 32/21/5
f 78/37/7 77/38/7 61/39/7 60/40/7
f 31/41/2 15/42/2 20/43/2 34/44/2
f 143/45/6 7/32/6 17/34/6 146/46/6
f 15/47/1 3/48/1 18/49/1 20/50/1
f 74/51/6 73/52/6 49/53/6 50/54/6
f 27/9/2 1/55/2 22/56/2 35/57/2
f 144/25/6 11/13/6 24/16/6 148/58/6
f 1/59/1 9/60/1 21/61/1 22/62/1
f 9/63/6 30/64/6 36/65/6 21/66/6
f 38/10/2 27/9/2 35/57/2 41/67/2
f 71/68/8 70/69/8 64/70/8 57/71/8
f 3/48/6 25/72/6 33/73/6 18/49/6
f 45/74/2 31/41/2 34/44/2 47/75/2
f 156/76/6 69/77/6 59/78/6 152/79/6
f 37/80/5 26/35/5 32/21/5 40/81/5
f 15/42/3 31/41/3 30/64/3 9/63/3
f 40/81/5 32/21/5 29/17/5 39/82/5
f 39/82/5 29/17/5 28/20/5 43/83/5
f 43/83/5 28/20/5 115/84/5 117/85/5
f 102/86/1 101/87/1 127/88/1 128/89/1
f 136/6/2 135/5/2 164/90/2 163/91/2
f 145/23/2 45/74/2 47/75/2 147/92/2
f 141/93/2 38/10/2 41/67/2 142/94/2
f 30/64/6 44/95/6 48/96/6 36/65/6
f 36/65/3 48/96/3 41/97/3 35/98/3
f 25/72/6 42/1/6 46/99/6 33/73/6
f 33/100/3 46/101/3 47/75/3 34/44/3
f 31/41/3 45/74/3 44/95/3 30/64/3
f 37/2/4 42/1/4 124/102/4 126/103/4
f 150/104/3 52/105/3 51/106/3 151/107/3
f 152/79/3 59/78/3 58/108/3 149/109/3
f 55/110/3 60/40/3 61/39/3 56/111/3
f 50/112/3 49/113/3 54/114/3 53/115/3
f 80/116/9 79/117/9 55/118/9 56/119/9
f 66/120/10 65/121/10 51/106/10 52/105/10
f 155/122/2 71/123/2 57/124/2 149/125/2
f 68/126/8 67/127/8 62/128/8 63/129/8
f 75/130/9 74/51/9 50/54/9 53/131/9
f 69/77/10 72/132/10 58/108/10 59/78/10
f 76/133/2 75/134/2 53/115/2 54/114/2
f 73/135/7 76/133/7 54/114/7 49/113/7
f 79/136/6 78/37/6 60/40/6 55/110/6
f 77/137/2 80/138/2 56/139/2 61/140/2
f 154/141/6 66/120/6 52/105/6 150/142/6
f 153/143/2 68/126/2 63/129/2 151/107/2
f 158/144/2 82/145/2 68/126/2 153/143/2
f 157/146/6 81/147/6 66/120/6 154/141/6
f 82/145/8 84/148/8 67/127/8 68/126/8
f 81/147/10 83/149/10 65/121/10 66/120/10
f 96/150/10 95/151/10 72/132/10 69/77/10
f 160/152/2 94/153/2 71/123/2 155/122/2
f 159/154/6 96/150/6 69/77/6 156/76/6
f 94/155/10 71/68/10 70/69/10 93/156/10
f 88/157/9 73/135/9 76/133/9 87/158/9
f 87/158/2 86/159/2 75/134/2 76/133/2
f 86/160/9 85/161/9 74/51/9 75/130/9
f 85/161/6 88/162/6 73/52/6 74/51/6
f 91/163/2 90/164/2 80/138/2 77/137/2
f 92/165/6 89/166/6 78/37/6 79/136/6
f 90/167/9 92/168/9 79/117/9 80/116/9
f 89/166/7 91/169/7 77/38/7 78/37/7
f 17/34/10 19/33/10 83/149/10 81/147/10
f 47/75/8 46/101/8 84/148/8 82/145/8
f 146/46/6 17/34/6 81/147/6 157/146/6
f 147/92/2 47/75/2 82/145/2 158/144/2
f 18/49/6 33/73/6 88/162/6 85/161/6
f 20/50/9 18/49/9 85/161/9 86/160/9
f 34/44/2 20/43/2 86/159/2 87/158/2
f 33/100/7 34/44/7 87/158/7 88/157/7
f 36/65/7 35/98/7 91/169/7 89/166/7
f 22/62/9 21/61/9 92/168/9 90/167/9
f 21/66/6 36/65/6 89/166/6 92/165/6
f 35/57/2 22/56/2 90/164/2 91/163/2
f 41/97/8 48/96/8 93/156/8 94/155/8
f 148/58/6 24/16/6 96/150/6 159/154/6
f 142/94/2 41/67/2 94/153/2 160/152/2
f 24/16/10 23/15/10 95/151/10 96/150/10
f 89/166/5 91/169/5 94/155/5 93/156/5
f 94/170/2 91/171/2 77/172/2 71/173/2
f 70/174/3 71/173/3 77/172/3 78/175/3
f 70/174/6 78/175/6 89/176/6 93/177/6
f 73/52/6 88/162/6 84/148/6 67/127/6
f 67/178/3 68/179/3 76/180/3 73/181/3
f 68/179/2 82/182/2 87/183/2 76/180/2
f 101/184/5 4/36/5 121/185/5 127/186/5
f 100/187/1 101/87/1 102/86/1 103/188/1 97/189/1 98/190/1 99/191/1 104/192/1
f 15/42/3 9/63/3 97/193/3 103/194/3
f 38/10/4 43/195/4 117/196/4 118/11/4
f 3/48/3 15/47/3 103/188/3 102/86/3
f 10/18/5 13/22/5 100/197/5 104/198/5
f 2/19/5 10/18/5 104/198/5 99/199/5
f 13/22/5 4/36/5 101/184/5 100/197/5
f 9/60/3 1/59/3 98/190/3 97/189/3
f 143/45/3 42/1/3 132/4/3 162/200/3
f 38/10/3 141/93/3 163/91/3 137/201/3
f 106/8/11 112/202/11 174/203/11 175/204/11
f 7/32/3 131/28/3 107/31/3 133/205/3
f 112/202/11 139/206/11 172/207/11 174/203/11
f 109/208/11 134/209/11 170/210/11 173/211/11
f 5/14/3 11/13/3 110/27/3 111/212/3
f 14/24/3 7/32/3 133/205/3 140/26/3
f 130/213/12 8/214/12 169/215/12 166/216/12
f 116/12/2 115/217/2 114/218/2 113/219/2
f 118/11/2 117/196/2 115/217/2 116/12/2
f 113/219/2 114/218/2 120/220/2 119/221/2
f 2/19/5 99/199/5 120/222/5 114/223/5
f 99/191/1 98/190/1 119/224/1 120/225/1
f 28/20/5 2/19/5 114/223/5 115/84/5
f 1/55/3 27/9/3 116/12/3 113/219/3
f 98/190/3 1/59/3 113/226/3 119/224/3
f 122/227/6 121/228/6 125/229/6 123/230/6
f 123/230/6 125/229/6 126/103/6 124/102/6
f 121/228/6 122/227/6 128/89/6 127/88/6
f 4/36/5 26/35/5 125/231/5 121/185/5
f 25/72/3 3/48/3 122/227/3 123/230/3
f 3/48/3 102/86/3 128/89/3 122/227/3
f 26/35/5 37/80/5 126/232/5 125/231/5
f 42/1/3 25/72/3 123/230/3 124/102/3
f 162/200/6 161/233/6 130/29/6 131/28/6
f 12/234/12 6/235/12 168/236/12 167/237/12
f 111/212/4 112/202/4 106/8/4 105/7/4
f 134/209/4 133/205/4 107/31/4 108/30/4
f 16/238/12 12/234/12 167/237/12 171/239/12
f 133/205/4 134/209/4 109/208/4 140/26/4
f 163/91/2 164/90/2 138/240/2 137/201/2
f 140/26/4 109/208/4 139/206/4 110/27/4
f 141/93/3 5/14/3 136/6/3 163/91/3
f 43/195/1 38/10/1 137/201/1 138/240/1
f 110/27/4 139/206/4 112/202/4 111/212/4
f 136/6/3 5/14/3 111/212/3 105/7/3
f 129/3/5 138/240/5 164/90/5 161/233/5
f 132/4/6 129/3/6 161/233/6 162/200/6
f 7/32/3 143/45/3 162/200/3 131/28/3
f 23/15/2 142/94/2 160/152/2 95/151/2
f 48/96/6 148/58/6 159/154/6 93/156/6
f 19/33/2 147/92/2 158/144/2 83/149/2
f 46/99/6 146/46/6 157/146/6 84/241/6
f 93/156/6 159/154/6 156/76/6 70/69/6
f 95/151/2 160/152/2 155/122/2 72/132/2
f 84/241/6 157/146/6 154/141/6 67/242/6
f 83/149/2 158/144/2 153/143/2 65/121/2
f 65/121/2 153/143/2 151/107/2 51/106/2
f 67/242/6 154/141/6 150/142/6 62/243/6
f 72/132/2 155/122/2 149/125/2 58/108/2
f 64/70/3 152/79/3 149/109/3 57/71/3
f 62/128/3 150/104/3 151/107/3 63/129/3
f 5/14/2 141/93/2 142/94/2 23/15/2
f 14/24/2 145/23/2 147/92/2 19/33/2
f 70/69/6 156/76/6 152/79/6 64/70/6
f 44/95/6 144/25/6 148/58/6 48/96/6
f 42/1/6 143/45/6 146/46/6 46/99/6
f 45/74/3 145/23/3 144/25/3 44/95/3
f 171/239/5 167/237/5 172/244/5 173/245/5
f 167/237/5 168/236/5 174/246/5 172/244/5
f 169/215/5 171/239/5 173/245/5 170/247/5
f 168/236/5 176/248/5 175/249/5 174/246/5
f 177/250/5 178/251/5 176/252/5 166/253/5
f 166/216/5 169/215/5 170/247/5 165/254/5
f 135/255/11 130/213/11 166/216/11 176/248/11
f 161/233/12 164/90/12 178/251/12 177/250/12
f 134/209/11 108/30/11 165/256/11 170/210/11
f 130/29/6 161/233/6 177/250/6 166/253/6
f 135/5/2 106/8/2 175/204/2 176/252/2
f 6/235/12 135/255/12 176/248/12 168/236/12
f 139/206/11 109/208/11 173/211/11 172/207/11
f 108/30/6 130/29/6 166/253/6 165/256/6
f 8/214/12 16/238/12 171/239/12 169/215/12
f 164/90/2 135/5/2 176/252/2 178/251/2
f 84/257/5 88/258/5 87/183/5 82/182/5
