# Blender v2.82 (sub 7) OBJ File: 'Chair.blend'
# www.blender.org
mtllib Chair.mtl
o Cube.001
v -0.635367 1.651859 -0.422908
v -0.635367 1.801805 -0.422908
v -0.635367 1.651859 -2.022908
v -0.635367 1.801805 -2.022908
v 0.964633 1.651859 -0.422908
v 0.964633 1.801805 -0.422908
v 0.964633 1.651859 -2.022908
v 0.964633 1.801805 -2.022908
v -0.635367 1.651859 -0.582908
v -0.635367 1.801805 -0.582908
v 0.964633 1.651859 -0.582908
v 0.964633 1.801805 -0.582908
v -0.635367 1.801805 -1.878908
v 0.964633 1.651859 -1.878908
v -0.635367 1.651859 -1.878908
v 0.964633 1.801805 -1.878908
v 0.964633 1.551859 -2.022908
v -0.635367 1.551859 -2.022908
v 0.964633 1.551859 -1.878908
v -0.635367 1.551859 -1.878908
v -0.635367 1.551859 -0.582908
v -0.635367 1.551859 -0.422908
v 0.964633 1.551859 -0.422908
v 0.964633 1.551859 -0.582908
v -0.475367 1.651859 -2.022908
v -0.475367 1.801805 -2.022908
v -0.475367 1.651859 -0.422908
v -0.475367 1.801805 -0.422908
v -0.475367 1.801805 -0.582908
v -0.475367 1.651859 -0.582908
v -0.475367 1.651859 -1.878908
v -0.475367 1.801805 -1.878908
v -0.475367 1.551859 -2.022908
v -0.475367 1.551859 -1.878908
v -0.475367 1.551859 -0.422908
v -0.475367 1.551859 -0.582908
v 0.820633 1.801805 -2.022908
v 0.820633 1.651859 -0.422908
v 0.820633 1.801805 -0.582908
v 0.820633 1.801805 -1.878908
v 0.820633 1.551859 -0.422908
v 0.820633 1.651859 -2.022908
v 0.820633 1.801805 -0.422908
v 0.820633 1.651859 -0.582908
v 0.820633 1.651859 -1.878908
v 0.820633 1.551859 -2.022908
v 0.820633 1.551859 -1.878908
v 0.820633 1.551859 -0.582908
v -0.522686 0.551859 -2.022908
v -0.682686 0.551859 -2.022908
v 1.055099 0.551859 -1.878908
v 1.055099 0.551859 -2.022908
v -0.682686 0.551859 -1.878908
v -0.522686 0.551859 -1.878908
v -0.682686 0.551859 -0.582908
v -0.682686 0.551859 -0.422908
v 0.911099 0.551859 -0.422908
v 1.055099 0.551859 -0.422908
v 1.055099 0.551859 -0.582908
v -0.522686 0.551859 -0.582908
v -0.522686 0.551859 -0.422908
v 0.911099 0.551859 -2.022908
v 0.911099 0.551859 -1.878908
v 0.911099 0.551859 -0.582908
v 1.046052 0.651859 -1.878908
v 1.046052 0.651859 -2.022908
v 0.902052 0.651859 -2.022908
v 0.902052 0.651859 -1.878908
v 1.046052 0.651859 -0.582908
v 0.902052 0.651859 -0.582908
v 0.902052 0.651859 -0.422908
v 1.046052 0.651859 -0.422908
v -0.517954 0.651859 -2.022908
v -0.677954 0.651859 -2.022908
v -0.677954 0.651859 -1.878908
v -0.517954 0.651859 -1.878908
v -0.517954 0.651859 -0.422908
v -0.517954 0.651859 -0.582908
v -0.677954 0.651859 -0.582908
v -0.677954 0.651859 -0.422908
v 1.037910 0.741859 -2.022908
v 0.893910 0.741859 -1.878908
v 1.037910 0.741859 -1.878908
v 0.893910 0.741859 -2.022908
v -0.673695 0.741859 -2.022908
v -0.673695 0.741859 -1.878908
v -0.513695 0.741859 -1.878908
v -0.513695 0.741859 -2.022908
v -0.513695 0.741859 -0.582908
v -0.673695 0.741859 -0.422908
v -0.513695 0.741859 -0.422908
v -0.673695 0.741859 -0.582908
v 0.893910 0.741859 -0.582908
v 0.893910 0.741859 -0.422908
v 1.037910 0.741859 -0.422908
v 1.037910 0.741859 -0.582908
v -0.752156 1.651859 -0.582908
v -0.752156 1.651859 -0.422908
v -0.752156 1.801805 -0.422908
v -0.752156 1.801805 -1.878908
v -0.752156 1.801805 -2.022908
v -0.752156 1.651859 -2.022908
v -0.752156 1.651859 -1.878908
v -0.752156 1.801805 -0.582908
v 1.014633 1.651859 -0.372908
v 1.014633 1.801805 -0.372908
v 1.014633 1.651859 -2.072908
v 1.014633 1.801805 -2.072908
v 1.014633 1.801805 -1.878908
v 1.014633 1.651859 -0.582908
v 1.014633 1.651859 -0.422908
v 1.014633 1.801805 -0.422908
v -0.635367 1.651859 -0.372908
v -0.635367 1.801805 -0.372908
v -0.475367 1.801805 -0.372908
v -0.475367 1.651859 -0.372908
v 0.820633 1.801805 -0.372908
v 0.820633 1.651859 -0.372908
v -0.752156 1.651859 -0.372908
v -0.752156 1.801805 -0.372908
v -0.635367 1.801805 -2.072908
v -0.635367 1.651859 -2.072908
v -0.475367 1.651859 -2.072908
v 0.820633 1.651859 -2.072908
v -0.475367 1.801805 -2.072908
v 0.820633 1.801805 -2.072908
v -0.752156 1.801805 -2.072908
v -0.752156 1.651859 -2.072908
v 0.820633 1.801805 -2.072908
v 0.964633 1.801805 -2.072908
v 0.964633 1.651859 -2.072908
v 0.820633 1.651859 -2.072908
v 1.014633 1.651859 -2.022908
v 1.014633 1.801805 -2.022908
v 0.964633 1.801805 -0.372908
v 0.964633 1.651859 -0.372908
v 0.820633 1.651859 -0.372908
v 0.820633 1.801805 -0.372908
v 1.014633 1.801805 -0.582908
v 1.014633 1.651859 -1.878908
v 0.863094 1.651859 -0.422908
v 0.863094 1.551859 -0.422908
v 0.863094 1.651859 -2.022908
v 0.863094 1.651859 -0.582908
v 0.863094 1.651859 -1.878908
v 0.863094 1.551859 -2.022908
v 0.863094 1.551859 -1.878908
v 0.863094 1.551859 -0.582908
v 0.953561 0.551859 -0.422908
v 0.953561 0.551859 -2.022908
v 0.953561 0.551859 -1.878908
v 0.953561 0.551859 -0.582908
v 0.944514 0.651859 -1.878908
v 0.944514 0.651859 -2.022908
v 0.944514 0.651859 -0.422908
v 0.944514 0.651859 -0.582908
v 0.936372 0.741859 -2.022908
v 0.936372 0.741859 -1.878908
v 0.936372 0.741859 -0.582908
v 0.936372 0.741859 -0.422908
v 0.863094 1.801805 -2.072908
v 0.863094 1.651859 -2.072908
v 0.863094 1.651859 -0.372908
v 0.863094 1.801805 -0.372908
v 1.082423 3.642221 -2.072908
v 1.032423 3.642221 -2.072908
v 1.032423 3.642221 -0.582908
v 1.032423 3.642221 -0.422908
v 1.032423 3.642221 -2.022908
v 1.082423 3.642221 -2.022908
v 1.032423 3.642221 -1.878908
v 1.082423 3.642221 -0.582908
v 1.082423 3.642221 -1.878908
v 1.082423 3.642221 -0.422908
v 1.082423 3.642221 -0.372908
v 1.032423 3.642221 -0.372908
v 0.930885 3.642221 -2.072908
v 0.930885 3.642221 -0.372908
vt 0.688149 0.561914
vt 0.694663 0.561914
vt 0.694663 0.561914
vt 0.688149 0.561914
vt 0.694663 0.569014
vt 0.688149 0.569014
vt 0.688149 0.569014
vt 0.694663 0.569014
vt 0.688149 0.574876
vt 0.688149 0.569600
vt 0.688149 0.569600
vt 0.688149 0.574876
vt 0.693546 0.945536
vt 0.693546 0.946863
vt 0.693546 0.946863
vt 0.693546 0.945536
vt 0.700525 0.568362
vt 0.701176 0.568362
vt 0.701176 0.569014
vt 0.700525 0.569014
vt 0.700525 0.563086
vt 0.701176 0.563086
vt 0.687736 0.563086
vt 0.688149 0.563086
vt 0.688149 0.568362
vt 0.687736 0.568362
vt 0.688149 0.563086
vt 0.688149 0.568362
vt 0.688149 0.562500
vt 0.694663 0.562500
vt 0.694663 0.562500
vt 0.688149 0.562500
vt 0.693546 0.933594
vt 0.693546 0.934788
vt 0.693546 0.934788
vt 0.693546 0.933594
vt 0.700525 0.562500
vt 0.701176 0.562500
vt 0.681603 0.945536
vt 0.681603 0.946863
vt 0.681603 0.946863
vt 0.681603 0.945536
vt 0.681603 0.934788
vt 0.680276 0.934788
vt 0.680276 0.934788
vt 0.681603 0.934788
vt 0.693546 0.932752
vt 0.693546 0.932752
vt 0.693546 0.919130
vt 0.693546 0.920324
vt 0.693546 0.920324
vt 0.693546 0.919130
vt 0.693546 0.920324
vt 0.693546 0.921651
vt 0.693546 0.921651
vt 0.693546 0.920324
vt 0.693546 0.958806
vt 0.693546 0.960133
vt 0.693546 0.960133
vt 0.693546 0.958806
vt 0.692704 0.945536
vt 0.692704 0.945536
vt 0.693546 0.907055
vt 0.693546 0.908382
vt 0.693546 0.908382
vt 0.693546 0.907055
vt 0.680276 0.945536
vt 0.681603 0.945536
vt 0.681603 0.945536
vt 0.680276 0.945536
vt 0.693546 0.948057
vt 0.693546 0.948057
vt 0.692352 0.946863
vt 0.692352 0.945536
vt 0.692352 0.945536
vt 0.692352 0.946863
vt 0.693546 0.921651
vt 0.693546 0.921651
vt 0.692352 0.934788
vt 0.692352 0.934788
vt 0.692704 0.945536
vt 0.693546 0.945536
vt 0.693546 0.945536
vt 0.692704 0.945536
vt 0.695249 0.562500
vt 0.695249 0.563086
vt 0.681636 0.563086
vt 0.682287 0.563086
vt 0.682287 0.568362
vt 0.681636 0.568362
vt 0.695249 0.568362
vt 0.695249 0.569014
vt 0.700525 0.569014
vt 0.695249 0.569014
vt 0.688149 0.555986
vt 0.694663 0.555986
vt 0.694663 0.555986
vt 0.688149 0.555986
vt 0.694663 0.569427
vt 0.688149 0.569427
vt 0.692704 0.934788
vt 0.692704 0.934788
vt 0.693546 0.947705
vt 0.693546 0.947705
vt 0.692352 0.945536
vt 0.692352 0.945536
vt 0.692352 0.946863
vt 0.681603 0.946863
vt 0.693546 0.932399
vt 0.693546 0.932399
vt 0.681603 0.933594
vt 0.692352 0.933594
vt 0.687563 0.563086
vt 0.687563 0.568362
vt 0.688149 0.561914
vt 0.694663 0.561914
vt 0.692704 0.933594
vt 0.693546 0.933594
vt 0.693546 0.934788
vt 0.692704 0.934788
vt 0.693546 0.946863
vt 0.692704 0.946863
vt 0.680276 0.945536
vt 0.680276 0.946863
vt 0.680276 0.933594
vt 0.681603 0.933594
vt 0.681603 0.934788
vt 0.680276 0.934788
vt 0.693546 0.907055
vt 0.693546 0.908382
vt 0.693546 0.908382
vt 0.693546 0.907055
vt 0.693546 0.933594
vt 0.693546 0.934788
vt 0.693546 0.947705
vt 0.693546 0.948057
vt 0.693546 0.948057
vt 0.693546 0.947705
vt 0.692352 0.934788
vt 0.692352 0.933594
vt 0.692352 0.933594
vt 0.692352 0.934788
vt 0.693546 0.919130
vt 0.693546 0.919130
vt 0.693546 0.946863
vt 0.681603 0.934788
vt 0.680276 0.934788
vt 0.681603 0.933594
vt 0.680276 0.945536
vt 0.693546 0.958806
vt 0.693546 0.960133
vt 0.693546 0.960133
vt 0.693546 0.958806
vt 0.693546 0.932752
vt 0.693546 0.932752
vt 0.692704 0.934788
vt 0.692704 0.934788
vt 0.692352 0.934788
vt 0.693546 0.932752
vt 0.693546 0.933594
vt 0.687563 0.563086
vt 0.687563 0.562500
vt 0.687563 0.562500
vt 0.687563 0.563086
vt 0.693546 0.934788
vt 0.693546 0.945536
vt 0.693546 0.946863
vt 0.693546 0.947705
vt 0.693546 0.948057
vt 0.692704 0.945536
vt 0.687563 0.569014
vt 0.687563 0.569014
vt 0.687563 0.568362
vt 0.687563 0.568362
vt 0.682287 0.562500
vt 0.682287 0.562500
vt 0.682287 0.563086
vt 0.682287 0.563086
vt 0.681603 0.934788
vt 0.680276 0.934788
vt 0.693546 0.919130
vt 0.693546 0.920324
vt 0.693546 0.921651
vt 0.693546 0.958806
vt 0.693546 0.960133
vt 0.680276 0.945536
vt 0.681603 0.945536
vt 0.693546 0.907055
vt 0.693546 0.908382
vt 0.682287 0.568362
vt 0.682287 0.569014
vt 0.682287 0.569014
vt 0.682287 0.568362
vt 0.692352 0.933594
vt 0.681603 0.933594
vt 0.681603 0.946863
vt 0.692352 0.945536
vt 0.692352 0.946863
vt 0.673642 0.907055
vt 0.673642 0.907055
vt 0.673642 0.907055
vt 0.673642 0.907055
vt 0.673642 0.907055
vt 0.673642 0.907055
vt 0.673642 0.907055
vt 0.673642 0.907055
vt 0.673642 0.907055
vt 0.673642 0.907055
vt 0.673642 0.907055
vt 0.673642 0.907055
vt 0.673642 0.907055
vt 0.673642 0.907055
vt 0.701176 0.562500
vt 0.701176 0.562500
vt 0.701176 0.562500
vt 0.694663 0.555400
vt 0.688149 0.555400
vt 0.688149 0.550124
vt 0.688149 0.549473
vt 0.694663 0.549473
vt 0.694663 0.550124
vt 0.681636 0.568362
vt 0.681636 0.563086
vt 0.694663 0.569600
vt 0.694663 0.569600
vt 0.688149 0.555986
vt 0.688149 0.555400
vt 0.701176 0.563086
vt 0.701176 0.568362
vt 0.701176 0.569014
vt 0.688149 0.550124
vt 0.688149 0.549473
vt 0.688149 0.562087
vt 0.688149 0.562087
vt 0.688149 0.569427
vt 0.688149 0.569600
vt 0.694663 0.569014
vt 0.694663 0.569014
vt 0.694663 0.569014
vt 0.688149 0.562500
vt 0.688149 0.562500
vt 0.694663 0.568362
vt 0.694663 0.568362
vt 0.694663 0.563086
vt 0.694663 0.562500
vt 0.694663 0.562500
vt 0.694663 0.563086
vt 0.688149 0.569014
vt 0.688149 0.569014
vt 0.000000 0.000000
vt 0.000000 0.000000
vt 0.000000 0.000000
vt 0.000000 0.000000
vt 0.694663 0.574876
vt 0.694663 0.575527
vt 0.688149 0.575527
vt 0.694663 0.575527
vt 0.688149 0.575527
vt 0.701176 0.569014
vt 0.701176 0.569014
vt 0.688149 0.549473
vt 0.694663 0.549473
vt 0.688149 0.575527
vt 0.688149 0.549473
vt 0.688149 0.555986
vt 0.694663 0.555986
vt 0.694663 0.556638
vt 0.688149 0.556638
vt 0.700525 0.562500
vt 0.688149 0.556638
vt 0.695249 0.562500
vt 0.694663 0.562087
vt 0.000000 0.000000
vt 0.000000 0.000000
vt 0.000000 0.000000
vt 0.000000 0.000000
vt 0.000000 0.000000
vt 0.000000 0.000000
vt 0.694663 0.569600
vt 0.693546 0.932399
vt 0.693546 0.932399
vt 0.693546 0.932399
vt 0.699219 0.550781
vt 0.699219 0.550781
vt 0.699219 0.550781
vt 0.699219 0.550781
vt 0.699219 0.550781
vt 0.699219 0.550781
vt 0.699219 0.550781
vt 0.699219 0.550781
vt 0.699219 0.550781
vt 0.699219 0.550781
vt 0.694663 0.562087
vt 0.694663 0.569427
vt 0.694663 0.569014
vt 0.694663 0.562500
vt 0.699219 0.550781
vt 0.699219 0.550781
vt 0.000000 0.000000
vt 0.000000 0.000000
vt 0.694663 0.562500
vt 0.673642 0.907055
vt 0.673642 0.907055
vn -1.0000 0.0000 0.0000
vn 0.0000 0.0000 1.0000
vn 0.0000 -1.0000 0.0000
vn 1.0000 0.0000 0.0000
vn 0.0000 1.0000 0.0000
vn 0.0000 0.0000 -1.0000
vn 0.9989 -0.0473 0.0000
vn -0.9959 -0.0901 0.0000
vn -0.9989 0.0473 0.0000
vn 0.9959 0.0901 0.0000
vn 0.9993 -0.0368 0.0000
vn -0.9993 0.0368 0.0000
usemtl Material.001
s off
f 42/1/1 37/2/1 129/3/1 132/4/1
f 135/5/2 136/6/2 105/7/2 106/8/2
f 27/9/3 38/10/3 118/11/3 116/12/3
f 11/13/4 5/14/4 23/15/4 24/16/4
f 29/17/5 10/18/5 2/19/5 28/20/5
f 32/21/5 13/22/5 10/18/5 29/17/5
f 145/23/3 14/24/3 11/25/3 144/26/3
f 11/25/3 14/24/3 140/27/3 110/28/3
f 131/29/6 130/30/6 108/31/6 107/32/6
f 7/33/4 14/34/4 19/35/4 17/36/4
f 26/37/5 4/38/5 13/22/5 32/21/5
f 78/39/7 77/40/7 61/41/7 60/42/7
f 31/43/2 15/44/2 20/45/2 34/46/2
f 143/47/6 7/33/6 17/36/6 146/48/6
f 15/49/1 3/50/1 18/51/1 20/52/1
f 74/53/6 73/54/6 49/55/6 50/56/6
f 27/57/2 1/58/2 22/59/2 35/60/2
f 144/61/6 11/13/6 24/16/6 148/62/6
f 1/63/1 9/64/1 21/65/1 22/66/1
f 9/67/6 30/68/6 36/69/6 21/70/6
f 38/71/2 27/57/2 35/60/2 41/72/2
f 71/73/8 70/74/8 64/75/8 57/76/8
f 3/50/6 25/77/6 33/78/6 18/51/6
f 45/79/2 31/43/2 34/46/2 47/80/2
f 156/81/6 69/82/6 59/83/6 152/84/6
f 37/85/5 26/37/5 32/21/5 40/86/5
f 15/87/3 31/88/3 30/89/3 9/90/3
f 40/86/5 32/21/5 29/17/5 39/91/5
f 39/91/5 29/17/5 28/20/5 43/92/5
f 43/92/5 28/20/5 115/93/5 117/94/5
f 102/95/1 101/96/1 127/97/1 128/98/1
f 136/6/2 135/5/2 164/99/2 163/100/2
f 145/101/2 45/79/2 47/80/2 147/102/2
f 141/103/2 38/71/2 41/72/2 142/104/2
f 30/68/6 44/105/6 48/106/6 36/69/6
f 36/69/3 48/106/3 41/107/3 35/108/3
f 25/77/6 42/109/6 46/110/6 33/78/6
f 33/111/3 46/112/3 47/80/3 34/46/3
f 31/88/3 45/113/3 44/114/3 30/89/3
f 37/2/4 42/1/4 124/115/4 126/116/4
f 150/117/3 52/118/3 51/119/3 151/120/3
f 152/84/3 59/83/3 58/121/3 149/122/3
f 55/123/3 60/42/3 61/41/3 56/124/3
f 50/125/3 49/126/3 54/127/3 53/128/3
f 80/129/9 79/130/9 55/131/9 56/132/9
f 66/133/10 65/134/10 51/119/10 52/118/10
f 155/135/2 71/136/2 57/137/2 149/138/2
f 68/139/8 67/140/8 62/141/8 63/142/8
f 75/143/9 74/53/9 50/56/9 53/144/9
f 69/82/10 72/145/10 58/121/10 59/83/10
f 76/146/2 75/147/2 53/128/2 54/127/2
f 73/148/7 76/146/7 54/127/7 49/126/7
f 79/149/6 78/39/6 60/42/6 55/123/6
f 77/150/2 80/151/2 56/152/2 61/153/2
f 154/154/6 66/133/6 52/118/6 150/155/6
f 153/156/2 68/139/2 63/142/2 151/120/2
f 158/157/2 82/158/2 68/139/2 153/156/2
f 157/159/6 81/160/6 66/133/6 154/154/6
f 82/161/8 84/162/8 67/163/8 68/164/8
f 81/160/10 83/165/10 65/134/10 66/133/10
f 96/166/10 95/167/10 72/145/10 69/82/10
f 160/168/2 94/169/2 71/136/2 155/135/2
f 159/170/6 96/166/6 69/82/6 156/81/6
f 94/171/10 71/172/10 70/173/10 93/174/10
f 88/175/9 73/176/9 76/177/9 87/178/9
f 87/179/2 86/180/2 75/147/2 76/146/2
f 86/181/9 85/182/9 74/53/9 75/143/9
f 85/182/6 88/183/6 73/54/6 74/53/6
f 91/184/2 90/185/2 80/151/2 77/150/2
f 92/186/6 89/187/6 78/39/6 79/149/6
f 90/188/9 92/189/9 79/130/9 80/129/9
f 89/190/7 91/191/7 77/192/7 78/193/7
f 17/36/10 19/35/10 83/165/10 81/160/10
f 47/80/8 46/112/8 84/194/8 82/158/8
f 146/48/6 17/36/6 81/160/6 157/159/6
f 147/102/2 47/80/2 82/158/2 158/157/2
f 18/51/6 33/78/6 88/183/6 85/182/6
f 20/52/9 18/51/9 85/182/9 86/181/9
f 34/46/2 20/45/2 86/180/2 87/179/2
f 33/111/7 34/46/7 87/179/7 88/195/7
f 36/69/7 35/108/7 91/196/7 89/187/7
f 22/66/9 21/65/9 92/189/9 90/188/9
f 21/70/6 36/69/6 89/187/6 92/186/6
f 35/60/2 22/59/2 90/185/2 91/184/2
f 41/107/8 48/106/8 93/197/8 94/198/8
f 148/62/6 24/16/6 96/166/6 159/170/6
f 142/104/2 41/72/2 94/169/2 160/168/2
f 24/16/10 23/15/10 95/167/10 96/166/10
f 89/187/5 91/196/5 94/198/5 93/197/5
f 94/199/2 91/200/2 77/201/2 71/202/2
f 70/203/3 71/202/3 77/201/3 78/204/3
f 70/203/6 78/204/6 89/205/6 93/206/6
f 73/54/6 88/183/6 84/194/6 67/140/6
f 67/207/3 68/208/3 76/209/3 73/210/3
f 68/208/2 82/211/2 87/212/2 76/209/2
f 101/213/5 4/38/5 121/214/5 127/215/5
f 100/216/1 101/96/1 102/95/1 103/217/1 97/218/1 98/219/1 99/220/1 104/221/1
f 15/87/3 9/90/3 97/222/3 103/223/3
f 38/10/4 43/224/4 117/225/4 118/11/4
f 3/226/3 15/227/3 103/217/3 102/95/3
f 10/18/5 13/22/5 100/228/5 104/229/5
f 2/19/5 10/18/5 104/229/5 99/230/5
f 13/22/5 4/38/5 101/213/5 100/228/5
f 9/231/3 1/232/3 98/219/3 97/218/3
f 143/233/3 42/1/3 132/4/3 162/234/3
f 38/10/3 141/235/3 163/100/3 137/236/3
f 106/8/11 112/237/11 174/238/11 175/239/11
f 7/240/3 131/29/3 107/32/3 133/241/3
f 112/237/11 139/242/11 172/243/11 174/238/11
f 109/244/11 134/245/11 170/246/11 173/247/11
f 5/248/3 11/25/3 110/28/3 111/249/3
f 14/24/3 7/240/3 133/241/3 140/27/3
f 130/250/12 8/251/12 169/252/12 166/253/12
f 116/12/2 115/254/2 114/255/2 113/256/2
f 118/11/2 117/225/2 115/254/2 116/12/2
f 113/256/2 114/255/2 120/257/2 119/258/2
f 2/19/5 99/230/5 120/259/5 114/260/5
f 99/220/1 98/219/1 119/261/1 120/262/1
f 28/20/5 2/19/5 114/260/5 115/93/5
f 1/263/3 27/9/3 116/12/3 113/256/3
f 98/219/3 1/232/3 113/264/3 119/261/3
f 122/265/6 121/266/6 125/267/6 123/268/6
f 123/268/6 125/267/6 126/116/6 124/115/6
f 121/266/6 122/265/6 128/98/6 127/97/6
f 4/38/5 26/37/5 125/269/5 121/214/5
f 25/270/3 3/226/3 122/265/3 123/268/3
f 3/226/3 102/95/3 128/98/3 122/265/3
f 26/37/5 37/85/5 126/271/5 125/269/5
f 42/1/3 25/270/3 123/268/3 124/115/3
f 162/234/6 161/272/6 130/30/6 131/29/6
f 12/273/12 6/274/12 168/275/12 167/276/12
f 111/249/4 112/237/4 106/8/4 105/7/4
f 134/245/4 133/241/4 107/32/4 108/31/4
f 16/277/12 12/273/12 167/276/12 171/278/12
f 133/241/4 134/245/4 109/244/4 140/27/4
f 163/100/2 164/99/2 138/279/2 137/236/2
f 140/27/4 109/244/4 139/242/4 110/28/4
f 141/235/3 5/248/3 136/6/3 163/100/3
f 43/224/1 38/10/1 137/236/1 138/279/1
f 110/28/4 139/242/4 112/237/4 111/249/4
f 136/6/3 5/248/3 111/249/3 105/7/3
f 129/3/5 138/279/5 164/99/5 161/272/5
f 132/4/6 129/3/6 161/272/6 162/234/6
f 7/240/3 143/233/3 162/234/3 131/29/3
f 23/15/2 142/104/2 160/168/2 95/167/2
f 48/106/6 148/62/6 159/170/6 93/197/6
f 19/35/2 147/102/2 158/157/2 83/165/2
f 46/110/6 146/48/6 157/159/6 84/280/6
f 93/197/6 159/170/6 156/81/6 70/74/6
f 95/167/2 160/168/2 155/135/2 72/145/2
f 84/280/6 157/159/6 154/154/6 67/281/6
f 83/165/2 158/157/2 153/156/2 65/134/2
f 65/134/2 153/156/2 151/120/2 51/119/2
f 67/281/6 154/154/6 150/155/6 62/282/6
f 72/145/2 155/135/2 149/138/2 58/121/2
f 64/75/3 152/84/3 149/122/3 57/76/3
f 62/141/3 150/117/3 151/120/3 63/142/3
f 5/14/2 141/103/2 142/104/2 23/15/2
f 14/34/2 145/101/2 147/102/2 19/35/2
f 70/74/6 156/81/6 152/84/6 64/75/6
f 44/105/6 144/61/6 148/62/6 48/106/6
f 42/109/6 143/47/6 146/48/6 46/110/6
f 45/113/3 145/23/3 144/26/3 44/114/3
f 171/283/5 167/284/5 172/285/5 173/286/5
f 167/284/5 168/287/5 174/288/5 172/285/5
f 169/289/5 171/283/5 173/286/5 170/290/5
f 168/287/5 176/291/5 175/292/5 174/288/5
f 177/293/5 178/294/5 176/295/5 166/296/5
f 166/297/5 169/289/5 170/290/5 165/298/5
f 135/299/11 130/250/11 166/253/11 176/300/11
f 161/272/12 164/99/12 178/294/12 177/293/12
f 134/245/11 108/31/11 165/301/11 170/246/11
f 130/30/6 161/272/6 177/293/6 166/296/6
f 135/5/2 106/8/2 175/239/2 176/295/2
f 6/274/12 135/299/12 176/300/12 168/275/12
f 139/242/11 109/244/11 173/247/11 172/243/11
f 108/31/6 130/30/6 166/296/6 165/301/6
f 8/251/12 16/277/12 171/278/12 169/252/12
f 164/99/2 135/5/2 176/295/2 178/294/2
f 84/302/5 88/303/5 87/212/5 82/211/5
