# Blender v2.82 (sub 7) OBJ File: 'DoorTile.blend'
# www.blender.org
mtllib DoorTile.mtl
o Object_Cube
v 0.500000 2.000000 -6.000000
v 0.500000 -2.000000 -6.000000
v 0.500000 2.000000 6.000000
v 0.500000 -2.000000 6.000000
v -0.500000 2.000000 -6.000000
v -0.500000 -2.000000 -6.000000
v -0.500000 2.000000 6.000000
v -0.500000 -2.000000 6.000000
v 0.500000 -2.000000 2.500000
v 0.500000 2.000000 2.500000
v -0.500000 -2.000000 2.500000
v -0.500000 2.000000 2.500000
v -0.500000 -2.000000 3.000000
v 0.500000 2.000000 3.000000
v -0.500000 2.000000 3.000000
v 0.500000 -2.000000 3.000000
v -0.500000 2.000000 -3.000000
v 0.500000 -2.000000 -3.000000
v -0.500000 -2.000000 -3.000000
v 0.500000 2.000000 -3.000000
v -0.500000 2.000000 -2.500000
v 0.500000 2.000000 -2.500000
v 0.500000 -2.000000 -2.500000
v -0.500000 -2.000000 -2.500000
v -0.500000 8.000000 -2.500000
v 0.500000 8.000000 -2.500000
v -0.500000 8.000000 -3.000000
v 0.500000 8.000000 -3.000000
v -0.500000 8.000000 2.500000
v -0.500000 8.000000 3.000000
v 0.500000 8.000000 3.000000
v 0.500000 8.000000 2.500000
v -0.500000 8.500000 2.500000
v -0.500000 8.500000 3.000000
v 0.500000 8.500000 3.000000
v 0.500000 8.500000 2.500000
v -0.500000 8.500000 -2.500000
v 0.500000 8.500000 -2.500000
v -0.500000 8.500000 -3.000000
v 0.500000 8.500000 -3.000000
v 0.500000 -1.000000 -6.000000
v -0.500000 -1.000000 -6.000000
v -0.500000 -1.000000 -2.500000
v 0.500000 -1.000000 -2.500000
v 0.500000 -1.000000 -3.000000
v -0.500000 -1.000000 -3.000000
v -0.500000 -1.000000 6.000000
v 0.500000 -1.000000 6.000000
v -0.500000 -1.000000 3.000000
v 0.500000 -1.000000 3.000000
v 0.500000 -1.000000 2.500000
v -0.500000 -1.000000 2.500000
v 0.500000 -0.250000 -6.000000
v -0.500000 -0.250000 -6.000000
v -0.500000 -0.250000 -2.500000
v 0.500000 -0.250000 -2.500000
v 0.500000 -0.250000 -3.000000
v -0.500000 -0.250000 -3.000000
v -0.500000 -0.250000 6.000000
v 0.500000 -0.250000 6.000000
v -0.500000 -0.250000 3.000000
v 0.500000 -0.250000 3.000000
v 0.500000 -0.250000 2.500000
v -0.500000 -0.250000 2.500000
vt 0.146986 0.918582
vt 0.204577 0.918582
vt 0.204577 0.932980
vt 0.146986 0.932980
vt 0.204474 0.933695
vt 0.209111 0.933695
vt 0.209111 0.941608
vt 0.204474 0.941608
vt 0.204507 0.915889
vt 0.209111 0.915889
vt 0.209111 0.917868
vt 0.204507 0.917868
vt 0.184068 0.954658
vt 0.197795 0.954658
vt 0.197795 0.958090
vt 0.184068 0.958090
vt 0.538211 0.576820
vt 0.580929 0.576820
vt 0.580929 0.595047
vt 0.538211 0.595047
vt 0.174033 0.897062
vt 0.216536 0.897062
vt 0.216536 0.970125
vt 0.174033 0.970125
vt 0.577241 0.451687
vt 0.586673 0.451687
vt 0.586673 0.451687
vt 0.577241 0.451687
vt 0.431089 0.187500
vt 0.375000 0.187500
vt 0.375000 0.562500
vt 0.431089 0.562500
vt 0.204474 0.911933
vt 0.209111 0.911933
vt 0.209111 0.911933
vt 0.204474 0.911933
vt 0.184068 0.954658
vt 0.197795 0.954658
vt 0.204474 0.909954
vt 0.209111 0.909954
vt 0.192716 0.940967
vt 0.190565 0.940967
vt 0.190565 0.940967
vt 0.192716 0.940967
vt 0.588684 0.437500
vt 0.557008 0.437500
vt 0.575028 0.437500
vt 0.585586 0.437500
vt 0.184068 0.947795
vt 0.197795 0.947795
vt 0.197795 0.947795
vt 0.184068 0.947795
vt 0.168277 0.939530
vt 0.214535 0.939530
vt 0.214535 0.951095
vt 0.168277 0.951095
vt 0.184068 0.944363
vt 0.197795 0.944363
vt 0.538518 0.522141
vt 0.580929 0.522141
vt 0.580929 0.540367
vt 0.538518 0.540367
vt 0.565965 0.458176
vt 0.581002 0.458176
vt 0.581002 0.458176
vt 0.565965 0.458176
vt 0.586673 0.451687
vt 0.586673 0.451687
vt 0.192771 0.921304
vt 0.190565 0.921304
vt 0.190565 0.921304
vt 0.192771 0.921304
vt 0.586673 0.451687
vt 0.586673 0.451687
vt 0.535088 0.429653
vt 0.597724 0.429653
vt 0.597724 0.429653
vt 0.535088 0.429653
vt 0.209111 0.915889
vt 0.209111 0.915889
vt 0.209111 0.915889
vt 0.565965 0.428102
vt 0.565965 0.450657
vt 0.565965 0.450657
vt 0.565965 0.428102
vt 0.597724 0.460972
vt 0.535088 0.460972
vt 0.535088 0.460972
vt 0.597724 0.460972
vt 0.209111 0.911933
vt 0.209111 0.911933
vt 0.597724 0.460972
vt 0.535088 0.460972
vt 0.586673 0.459794
vt 0.586673 0.459794
vt 0.586673 0.459794
vt 0.586673 0.459794
vt 0.535088 0.460972
vt 0.597724 0.460972
vt 0.586673 0.459794
vt 0.586673 0.459794
vt 0.625000 0.687500
vt 0.875000 0.687500
vt 0.875000 0.687500
vt 0.625000 0.687500
vt 0.209111 0.911933
vt 0.209111 0.911933
vt 0.535088 0.429653
vt 0.597724 0.429653
vt 0.597724 0.429653
vt 0.535088 0.429653
vt 0.625000 0.187500
vt 0.625000 0.562500
vt 0.625000 0.562500
vt 0.625000 0.187500
vt 0.209111 0.915889
vt 0.209111 0.915889
vt 0.546139 0.415206
vt 0.546139 0.415206
vt 0.546139 0.415206
vt 0.546139 0.415206
vt 0.189327 0.909954
vt 0.189327 0.909954
vt 0.189327 0.909954
vt 0.189327 0.909954
vt 0.528373 0.416824
vt 0.528373 0.416824
vt 0.528373 0.416824
vt 0.528373 0.416824
vt 0.206129 0.953125
vt 0.157651 0.953125
vt 0.157651 0.953125
vt 0.206129 0.953125
vt 0.190565 0.933594
vt 0.192771 0.933594
vt 0.192771 0.936052
vt 0.190565 0.936052
vt 0.557218 0.428102
vt 0.554302 0.428102
vt 0.554302 0.450657
vt 0.557218 0.450657
vt 0.192771 0.936052
vt 0.190565 0.936052
vt 0.190565 0.923762
vt 0.192771 0.923762
vt 0.125000 0.687500
vt 0.289062 0.687500
vt 0.429688 0.687500
vt 0.375000 0.687500
vt 0.577173 0.459794
vt 0.574006 0.459794
vt 0.574006 0.459794
vt 0.577173 0.459794
vt 0.190565 0.913930
vt 0.192716 0.913930
vt 0.192716 0.916388
vt 0.190565 0.916388
vt 0.192716 0.916388
vt 0.190565 0.916388
vt 0.192716 0.943425
vt 0.190565 0.943425
vt 0.192716 0.953257
vt 0.190565 0.953257
vt 0.197634 0.950199
vt 0.197634 0.900383
vt 0.178767 0.966805
vt 0.197448 0.966805
vt 0.175818 0.913930
vt 0.175818 0.913930
vt 0.175818 0.913930
vt 0.175818 0.913930
vt 0.177205 0.916910
vt 0.177205 0.916910
vt 0.177205 0.916910
vt 0.177205 0.916910
vt 0.175818 0.913930
vt 0.175818 0.913930
vt 0.175818 0.913930
vt 0.175818 0.913930
vt 0.204507 0.915889
vt 0.800046 0.925620
vt 0.804654 0.925620
vt 0.804654 0.931560
vt 0.800046 0.931560
vt 0.574097 0.451687
vt 0.574097 0.451687
vt 0.159865 0.897062
vt 0.159865 0.970125
vt 0.202973 0.915889
vt 0.202973 0.917868
vt 0.599242 0.437500
vt 0.589106 0.437500
vt 0.202928 0.909954
vt 0.202928 0.911933
vt 0.202928 0.911933
vt 0.799913 0.943440
vt 0.804554 0.943440
vt 0.804554 0.949380
vt 0.799913 0.949380
vt 0.202928 0.933695
vt 0.202928 0.941608
vn 0.0000 1.0000 0.0000
vn 0.0000 0.0000 1.0000
vn -1.0000 0.0000 0.0000
vn 0.0000 -1.0000 0.0000
vn 1.0000 0.0000 0.0000
vn 0.0000 0.0000 -1.0000
usemtl Material
s off
f 14/1/1 15/2/1 7/3/1 3/4/1
f 60/5/2 3/6/2 7/7/2 59/8/2
f 58/9/3 17/10/3 5/11/3 54/12/3
f 13/13/4 16/14/4 4/15/4 8/16/4
f 62/17/5 14/18/5 3/19/5 60/20/5
f 54/21/6 5/22/6 1/23/6 53/24/6
f 57/25/5 20/26/5 22/27/5 56/28/5
f 43/29/2 24/30/2 23/31/2 44/32/2
f 61/33/3 15/34/3 12/35/3 64/36/3
f 16/14/4 13/13/4 11/37/4 9/38/4
f 59/39/3 7/40/3 15/34/3 61/33/3
f 50/41/5 16/42/5 9/43/5 51/44/5
f 64/45/6 12/46/6 10/47/6 63/48/6
f 19/49/4 18/50/4 23/51/4 24/52/4
f 1/53/1 5/54/1 17/55/1 20/56/1
f 6/57/4 2/58/4 18/50/4 19/49/4
f 53/59/5 1/60/5 20/61/5 57/62/5
f 10/63/6 12/64/6 29/65/6 32/66/6
f 22/27/5 20/26/5 28/67/5 26/68/5
f 46/69/3 19/70/3 24/71/3 43/72/3
f 26/68/5 28/67/5 40/73/5 38/74/5
f 20/75/6 17/76/6 27/77/6 28/78/6
f 17/10/3 21/79/3 25/80/3 27/81/3
f 21/82/2 22/83/2 26/84/2 25/85/2
f 30/86/2 31/87/2 35/88/2 34/89/2
f 12/35/3 15/34/3 30/90/3 29/91/3
f 15/92/2 14/93/2 31/87/2 30/86/2
f 14/94/5 10/95/5 32/96/5 31/97/5
f 34/89/1 35/88/1 36/98/1 33/99/1
f 31/97/5 32/96/5 36/100/5 35/101/5
f 32/102/6 29/103/6 33/104/6 36/105/6
f 29/91/3 30/90/3 34/106/3 33/107/3
f 40/108/1 39/109/1 37/110/1 38/111/1
f 25/112/2 26/113/2 38/114/2 37/115/2
f 27/81/3 25/80/3 37/116/3 39/117/3
f 28/78/6 27/77/6 39/109/6 40/108/6
f 36/98/1 38/111/1 37/110/1 33/99/1
f 26/118/5 38/119/5 36/120/5 32/121/5
f 25/122/3 29/123/3 33/124/3 37/125/3
f 25/126/4 26/127/4 32/128/4 29/129/4
f 58/130/3 46/131/3 43/132/3 55/133/3
f 2/134/5 41/135/5 45/136/5 18/137/5
f 55/138/2 43/139/2 44/140/2 56/141/2
f 18/137/5 45/136/5 44/142/5 23/143/5
f 6/144/6 42/145/6 41/135/6 2/134/6
f 19/70/3 46/69/3 42/145/3 6/144/3
f 11/146/6 52/147/6 51/148/6 9/149/6
f 62/150/5 50/151/5 51/152/5 63/153/5
f 8/154/3 47/155/3 49/156/3 13/157/3
f 13/157/3 49/156/3 52/158/3 11/159/3
f 16/42/5 50/41/5 48/160/5 4/161/5
f 4/161/2 48/160/2 47/162/2 8/163/2
f 44/164/1 43/165/1 52/166/1 51/167/1
f 52/168/3 43/169/3 24/170/3 11/171/3
f 23/172/4 9/173/4 11/174/4 24/175/4
f 44/176/5 51/177/5 9/178/5 23/179/5
f 21/82/2 55/138/2 56/141/2 22/83/2
f 17/10/3 58/9/3 55/180/3 21/79/3
f 41/181/5 53/182/5 57/183/5 45/184/5
f 45/185/5 57/25/5 56/28/5 44/186/5
f 42/187/6 54/21/6 53/24/6 41/188/6
f 46/189/3 58/9/3 54/12/3 42/190/3
f 14/94/5 62/150/5 63/153/5 10/95/5
f 52/191/6 64/45/6 63/48/6 51/192/6
f 47/193/3 59/39/3 61/33/3 49/194/3
f 49/194/3 61/33/3 64/36/3 52/195/3
f 50/196/5 62/197/5 60/198/5 48/199/5
f 48/200/2 60/5/2 59/8/2 47/201/2
