# Blender v2.82 (sub 7) OBJ File: 'FloorTile.blend'
# www.blender.org
mtllib FloorTile.mtl
o Cube
v 6.000000 0.500000 -6.000000
v 6.000000 -0.500000 -6.000000
v 6.000000 0.500000 6.000000
v 6.000000 -0.500000 6.000000
v -6.000000 0.500000 -6.000000
v -6.000000 -0.500000 -6.000000
v -6.000000 0.500000 6.000000
v -6.000000 -0.500000 6.000000
v 3.000000 0.500000 6.000000
v 0.000000 0.500000 6.000000
v -3.000000 0.500000 6.000000
v 6.000000 0.500000 -3.000000
v 6.000000 0.500000 0.000000
v 6.000000 0.500000 3.000000
v -6.000000 0.500000 3.000000
v -6.000000 0.500000 0.000000
v -6.000000 0.500000 -3.000000
v -3.000000 0.500000 -6.000000
v 0.000000 0.500000 -6.000000
v 3.000000 0.500000 -6.000000
v 3.000000 0.500000 -3.000000
v 3.000000 0.500000 0.000000
v 3.000000 0.500000 3.000000
v 0.000000 0.500000 -3.000000
v 0.000000 0.500000 0.000000
v 0.000000 0.500000 3.000000
v -3.000000 0.500000 -3.000000
v -3.000000 0.500000 0.000000
v -3.000000 0.500000 3.000000
vt 0.063514 0.959739
vt 0.078351 0.959739
vt 0.078351 0.974576
vt 0.063514 0.974576
vt 0.195363 0.939298
vt 0.204024 0.939298
vt 0.204024 0.941463
vt 0.204024 0.943628
vt 0.204024 0.945793
vt 0.204024 0.947959
vt 0.195363 0.947959
vt 0.195363 0.913315
vt 0.204024 0.913315
vt 0.204024 0.915481
vt 0.204024 0.917646
vt 0.204024 0.919811
vt 0.204024 0.921976
vt 0.195363 0.921976
vt 0.195363 0.930637
vt 0.204024 0.930637
vt 0.204024 0.932802
vt 0.204024 0.934967
vt 0.204024 0.937133
vt 0.204024 0.924141
vt 0.204024 0.926307
vt 0.204024 0.928472
vt 0.282117 0.949991
vt 0.294588 0.949991
vt 0.294588 0.962462
vt 0.282117 0.962462
vt 0.033840 0.959739
vt 0.048677 0.959739
vt 0.048677 0.974576
vt 0.033840 0.974576
vt 0.307059 0.949991
vt 0.319530 0.949991
vt 0.319530 0.962462
vt 0.307059 0.962462
vt 0.019003 0.915228
vt 0.033840 0.915228
vt 0.033840 0.930065
vt 0.019003 0.930065
vt 0.282117 0.925048
vt 0.294588 0.925048
vt 0.294588 0.937519
vt 0.282117 0.937519
vt 0.019003 0.944902
vt 0.033840 0.944902
vt 0.019003 0.959739
vt 0.294588 0.912577
vt 0.307059 0.912577
vt 0.307059 0.925048
vt 0.048677 0.930065
vt 0.048677 0.944902
vt 0.307059 0.937519
vt 0.048677 0.915228
vt 0.063514 0.915228
vt 0.063514 0.930065
vt 0.319530 0.925048
vt 0.319530 0.937519
vt 0.063514 0.944902
vt 0.319530 0.912577
vt 0.332001 0.912577
vt 0.332001 0.925048
vt 0.078351 0.930065
vt 0.078351 0.944902
vt 0.332001 0.937519
vt 0.332001 0.949991
vn 0.0000 1.0000 0.0000
vn 0.0000 0.0000 1.0000
vn -1.0000 0.0000 0.0000
vn 1.0000 0.0000 0.0000
vn 0.0000 0.0000 -1.0000
usemtl Material
s off
f 29/1/1 15/2/1 7/3/1 11/4/1
f 4/5/2 3/6/2 9/7/2 10/8/2 11/9/2 7/10/2 8/11/2
f 8/12/3 7/13/3 15/14/3 16/15/3 17/16/3 5/17/3 6/18/3
f 2/19/4 1/20/4 12/21/4 13/22/4 14/23/4 3/6/4 4/5/4
f 6/18/5 5/17/5 18/24/5 19/25/5 20/26/5 1/20/5 2/19/5
f 14/27/1 23/28/1 9/29/1 3/30/1
f 23/31/1 26/32/1 10/33/1 9/34/1
f 26/35/1 29/36/1 11/37/1 10/38/1
f 1/39/1 20/40/1 21/41/1 12/42/1
f 12/43/1 21/44/1 22/45/1 13/46/1
f 13/47/1 22/48/1 23/31/1 14/49/1
f 20/50/1 19/51/1 24/52/1 21/44/1
f 21/41/1 24/53/1 25/54/1 22/48/1
f 22/45/1 25/55/1 26/35/1 23/28/1
f 19/56/1 18/57/1 27/58/1 24/53/1
f 24/52/1 27/59/1 28/60/1 25/55/1
f 25/54/1 28/61/1 29/1/1 26/32/1
f 18/62/1 5/63/1 17/64/1 27/59/1
f 27/58/1 17/65/1 16/66/1 28/61/1
f 28/60/1 16/67/1 15/68/1 29/36/1
