# Blender v2.82 (sub 7) OBJ File: 'Grass.blend'
# www.blender.org
mtllib Grass.mtl
o Cone.001
v 0.000000 0.000593 -0.268500
v 0.114266 -0.001605 -0.149712
v -0.114266 -0.001605 -0.149712
v -0.050552 0.664868 -0.277958
v -0.175885 -0.001605 -0.168019
v -0.086706 -0.000079 0.008665
v -0.258905 0.000515 0.044314
v -0.208479 0.442510 -0.003647
v 0.133861 -0.001605 -0.110881
v 0.014534 0.000226 0.045560
v -0.094595 -0.001605 -0.116769
v 0.077002 0.519438 -0.017439
v 0.090833 0.003050 -0.009435
v 0.171338 0.003050 0.061496
v 0.069658 0.003050 0.095750
v 0.132307 0.274490 0.041961
vt 0.250000 0.490000
vt 0.250000 0.250000
vt 0.457846 0.130000
vt 0.042154 0.130000
vt 0.250000 0.490000
vt 0.250000 0.250000
vt 0.457846 0.130000
vt 0.042154 0.130000
vt 0.250000 0.490000
vt 0.250000 0.250000
vt 0.457846 0.130000
vt 0.042154 0.130000
vt 0.250000 0.490000
vt 0.250000 0.250000
vt 0.457846 0.130000
vt 0.042154 0.130000
vn 0.7204 0.0450 -0.6921
vn -0.0000 0.1890 0.9820
vn -0.7186 -0.0645 -0.6924
vn 0.8687 0.2268 -0.4404
vn 0.2023 0.0828 0.9758
vn -0.9291 0.0665 -0.3639
vn 0.7948 -0.0220 0.6065
vn -0.8194 0.1652 0.5490
vn 0.0253 0.1791 -0.9835
vn 0.6605 0.0410 -0.7497
vn 0.3172 0.1134 0.9416
vn -0.9636 0.1840 -0.1940
usemtl None
s off
f 1/1/1 4/2/1 2/3/1
f 2/3/2 4/2/2 3/4/2
f 3/4/3 4/2/3 1/1/3
f 5/5/4 8/6/4 6/7/4
f 6/7/5 8/6/5 7/8/5
f 7/8/6 8/6/6 5/5/6
f 9/9/7 12/10/7 10/11/7
f 10/11/8 12/10/8 11/12/8
f 11/12/9 12/10/9 9/9/9
f 13/13/10 16/14/10 14/15/10
f 14/15/11 16/14/11 15/16/11
f 15/16/12 16/14/12 13/13/12
