# MagicaVoxel @ Ephtracy

# group
o 

# material
mtllib Ground.mtl
usemtl palette

# normals
vn -1 0 0
vn 1 0 0
vn 0 0 1
vn 0 0 -1
vn 0 -1 0
vn 0 1 0

# texcoords
vt 0.419922 0.5
vt 0.443359 0.5
vt 0.544922 0.5
vt 0.958984 0.5
vt 0.978516 0.5
vt 0.986328 0.5

# verts
v -6.3 -4.3 6.3
v -6.3 -4.3 -6.3
v -6.3 -3.8 6.3
v -6.3 -3.8 -6.3
v -6.3 -3.6 5.3
v -6.3 -3.6 5.2
v -6.3 -3.6 5.1
v -6.3 -3.6 3.9
v -6.3 -3.6 3.8
v -6.3 -3.6 2.6
v -6.3 -3.6 2.5
v -6.3 -3.6 2.4
v -6.3 -3.5 6.3
v -6.3 -3.5 5.3
v -6.3 -3.5 5.2
v -6.3 -3.5 5.1
v -6.3 -3.5 3.9
v -6.3 -3.5 3.8
v -6.3 -3.5 2.6
v -6.3 -3.5 2.5
v -6.3 -3.5 2.4
v -6.3 -3.5 1.4
v -6.3 -3.5 -6.3
v -6.3 -3.4 6.3
v -6.3 -3.4 5.3
v -6.3 -3.4 2.4
v -6.3 -3.4 1.4
v 6.3 -4.3 6.3
v 6.3 -4.3 -6.3
v 6.3 -3.8 6.3
v 6.3 -3.8 -6.3
v 6.3 -3.6 5.3
v 6.3 -3.6 5.2
v 6.3 -3.6 5.1
v 6.3 -3.6 2.6
v 6.3 -3.6 2.5
v 6.3 -3.6 2.4
v 6.3 -3.5 6.3
v 6.3 -3.5 5.3
v 6.3 -3.5 5.2
v 6.3 -3.5 5.1
v 6.3 -3.5 2.6
v 6.3 -3.5 2.5
v 6.3 -3.5 2.4
v 6.3 -3.5 1.4
v 6.3 -3.5 -6.3
v 6.3 -3.4 6.3
v 6.3 -3.4 5.3
v 6.3 -3.4 2.4
v 6.3 -3.4 1.4
v -6.3 -4.3 6.3
v -6.3 -3.8 6.3
v -6.3 -3.5 6.3
v -6.3 -3.4 6.3
v 6.3 -4.3 6.3
v 6.3 -3.8 6.3
v 6.3 -3.5 6.3
v 6.3 -3.4 6.3
v -6.3 -3.5 2.4
v -6.3 -3.4 2.4
v 6.3 -3.5 2.4
v 6.3 -3.4 2.4
v -6.3 -3.5 5.3
v -6.3 -3.4 5.3
v 6.3 -3.5 5.3
v 6.3 -3.4 5.3
v -6.3 -3.5 1.4
v -6.3 -3.4 1.4
v 6.3 -3.5 1.4
v 6.3 -3.4 1.4
v -6.3 -4.3 -6.3
v -6.3 -3.8 -6.3
v -6.3 -3.5 -6.3
v 6.3 -4.3 -6.3
v 6.3 -3.8 -6.3
v 6.3 -3.5 -6.3
v -6.3 -4.3 6.3
v 6.3 -4.3 6.3
v -6.3 -4.3 -6.3
v 6.3 -4.3 -6.3
v -6.3 -3.5 5.3
v 6.3 -3.5 5.3
v -6.3 -3.5 5.2
v 6.3 -3.5 5.2
v -6.3 -3.5 5.1
v 6.3 -3.5 5.1
v -6.3 -3.5 3.9
v -5.9 -3.5 3.9
v -5.6 -3.5 3.9
v -5.1 -3.5 3.9
v -4.8 -3.5 3.9
v -4.3 -3.5 3.9
v -4 -3.5 3.9
v -3.5 -3.5 3.9
v -3.2 -3.5 3.9
v -2.7 -3.5 3.9
v -2.4 -3.5 3.9
v -1.9 -3.5 3.9
v -1.6 -3.5 3.9
v -1.1 -3.5 3.9
v -0.8 -3.5 3.9
v -0.3 -3.5 3.9
v 0 -3.5 3.9
v 0.5 -3.5 3.9
v 0.8 -3.5 3.9
v 1.3 -3.5 3.9
v 1.6 -3.5 3.9
v 2.1 -3.5 3.9
v 2.4 -3.5 3.9
v 2.9 -3.5 3.9
v 3.2 -3.5 3.9
v 3.7 -3.5 3.9
v 4 -3.5 3.9
v 4.5 -3.5 3.9
v 4.8 -3.5 3.9
v 5.3 -3.5 3.9
v 5.6 -3.5 3.9
v 6.1 -3.5 3.9
v -6.3 -3.5 3.8
v -5.9 -3.5 3.8
v -5.6 -3.5 3.8
v -5.1 -3.5 3.8
v -4.8 -3.5 3.8
v -4.3 -3.5 3.8
v -4 -3.5 3.8
v -3.5 -3.5 3.8
v -3.2 -3.5 3.8
v -2.7 -3.5 3.8
v -2.4 -3.5 3.8
v -1.9 -3.5 3.8
v -1.6 -3.5 3.8
v -1.1 -3.5 3.8
v -0.8 -3.5 3.8
v -0.3 -3.5 3.8
v 0 -3.5 3.8
v 0.5 -3.5 3.8
v 0.8 -3.5 3.8
v 1.3 -3.5 3.8
v 1.6 -3.5 3.8
v 2.1 -3.5 3.8
v 2.4 -3.5 3.8
v 2.9 -3.5 3.8
v 3.2 -3.5 3.8
v 3.7 -3.5 3.8
v 4 -3.5 3.8
v 4.5 -3.5 3.8
v 4.8 -3.5 3.8
v 5.3 -3.5 3.8
v 5.6 -3.5 3.8
v 6.1 -3.5 3.8
v -6.3 -3.5 2.6
v 6.3 -3.5 2.6
v -6.3 -3.5 2.5
v 6.3 -3.5 2.5
v -6.3 -3.5 2.4
v 6.3 -3.5 2.4
v -6.3 -3.5 1.4
v 6.3 -3.5 1.4
v -6.3 -3.5 -6.3
v 6.3 -3.5 -6.3
v -6.3 -3.4 6.3
v 6.3 -3.4 6.3
v -6.3 -3.4 5.3
v 6.3 -3.4 5.3
v -6.3 -3.4 2.4
v 6.3 -3.4 2.4
v -6.3 -3.4 1.4
v 6.3 -3.4 1.4

# faces
f 3/2/1 2/2/1 1/2/1
f 4/2/1 2/2/1 3/2/1
f 5/3/1 4/3/1 3/3/1
f 6/3/1 4/3/1 5/3/1
f 7/3/1 4/3/1 6/3/1
f 8/3/1 4/3/1 7/3/1
f 9/3/1 4/3/1 8/3/1
f 10/3/1 4/3/1 9/3/1
f 11/3/1 4/3/1 10/3/1
f 12/3/1 4/3/1 11/3/1
f 13/3/1 5/3/1 3/3/1
f 14/6/1 6/6/1 5/6/1
f 14/3/1 5/3/1 13/3/1
f 15/1/1 7/1/1 6/1/1
f 15/6/1 6/6/1 14/6/1
f 16/6/1 8/6/1 7/6/1
f 16/1/1 7/1/1 15/1/1
f 17/4/1 9/4/1 8/4/1
f 17/6/1 8/6/1 16/6/1
f 18/6/1 10/6/1 9/6/1
f 18/4/1 9/4/1 17/4/1
f 19/1/1 11/1/1 10/1/1
f 19/6/1 10/6/1 18/6/1
f 20/6/1 12/6/1 11/6/1
f 20/1/1 11/1/1 19/1/1
f 21/3/1 4/3/1 12/3/1
f 21/6/1 12/6/1 20/6/1
f 22/3/1 4/3/1 21/3/1
f 23/3/1 4/3/1 22/3/1
f 24/5/1 14/5/1 13/5/1
f 25/5/1 14/5/1 24/5/1
f 26/5/1 22/5/1 21/5/1
f 27/5/1 22/5/1 26/5/1
f 28/2/2 29/2/2 30/2/2
f 30/2/2 29/2/2 31/2/2
f 30/3/2 31/3/2 32/3/2
f 32/3/2 31/3/2 33/3/2
f 33/3/2 31/3/2 34/3/2
f 34/3/2 31/3/2 35/3/2
f 35/3/2 31/3/2 36/3/2
f 36/3/2 31/3/2 37/3/2
f 30/3/2 32/3/2 38/3/2
f 32/6/2 33/6/2 39/6/2
f 38/3/2 32/3/2 39/3/2
f 33/1/2 34/1/2 40/1/2
f 39/6/2 33/6/2 40/6/2
f 34/6/2 35/6/2 41/6/2
f 40/1/2 34/1/2 41/1/2
f 35/1/2 36/1/2 42/1/2
f 41/6/2 35/6/2 42/6/2
f 36/6/2 37/6/2 43/6/2
f 42/1/2 36/1/2 43/1/2
f 37/3/2 31/3/2 44/3/2
f 43/6/2 37/6/2 44/6/2
f 44/3/2 31/3/2 45/3/2
f 45/3/2 31/3/2 46/3/2
f 38/5/2 39/5/2 47/5/2
f 47/5/2 39/5/2 48/5/2
f 44/5/2 45/5/2 49/5/2
f 49/5/2 45/5/2 50/5/2
f 55/2/3 52/2/3 51/2/3
f 56/3/3 53/3/3 52/3/3
f 56/2/3 52/2/3 55/2/3
f 57/5/3 54/5/3 53/5/3
f 57/3/3 53/3/3 56/3/3
f 58/5/3 54/5/3 57/5/3
f 61/5/3 60/5/3 59/5/3
f 62/5/3 60/5/3 61/5/3
f 63/5/4 64/5/4 65/5/4
f 65/5/4 64/5/4 66/5/4
f 67/5/4 68/5/4 69/5/4
f 69/5/4 68/5/4 70/5/4
f 71/2/4 72/2/4 74/2/4
f 72/3/4 73/3/4 75/3/4
f 74/2/4 72/2/4 75/2/4
f 75/3/4 73/3/4 76/3/4
f 79/2/5 78/2/5 77/2/5
f 80/2/5 78/2/5 79/2/5
f 81/6/6 82/6/6 83/6/6
f 83/6/6 82/6/6 84/6/6
f 83/1/6 84/1/6 85/1/6
f 85/1/6 84/1/6 86/1/6
f 85/6/6 86/6/6 87/6/6
f 87/6/6 86/6/6 88/6/6
f 88/6/6 86/6/6 89/6/6
f 89/6/6 86/6/6 90/6/6
f 90/6/6 86/6/6 91/6/6
f 91/6/6 86/6/6 92/6/6
f 92/6/6 86/6/6 93/6/6
f 93/6/6 86/6/6 94/6/6
f 94/6/6 86/6/6 95/6/6
f 95/6/6 86/6/6 96/6/6
f 96/6/6 86/6/6 97/6/6
f 97/6/6 86/6/6 98/6/6
f 98/6/6 86/6/6 99/6/6
f 99/6/6 86/6/6 100/6/6
f 100/6/6 86/6/6 101/6/6
f 101/6/6 86/6/6 102/6/6
f 102/6/6 86/6/6 103/6/6
f 103/6/6 86/6/6 104/6/6
f 104/6/6 86/6/6 105/6/6
f 105/6/6 86/6/6 106/6/6
f 106/6/6 86/6/6 107/6/6
f 107/6/6 86/6/6 108/6/6
f 108/6/6 86/6/6 109/6/6
f 109/6/6 86/6/6 110/6/6
f 110/6/6 86/6/6 111/6/6
f 111/6/6 86/6/6 112/6/6
f 112/6/6 86/6/6 113/6/6
f 113/6/6 86/6/6 114/6/6
f 114/6/6 86/6/6 115/6/6
f 115/6/6 86/6/6 116/6/6
f 116/6/6 86/6/6 117/6/6
f 117/6/6 86/6/6 118/6/6
f 87/4/6 88/4/6 119/4/6
f 88/6/6 89/6/6 120/6/6
f 119/4/6 88/4/6 120/4/6
f 89/4/6 90/4/6 121/4/6
f 120/6/6 89/6/6 121/6/6
f 90/6/6 91/6/6 122/6/6
f 121/4/6 90/4/6 122/4/6
f 91/4/6 92/4/6 123/4/6
f 122/6/6 91/6/6 123/6/6
f 92/6/6 93/6/6 124/6/6
f 123/4/6 92/4/6 124/4/6
f 93/4/6 94/4/6 125/4/6
f 124/6/6 93/6/6 125/6/6
f 94/6/6 95/6/6 126/6/6
f 125/4/6 94/4/6 126/4/6
f 95/4/6 96/4/6 127/4/6
f 126/6/6 95/6/6 127/6/6
f 96/6/6 97/6/6 128/6/6
f 127/4/6 96/4/6 128/4/6
f 97/4/6 98/4/6 129/4/6
f 128/6/6 97/6/6 129/6/6
f 98/6/6 99/6/6 130/6/6
f 129/4/6 98/4/6 130/4/6
f 99/4/6 100/4/6 131/4/6
f 130/6/6 99/6/6 131/6/6
f 100/6/6 101/6/6 132/6/6
f 131/4/6 100/4/6 132/4/6
f 101/4/6 102/4/6 133/4/6
f 132/6/6 101/6/6 133/6/6
f 102/6/6 103/6/6 134/6/6
f 133/4/6 102/4/6 134/4/6
f 103/4/6 104/4/6 135/4/6
f 134/6/6 103/6/6 135/6/6
f 104/6/6 105/6/6 136/6/6
f 135/4/6 104/4/6 136/4/6
f 105/4/6 106/4/6 137/4/6
f 136/6/6 105/6/6 137/6/6
f 106/6/6 107/6/6 138/6/6
f 137/4/6 106/4/6 138/4/6
f 107/4/6 108/4/6 139/4/6
f 138/6/6 107/6/6 139/6/6
f 108/6/6 109/6/6 140/6/6
f 139/4/6 108/4/6 140/4/6
f 109/4/6 110/4/6 141/4/6
f 140/6/6 109/6/6 141/6/6
f 110/6/6 111/6/6 142/6/6
f 141/4/6 110/4/6 142/4/6
f 111/4/6 112/4/6 143/4/6
f 142/6/6 111/6/6 143/6/6
f 112/6/6 113/6/6 144/6/6
f 143/4/6 112/4/6 144/4/6
f 113/4/6 114/4/6 145/4/6
f 144/6/6 113/6/6 145/6/6
f 114/6/6 115/6/6 146/6/6
f 145/4/6 114/4/6 146/4/6
f 115/4/6 116/4/6 147/4/6
f 146/6/6 115/6/6 147/6/6
f 116/6/6 117/6/6 148/6/6
f 147/4/6 116/4/6 148/4/6
f 117/4/6 118/4/6 149/4/6
f 148/6/6 117/6/6 149/6/6
f 118/6/6 86/6/6 150/6/6
f 149/4/6 118/4/6 150/4/6
f 148/6/6 149/6/6 151/6/6
f 119/6/6 120/6/6 151/6/6
f 149/6/6 150/6/6 151/6/6
f 147/6/6 148/6/6 151/6/6
f 146/6/6 147/6/6 151/6/6
f 145/6/6 146/6/6 151/6/6
f 144/6/6 145/6/6 151/6/6
f 143/6/6 144/6/6 151/6/6
f 142/6/6 143/6/6 151/6/6
f 141/6/6 142/6/6 151/6/6
f 140/6/6 141/6/6 151/6/6
f 139/6/6 140/6/6 151/6/6
f 138/6/6 139/6/6 151/6/6
f 137/6/6 138/6/6 151/6/6
f 136/6/6 137/6/6 151/6/6
f 135/6/6 136/6/6 151/6/6
f 134/6/6 135/6/6 151/6/6
f 133/6/6 134/6/6 151/6/6
f 132/6/6 133/6/6 151/6/6
f 131/6/6 132/6/6 151/6/6
f 130/6/6 131/6/6 151/6/6
f 129/6/6 130/6/6 151/6/6
f 128/6/6 129/6/6 151/6/6
f 127/6/6 128/6/6 151/6/6
f 126/6/6 127/6/6 151/6/6
f 125/6/6 126/6/6 151/6/6
f 124/6/6 125/6/6 151/6/6
f 123/6/6 124/6/6 151/6/6
f 122/6/6 123/6/6 151/6/6
f 121/6/6 122/6/6 151/6/6
f 120/6/6 121/6/6 151/6/6
f 150/6/6 86/6/6 152/6/6
f 151/6/6 150/6/6 152/6/6
f 151/1/6 152/1/6 153/1/6
f 153/1/6 152/1/6 154/1/6
f 153/6/6 154/6/6 155/6/6
f 155/6/6 154/6/6 156/6/6
f 157/3/6 158/3/6 159/3/6
f 159/3/6 158/3/6 160/3/6
f 161/5/6 162/5/6 163/5/6
f 163/5/6 162/5/6 164/5/6
f 165/5/6 166/5/6 167/5/6
f 167/5/6 166/5/6 168/5/6
