# Blender v2.82 (sub 7) OBJ File: 'Lamppost.blend'
# www.blender.org
mtllib Lamppost.mtl
o Cube
v 0.158267 7.916595 -0.158267
v 0.158267 0.625329 -0.158267
v 0.158267 7.916595 0.158267
v 0.158267 0.625329 0.158267
v -0.158267 7.916595 -0.158267
v -0.158267 0.625329 -0.158267
v -0.158267 7.916595 0.158267
v -0.158267 0.625329 0.158267
v 0.609906 8.916595 0.158267
v 0.293372 8.916595 0.158267
v 0.609906 8.916595 -0.158267
v 0.293372 8.916595 -0.158267
v 0.711173 9.116594 0.158267
v 0.384952 9.116594 0.158267
v 0.711173 9.116594 -0.158267
v 0.384952 9.116594 -0.158267
v 1.220425 8.916595 -0.158267
v 1.220425 8.916595 0.158267
v 1.220425 9.116594 -0.158267
v 1.220425 9.116594 0.158267
v 2.410640 8.916595 -0.158267
v 2.410640 8.916595 0.158267
v 2.410640 9.116594 -0.158267
v 2.410640 9.116594 0.158267
v 1.220425 9.116594 -0.258267
v 1.220425 8.916595 -0.258267
v 2.410640 9.116594 -0.258267
v 2.410640 8.916595 -0.258267
v 1.220425 8.916595 0.258267
v 1.220425 9.116594 0.258267
v 2.410640 8.916595 0.258267
v 2.410640 9.116594 0.258267
v -0.158267 -0.008846 -0.158267
v -0.158267 -0.008846 0.158267
v 0.158267 -0.008846 -0.158267
v 0.158267 -0.008846 0.158267
v 0.158267 0.625329 -0.258267
v -0.158267 0.625329 -0.258267
v 0.158267 -0.008846 -0.258267
v -0.158267 -0.008846 -0.258267
v 0.258267 0.625329 0.158267
v 0.258267 0.625329 -0.158267
v 0.258267 -0.008846 0.158267
v 0.258267 -0.008846 -0.158267
v 0.258267 0.625329 -0.258267
v 0.258267 -0.008846 -0.258267
v -0.158267 0.625329 0.258267
v 0.158267 0.625329 0.258267
v -0.158267 -0.008846 0.258267
v 0.158267 -0.008846 0.258267
v 0.258267 -0.008846 0.258267
v 0.258267 0.625329 0.258267
v -0.258267 0.625329 -0.158267
v -0.258267 0.625329 0.158267
v -0.258267 -0.008846 -0.158267
v -0.258267 -0.008846 0.158267
v -0.258267 -0.008846 -0.258267
v -0.258267 0.625329 -0.258267
v -0.258267 0.625329 0.258267
v -0.258267 -0.008846 0.258267
v 1.220425 9.194517 -0.158267
v 1.220425 9.194517 0.158267
v 2.410640 9.194517 -0.158267
v 2.410640 9.194517 0.158267
v 1.220425 9.194517 -0.258267
v 2.410640 9.194517 -0.258267
v 1.220425 9.194517 0.258267
v 2.410640 9.194517 0.258267
v 1.220425 8.882615 -0.158267
v 1.220425 8.882615 0.158267
v 2.410640 8.882615 -0.158267
v 2.410640 8.882615 0.158267
v 2.410640 8.882615 -0.258267
v 1.220425 8.882615 -0.258267
v 1.220425 8.882615 0.258267
v 2.410640 8.882615 0.258267
vt 0.580941 0.954850
vt 0.580941 0.941406
vt 0.580941 0.941406
vt 0.580941 0.954850
vt 0.567497 0.954850
vt 0.580941 0.968295
vt 0.567497 0.968295
vt 0.567497 0.914518
vt 0.580941 0.914518
vt 0.580941 0.927962
vt 0.567497 0.927962
vt 0.687369 0.933148
vt 0.700813 0.933148
vt 0.700813 0.933148
vt 0.687369 0.933148
vt 0.567497 0.941406
vt 0.580941 0.927962
vt 0.580941 0.914518
vt 0.580941 0.914518
vt 0.580941 0.927962
vt 0.580941 0.968295
vt 0.580941 0.941406
vt 0.594385 0.941406
vt 0.594385 0.954850
vt 0.580941 0.954850
vt 0.580941 0.968295
vt 0.580941 0.941406
vt 0.580941 0.941406
vt 0.704957 0.932105
vt 0.704957 0.932105
vt 0.704957 0.932105
vt 0.704957 0.932105
vt 0.580941 0.954850
vt 0.580941 0.954850
vt 0.704957 0.945549
vt 0.704957 0.932105
vt 0.704957 0.932105
vt 0.704957 0.945549
vt 0.704957 0.932105
vt 0.704957 0.932105
vt 0.704957 0.932105
vt 0.704957 0.945549
vt 0.704957 0.945549
vt 0.704957 0.945549
vt 0.704957 0.945549
vt 0.704957 0.945549
vt 0.704957 0.932105
vt 0.704957 0.932105
vt 0.704957 0.932105
vt 0.704957 0.945549
vt 0.704957 0.945549
vt 0.704957 0.945549
vt 0.704957 0.945549
vt 0.704957 0.932105
vt 0.704957 0.945549
vt 0.687369 0.919703
vt 0.700813 0.919703
vt 0.700813 0.933148
vt 0.700813 0.933148
vt 0.700813 0.906259
vt 0.700813 0.906259
vt 0.700813 0.906259
vt 0.700813 0.906259
vt 0.700813 0.919703
vt 0.700813 0.919703
vt 0.700813 0.919703
vt 0.700813 0.919703
vt 0.700813 0.919703
vt 0.700813 0.906259
vt 0.687369 0.933148
vt 0.687369 0.919703
vt 0.687369 0.919703
vt 0.700813 0.919703
vt 0.700813 0.919703
vt 0.700813 0.933148
vt 0.700813 0.933148
vt 0.700813 0.933148
vt 0.700813 0.933148
vt 0.700813 0.946592
vt 0.700813 0.946592
vt 0.700813 0.946592
vt 0.687369 0.919703
vt 0.700813 0.892815
vt 0.700813 0.906259
vt 0.700813 0.906259
vt 0.700813 0.892815
vt 0.700813 0.892815
vt 0.700813 0.892815
vt 0.687369 0.933148
vt 0.700813 0.946592
vt 0.700813 0.946592
vt 0.700813 0.946592
vt 0.700813 0.892815
vt 0.704957 0.945549
vt 0.704957 0.945549
vt 0.704957 0.945549
vt 0.704957 0.932105
vt 0.704957 0.932105
vt 0.704957 0.932105
vt 0.704957 0.945549
vt 0.580941 0.954850
vt 0.580941 0.941406
vt 0.580941 0.941406
vt 0.580941 0.941406
vt 0.580941 0.941406
vt 0.580941 0.954850
vt 0.580941 0.954850
vt 0.580941 0.954850
vn 0.9114 -0.4116 0.0000
vn 0.0000 0.0000 1.0000
vn -1.0000 0.0000 0.0000
vn 0.0000 -1.0000 0.0000
vn 1.0000 0.0000 0.0000
vn 0.0000 0.0000 -1.0000
vn -0.9092 0.4163 0.0000
vn -0.9114 0.4116 0.0000
vn 0.0000 1.0000 0.0000
usemtl Material
s off
f 3/1/1 1/2/1 11/3/1 9/4/1
f 4/5/2 3/1/2 7/6/2 8/7/2
f 8/8/3 7/9/3 5/10/3 6/11/3
f 34/12/4 36/13/4 50/14/4 49/15/4
f 2/16/5 1/2/5 3/1/5 4/5/5
f 6/11/6 5/10/6 1/2/6 2/16/6
f 12/17/7 10/18/7 14/19/7 16/20/7
f 1/2/6 5/10/6 12/17/6 11/3/6
f 7/6/2 3/1/2 9/4/2 10/21/2
f 5/10/8 7/9/8 10/18/8 12/17/8
f 15/22/9 16/23/9 14/24/9 13/25/9
f 10/21/2 9/4/2 13/25/2 14/26/2
f 11/3/6 12/17/6 16/20/6 15/22/6
f 11/3/6 15/22/6 19/27/6 17/28/6
f 17/29/3 19/30/3 25/31/3 26/32/3
f 15/22/9 13/25/9 20/33/9 19/27/9
f 13/25/2 9/4/2 18/34/2 20/33/2
f 9/4/4 11/3/4 17/28/4 18/34/4
f 22/35/5 21/36/5 23/37/5 24/38/5
f 25/31/3 19/30/3 61/39/3 65/40/3
f 24/38/5 23/37/5 63/41/5 64/42/5
f 31/43/2 29/44/2 75/45/2 76/46/2
f 26/32/6 25/31/6 27/47/6 28/48/6
f 23/37/5 27/47/5 66/49/5 63/41/5
f 29/44/3 18/50/3 70/51/3 75/45/3
f 23/37/5 21/36/5 28/48/5 27/47/5
f 30/52/2 29/44/2 31/43/2 32/53/2
f 22/35/5 24/38/5 32/53/5 31/43/5
f 18/50/3 17/29/3 69/54/3 70/51/3
f 20/55/3 18/50/3 29/44/3 30/52/3
f 33/56/4 35/57/4 36/13/4 34/12/4
f 36/13/4 43/58/4 51/59/4 50/14/4
f 38/60/6 40/61/6 57/62/6 58/63/6
f 37/64/9 2/65/9 42/66/9 45/67/9
f 38/60/6 37/64/6 39/68/6 40/61/6
f 6/69/9 2/65/9 37/64/9 38/60/9
f 33/56/4 34/12/4 56/70/4 55/71/4
f 35/57/4 33/56/4 40/72/4 39/68/4
f 42/66/5 44/73/5 46/74/5 45/67/5
f 42/66/5 41/75/5 43/58/5 44/73/5
f 36/13/4 35/57/4 44/73/4 43/58/4
f 35/57/4 39/68/4 46/74/4 44/73/4
f 39/68/6 37/64/6 45/67/6 46/74/6
f 2/65/9 4/76/9 41/75/9 42/66/9
f 48/77/2 50/14/2 51/59/2 52/78/2
f 48/77/2 47/79/2 49/80/2 50/14/2
f 41/75/9 4/76/9 48/77/9 52/78/9
f 4/76/9 8/81/9 47/79/9 48/77/9
f 43/58/5 41/75/5 52/78/5 51/59/5
f 40/72/4 33/56/4 55/71/4 57/82/4
f 54/83/3 53/84/3 55/85/3 56/86/3
f 55/85/3 53/84/3 58/63/3 57/62/3
f 54/83/3 56/86/3 60/87/3 59/88/3
f 34/12/4 49/15/4 60/89/4 56/70/4
f 6/69/9 38/60/9 58/63/9 53/84/9
f 49/80/2 47/79/2 59/90/2 60/91/2
f 47/79/9 8/81/9 54/92/9 59/90/9
f 8/93/9 6/69/9 53/84/9 54/83/9
f 61/39/9 62/94/9 64/42/9 63/41/9
f 64/42/9 62/94/9 67/95/9 68/96/9
f 61/39/9 63/41/9 66/49/9 65/40/9
f 32/53/5 24/38/5 64/42/5 68/96/5
f 27/47/6 25/31/6 65/40/6 66/49/6
f 19/30/3 20/55/3 62/94/3 61/39/3
f 20/55/3 30/52/3 67/95/3 62/94/3
f 30/52/2 32/53/2 68/96/2 67/95/2
f 28/48/5 21/36/5 71/97/5 73/98/5
f 17/29/3 26/32/3 74/99/3 69/54/3
f 22/35/5 31/43/5 76/46/5 72/100/5
f 21/36/5 22/35/5 72/100/5 71/97/5
f 26/32/6 28/48/6 73/98/6 74/99/6
f 70/101/4 69/102/4 74/103/4 73/104/4 71/105/4 72/106/4 76/107/4 75/108/4
