# Blender v2.82 (sub 7) OBJ File: 'LargeDoorTile.blend'
# www.blender.org
mtllib LargeDoorTile.mtl
o Cube
v -1.484986 2.000000 -12.000000
v -1.484986 -2.000000 -12.000000
v -1.484986 2.000000 12.000000
v -1.484986 -2.000000 12.000000
v -2.484986 2.000000 -12.000000
v -2.484986 -2.000000 -12.000000
v -2.484986 2.000000 12.000000
v -2.484986 -2.000000 12.000000
v -2.484986 -2.000000 6.000000
v -1.484986 2.000000 6.000000
v -2.484986 2.000000 6.000000
v -1.484986 -2.000000 6.000000
v -2.484986 2.000000 -6.000000
v -1.484986 -2.000000 -6.000000
v -2.484986 -2.000000 -6.000000
v -1.484986 2.000000 -6.000000
v -1.484986 2.000000 6.000000
v -2.484986 2.000000 5.500000
v -2.484986 -2.000000 5.500000
v -1.484986 2.000000 5.500000
v -1.484986 -2.000000 5.500000
v -2.484986 2.000000 -5.500000
v -1.484986 2.000000 -5.500000
v -1.484986 -2.000000 -5.500000
v -2.484986 -2.000000 -5.500000
v -2.484986 7.000000 6.000000
v -1.484986 7.000000 6.000000
v -2.484986 7.000000 5.500000
v -1.484986 7.000000 5.500000
v -2.484986 7.000000 -6.000000
v -1.484986 7.000000 -6.000000
v -2.484986 7.000000 -5.500000
v -1.484986 7.000000 -5.500000
v -2.484986 7.500000 6.000000
v -1.484986 7.500000 6.000000
v -2.484986 7.500000 5.500000
v -1.484986 7.500000 5.500000
v -2.484986 7.500000 -6.000000
v -1.484986 7.500000 -6.000000
v -2.484986 7.500000 -5.500000
v -1.484986 7.500000 -5.500000
v -2.484986 -1.000000 12.000000
v -1.484986 -1.000000 12.000000
v -2.484986 -1.000000 6.000000
v -1.484986 -1.000000 6.000000
v -2.484986 -1.000000 5.500000
v -1.484986 -1.000000 5.500000
v -1.484986 -1.000000 -12.000000
v -2.484986 -1.000000 -12.000000
v -1.484986 -1.000000 -6.000000
v -2.484986 -1.000000 -6.000000
v -1.484986 -1.000000 -5.500000
v -2.484986 -1.000000 -5.500000
v -2.484986 8.000000 6.000000
v -1.484986 8.000000 6.000000
v -2.484986 8.000000 5.500000
v -1.484986 8.000000 5.500000
v -2.484986 8.500000 6.000000
v -1.484986 8.500000 6.000000
v -2.484986 8.500000 5.500000
v -1.484986 8.500000 5.500000
v -2.484986 8.000000 -6.000000
v -1.484986 8.000000 -6.000000
v -2.484986 8.000000 -5.500000
v -1.484986 8.000000 -5.500000
v -2.484986 8.500000 -6.000000
v -1.484986 8.500000 -6.000000
v -2.484986 8.500000 -5.500000
v -1.484986 8.500000 -5.500000
v -2.484986 -0.250000 12.000000
v -1.484986 -0.250000 12.000000
v -2.484986 -0.250000 6.000000
v -1.484986 -0.250000 6.000000
v -2.484986 -0.250000 5.500000
v -1.484986 -0.250000 5.500000
v -1.484986 -0.250000 -12.000000
v -2.484986 -0.250000 -12.000000
v -1.484986 -0.250000 -6.000000
v -2.484986 -0.250000 -6.000000
v -1.484986 -0.250000 -5.500000
v -2.484986 -0.250000 -5.500000
vt 0.216510 0.916838
vt 0.222373 0.916838
vt 0.222373 0.918304
vt 0.216510 0.918304
vt 0.212827 0.918304
vt 0.216510 0.924166
vt 0.212827 0.924166
vt 0.203252 0.921132
vt 0.210951 0.921132
vt 0.210951 0.924446
vt 0.203252 0.924446
vt 0.162856 0.941163
vt 0.182688 0.941163
vt 0.182688 0.946121
vt 0.162856 0.946121
vt 0.542611 0.574839
vt 0.589706 0.574839
vt 0.589706 0.593580
vt 0.542611 0.593580
vt 0.213105 0.906578
vt 0.216510 0.906578
vt 0.216510 0.912441
vt 0.213105 0.912441
vt 0.202624 0.911190
vt 0.210951 0.911190
vt 0.210951 0.914504
vt 0.202624 0.914504
vt 0.568170 0.451273
vt 0.577472 0.451273
vt 0.577472 0.451273
vt 0.568170 0.451273
vt 0.222373 0.912441
vt 0.222373 0.913907
vt 0.216510 0.913907
vt 0.162856 0.926289
vt 0.182688 0.926289
vt 0.182688 0.931247
vt 0.162856 0.931247
vt 0.546163 0.518616
vt 0.589706 0.518616
vt 0.589706 0.537357
vt 0.546163 0.537357
vt 0.557870 0.449746
vt 0.595223 0.449746
vt 0.575404 0.449746
vt 0.562953 0.449746
vt 0.211599 0.916838
vt 0.210647 0.916838
vt 0.210647 0.916838
vt 0.211599 0.916838
vt 0.162856 0.941163
vt 0.182688 0.941163
vt 0.210951 0.914504
vt 0.202624 0.914504
vt 0.431386 0.187500
vt 0.375000 0.187500
vt 0.375000 0.562500
vt 0.431386 0.562500
vt 0.200686 0.921132
vt 0.197696 0.921132
vt 0.197696 0.921132
vt 0.200686 0.921132
vt 0.182688 0.931247
vt 0.162856 0.931247
vt 0.593487 0.459280
vt 0.577472 0.459280
vt 0.577472 0.459280
vt 0.577472 0.459280
vt 0.577472 0.459280
vt 0.593487 0.459280
vt 0.593487 0.459280
vt 0.593487 0.459280
vt 0.593487 0.451273
vt 0.593487 0.451273
vt 0.593487 0.451273
vt 0.593487 0.451273
vt 0.577472 0.451273
vt 0.577472 0.451273
vt 0.577472 0.451273
vt 0.197696 0.914504
vt 0.199848 0.914504
vt 0.199848 0.914504
vt 0.197696 0.914504
vt 0.567411 0.459280
vt 0.564057 0.459280
vt 0.564057 0.459280
vt 0.567411 0.459280
vt 0.125000 0.687500
vt 0.246778 0.687500
vt 0.415593 0.687500
vt 0.375000 0.687500
vt 0.197696 0.911190
vt 0.199848 0.911190
vt 0.211599 0.918304
vt 0.210647 0.918304
vt 0.211599 0.924166
vt 0.210647 0.924166
vt 0.203252 0.921132
vt 0.563892 0.410108
vt 0.560054 0.410108
vt 0.560054 0.439837
vt 0.563892 0.439837
vt 0.210647 0.912441
vt 0.211970 0.912441
vt 0.211970 0.913907
vt 0.210647 0.913907
vt 0.211970 0.913907
vt 0.210647 0.913907
vt 0.210647 0.906578
vt 0.211970 0.906578
vt 0.200686 0.924446
vt 0.197696 0.924446
vt 0.199848 0.947642
vt 0.200686 0.941015
vt 0.190898 0.947642
vt 0.000000 0.000000
vt 0.000000 0.000000
vt 0.000000 0.000000
vt 0.000000 0.000000
vt 0.177813 0.911190
vt 0.177813 0.911190
vt 0.177813 0.911190
vt 0.177813 0.911190
vt 0.152939 0.886623
vt 0.152939 0.886623
vt 0.152939 0.886623
vt 0.152939 0.886623
vt 0.577472 0.459280
vt 0.577472 0.459280
vt 0.577472 0.459280
vt 0.210951 0.914504
vt 0.210951 0.914504
vt 0.210951 0.914504
vt 0.210951 0.914504
vt 0.210951 0.914504
vt 0.210951 0.914504
vt 0.210951 0.921132
vt 0.210951 0.921132
vt 0.210951 0.921132
vt 0.210951 0.921132
vt 0.210951 0.921132
vt 0.210951 0.921132
vt 0.210951 0.921132
vt 0.561020 0.389318
vt 0.561020 0.468957
vt 0.561020 0.468957
vt 0.561020 0.468957
vt 0.561020 0.468957
vt 0.561020 0.389318
vt 0.561020 0.389318
vt 0.561020 0.389318
vt 0.593487 0.459280
vt 0.593487 0.459280
vt 0.210951 0.914504
vt 0.210951 0.914504
vt 0.625000 0.687500
vt 0.875000 0.687500
vt 0.875000 0.687500
vt 0.625000 0.687500
vt 0.577472 0.451273
vt 0.577472 0.451273
vt 0.577472 0.451273
vt 0.595223 0.449746
vt 0.595223 0.449746
vt 0.595223 0.449746
vt 0.575404 0.449746
vt 0.575404 0.449746
vt 0.575404 0.449746
vt 0.577472 0.451273
vt 0.577472 0.451273
vt 0.593487 0.451273
vt 0.593487 0.451273
vt 0.210951 0.921132
vt 0.210951 0.921132
vt 0.625000 0.187500
vt 0.625000 0.562500
vt 0.625000 0.562500
vt 0.625000 0.187500
vt 0.177813 0.911190
vt 0.177813 0.911190
vt 0.177813 0.911190
vt 0.177813 0.911190
vt 0.525856 0.395244
vt 0.525856 0.395244
vt 0.525856 0.395244
vt 0.525856 0.395244
vt 0.537434 0.415239
vt 0.537434 0.415239
vt 0.537434 0.415239
vt 0.537434 0.415239
vt 0.577472 0.459280
vt 0.577472 0.459280
vt 0.577472 0.459280
vt 0.545419 0.449746
vt 0.558802 0.449746
vt 0.785668 0.937936
vt 0.796323 0.937936
vt 0.796323 0.950656
vt 0.785668 0.950656
vt 0.575404 0.410108
vt 0.575404 0.439837
vt 0.788882 0.899775
vt 0.798733 0.899775
vt 0.798733 0.912495
vt 0.788882 0.912495
vt 0.565069 0.451273
vt 0.565069 0.451273
vn 0.0000 1.0000 0.0000
vn 0.0000 0.0000 1.0000
vn -1.0000 0.0000 0.0000
vn 0.0000 -1.0000 0.0000
vn 1.0000 0.0000 0.0000
vn 0.0000 0.0000 -1.0000
usemtl Material
s off
f 10/1/1 11/2/1 7/3/1 3/4/1
f 71/5/2 3/4/2 7/6/2 70/7/2
f 79/8/3 13/9/3 5/10/3 77/11/3
f 9/12/4 12/13/4 4/14/4 8/15/4
f 73/16/5 10/17/5 3/18/5 71/19/5
f 77/20/6 5/21/6 1/22/6 76/23/6
f 70/24/3 7/25/3 11/26/3 72/27/3
f 78/28/5 16/29/5 23/30/5 80/31/5
f 1/22/1 5/32/1 13/33/1 16/34/1
f 6/35/4 2/36/4 14/37/4 15/38/4
f 76/39/5 1/40/5 16/41/5 78/42/5
f 74/43/6 18/44/6 20/45/6 75/46/6
f 45/47/5 12/48/5 21/49/5 47/50/5
f 12/13/4 9/12/4 19/51/4 21/52/4
f 72/27/3 11/26/3 18/53/3 74/54/3
f 53/55/2 25/56/2 24/57/2 52/58/2
f 51/59/3 15/60/3 25/61/3 53/62/3
f 15/38/4 14/37/4 24/63/4 25/64/4
f 11/65/2 10/66/2 27/67/2 35/68/2 55/69/2 54/70/2 34/71/2 26/72/2
f 16/29/6 13/73/6 30/74/6 38/75/6 62/76/6 63/77/6 39/78/6 31/79/6
f 9/80/3 44/81/3 46/82/3 19/83/3
f 73/84/5 45/85/5 47/86/5 75/87/5
f 19/88/6 46/89/6 47/90/6 21/91/6
f 8/92/3 42/93/3 44/81/3 9/80/3
f 12/48/5 45/47/5 43/94/5 4/95/5
f 4/95/2 43/94/2 42/96/2 8/97/2
f 79/8/3 51/59/3 53/62/3 81/98/3
f 81/99/2 53/100/2 52/101/2 80/102/2
f 2/103/5 48/104/5 50/105/5 14/106/5
f 14/106/5 50/105/5 52/107/5 24/108/5
f 6/109/6 49/110/6 48/104/6 2/103/6
f 15/60/3 51/59/3 49/111/3 6/112/3
f 47/113/1 52/114/1 53/62/1 46/115/1
f 47/116/5 21/117/5 24/118/5 52/119/5
f 53/120/3 25/121/3 19/122/3 46/123/3
f 24/124/4 21/125/4 19/126/4 25/127/4
f 55/69/5 57/128/5 61/129/5 59/130/5
f 18/53/3 11/26/3 26/131/3 34/132/3 54/133/3 56/134/3 36/135/3 28/136/3
f 13/9/3 22/137/3 32/138/3 40/139/3 64/140/3 62/141/3 38/142/3 30/143/3
f 22/144/2 23/145/2 33/146/2 41/147/2 65/148/2 64/149/2 40/150/2 32/151/2
f 58/152/1 59/130/1 61/129/1 60/153/1
f 54/70/2 55/69/2 59/130/2 58/152/2
f 56/134/3 54/133/3 58/154/3 60/155/3
f 57/156/6 56/157/6 60/158/6 61/159/6
f 65/160/5 63/77/5 67/161/5 69/162/5
f 20/45/6 18/44/6 28/163/6 36/164/6 56/165/6 57/166/6 37/167/6 29/168/6
f 23/30/5 16/29/5 31/79/5 39/78/5 63/77/5 65/160/5 41/169/5 33/170/5
f 67/161/1 66/171/1 68/172/1 69/162/1
f 63/77/6 62/76/6 66/171/6 67/161/6
f 62/141/3 64/140/3 68/173/3 66/174/3
f 64/175/2 65/176/2 69/177/2 68/178/2
f 61/129/1 69/162/1 68/172/1 60/153/1
f 68/179/3 64/180/3 56/181/3 60/182/3
f 64/183/4 65/184/4 57/185/4 56/186/4
f 65/187/5 69/188/5 61/189/5 57/190/5
f 29/191/5 37/192/5 57/128/5 55/69/5 35/68/5 27/67/5 10/66/5 20/193/5
f 10/66/5 73/84/5 75/87/5 20/193/5
f 44/81/3 72/27/3 74/54/3 46/82/3
f 46/194/6 74/43/6 75/46/6 47/195/6
f 42/93/3 70/24/3 72/27/3 44/81/3
f 45/196/5 73/197/5 71/198/5 43/199/5
f 43/94/2 71/5/2 70/7/2 42/96/2
f 22/200/2 81/99/2 80/102/2 23/201/2
f 13/9/3 79/8/3 81/98/3 22/137/3
f 48/202/5 76/203/5 78/204/5 50/205/5
f 50/206/5 78/28/5 80/31/5 52/207/5
f 49/110/6 77/20/6 76/23/6 48/104/6
f 51/59/3 79/8/3 77/11/3 49/111/3
l 10 17
