# Blender v2.82 (sub 7) OBJ File: 'LargeDoorTile.blend'
# www.blender.org
mtllib LargeDoorTile.mtl
o Cube
v 0.500000 2.000000 -12.000000
v 0.500000 -2.000000 -12.000000
v 0.500000 2.000000 12.000000
v 0.500000 -2.000000 12.000000
v -0.500000 2.000000 -12.000000
v -0.500000 -2.000000 -12.000000
v -0.500000 2.000000 12.000000
v -0.500000 -2.000000 12.000000
v -0.500000 -2.000000 6.000000
v 0.500000 2.000000 6.000000
v -0.500000 2.000000 6.000000
v 0.500000 -2.000000 6.000000
v -0.500000 2.000000 -6.000000
v 0.500000 -2.000000 -6.000000
v -0.500000 -2.000000 -6.000000
v 0.500000 2.000000 -6.000000
v 0.500000 2.000000 6.000000
v -0.500000 2.000000 5.500000
v -0.500000 -2.000000 5.500000
v 0.500000 2.000000 5.500000
v 0.500000 -2.000000 5.500000
v -0.500000 2.000000 -5.500000
v 0.500000 2.000000 -5.500000
v 0.500000 -2.000000 -5.500000
v -0.500000 -2.000000 -5.500000
v -0.500000 7.000000 6.000000
v 0.500000 7.000000 6.000000
v -0.500000 7.000000 5.500000
v 0.500000 7.000000 5.500000
v -0.500000 7.000000 -6.000000
v 0.500000 7.000000 -6.000000
v -0.500000 7.000000 -5.500000
v 0.500000 7.000000 -5.500000
v -0.500000 7.500000 6.000000
v 0.500000 7.500000 6.000000
v -0.500000 7.500000 5.500000
v 0.500000 7.500000 5.500000
v -0.500000 7.500000 -6.000000
v 0.500000 7.500000 -6.000000
v -0.500000 7.500000 -5.500000
v 0.500000 7.500000 -5.500000
v -0.500000 -1.000000 12.000000
v 0.500000 -1.000000 12.000000
v -0.500000 -1.000000 6.000000
v 0.500000 -1.000000 6.000000
v -0.500000 -1.000000 5.500000
v 0.500000 -1.000000 5.500000
v 0.500000 -1.000000 -12.000000
v -0.500000 -1.000000 -12.000000
v 0.500000 -1.000000 -6.000000
v -0.500000 -1.000000 -6.000000
v 0.500000 -1.000000 -5.500000
v -0.500000 -1.000000 -5.500000
vt 0.625000 0.687500
vt 0.875000 0.687500
vt 0.875000 0.750000
vt 0.625000 0.750000
vt 0.415593 0.750000
vt 0.625000 1.000000
vt 0.415593 1.000000
vt 0.431385 0.187500
vt 0.625000 0.187500
vt 0.625000 0.250000
vt 0.431385 0.250000
vt 0.125000 0.687500
vt 0.375000 0.687500
vt 0.375000 0.750000
vt 0.125000 0.750000
vt 0.415593 0.687500
vt 0.625000 0.500000
vt 0.431385 0.500000
vt 0.415593 0.000000
vt 0.625000 0.000000
vt 0.625000 0.062500
vt 0.415593 0.062500
vt 0.431385 0.562500
vt 0.625000 0.562500
vt 0.625000 0.562500
vt 0.431386 0.562500
vt 0.875000 0.500000
vt 0.875000 0.562500
vt 0.125000 0.500000
vt 0.375000 0.500000
vt 0.375000 0.562500
vt 0.125000 0.562500
vt 0.625000 0.687500
vt 0.875000 0.687500
vt 0.246778 0.687500
vt 0.875000 0.687500
vt 0.625000 0.687500
vt 0.415593 0.687500
vt 0.375000 0.687500
vt 0.125000 0.687500
vt 0.625000 0.062500
vt 0.415593 0.062500
vt 0.431386 0.187500
vt 0.375000 0.187500
vt 0.375000 0.562500
vt 0.625000 0.187500
vt 0.625000 0.187500
vt 0.625000 0.187500
vt 0.375000 0.187500
vt 0.125000 0.562500
vt 0.625000 0.687500
vt 0.625000 0.687500
vt 0.625000 0.687500
vt 0.875000 0.687500
vt 0.625000 0.062500
vt 0.625000 0.062500
vt 0.625000 0.187500
vt 0.625000 0.187500
vt 0.625000 0.562500
vt 0.625000 0.562500
vt 0.875000 0.562500
vt 0.875000 0.687500
vt 0.875000 0.687500
vt 0.625000 0.062500
vt 0.625000 0.062500
vt 0.625000 0.562500
vt 0.875000 0.562500
vt 0.875000 0.562500
vt 0.625000 0.562500
vt 0.000000 0.000000
vt 0.000000 0.000000
vt 0.000000 0.000000
vt 0.000000 0.000000
vt 0.000000 0.000000
vt 0.000000 0.000000
vt 0.000000 0.000000
vt 0.000000 0.000000
vt 0.375000 0.062500
vt 0.375000 0.062500
vt 0.375000 0.000000
vt 0.375000 1.000000
vt 0.375000 0.250000
vt 0.000000 0.000000
vt 0.000000 0.000000
vt 0.000000 0.000000
vt 0.000000 0.000000
vt 0.000000 0.000000
vt 0.000000 0.000000
vt 0.000000 0.000000
vt 0.000000 0.000000
vn 0.0000 1.0000 0.0000
vn 0.0000 0.0000 1.0000
vn -1.0000 0.0000 0.0000
vn 0.0000 -1.0000 0.0000
vn 1.0000 0.0000 0.0000
vn 0.0000 0.0000 -1.0000
usemtl Material
s off
f 10/1/1 11/2/1 7/3/1 3/4/1
f 43/5/2 3/4/2 7/6/2 42/7/2
f 51/8/3 13/9/3 5/10/3 49/11/3
f 9/12/4 12/13/4 4/14/4 8/15/4
f 45/16/5 10/1/5 3/4/5 43/5/5
f 49/11/6 5/10/6 1/17/6 48/18/6
f 42/19/3 7/20/3 11/21/3 44/22/3
f 50/23/5 16/24/5 23/25/5 52/26/5
f 1/17/1 5/27/1 13/28/1 16/24/1
f 6/29/4 2/30/4 14/31/4 15/32/4
f 48/18/5 1/17/5 16/24/5 50/23/5
f 11/2/2 10/1/2 27/33/2 26/34/2
f 46/35/6 18/36/6 20/37/6 47/38/6
f 45/16/5 12/13/5 21/39/5 47/38/5
f 12/13/4 9/12/4 19/40/4 21/39/4
f 44/22/3 11/21/3 18/41/3 46/42/3
f 53/43/2 25/44/2 24/45/2 52/26/2
f 13/9/3 22/46/3 32/47/3 30/48/3
f 51/8/3 15/49/3 25/44/3 53/43/3
f 15/32/4 14/31/4 24/45/4 25/50/4
f 27/33/5 29/51/5 37/52/5 35/53/5
f 20/37/6 18/36/6 28/54/6 29/51/6
f 10/1/5 20/37/5 29/51/5 27/33/5
f 18/41/3 11/21/3 26/55/3 28/56/3
f 30/48/3 32/47/3 40/57/3 38/58/3
f 23/25/5 16/24/5 31/59/5 33/60/5
f 22/46/2 23/25/2 33/60/2 32/47/2
f 16/24/6 13/28/6 30/61/6 31/59/6
f 34/62/1 35/53/1 37/52/1 36/63/1
f 26/34/2 27/33/2 35/53/2 34/62/2
f 28/56/3 26/55/3 34/64/3 36/65/3
f 29/51/6 28/54/6 36/63/6 37/52/6
f 39/66/1 38/67/1 40/68/1 41/69/1
f 32/47/2 33/60/2 41/69/2 40/57/2
f 33/60/5 31/59/5 39/66/5 41/69/5
f 31/59/6 30/61/6 38/67/6 39/66/6
f 37/52/1 41/69/1 40/68/1 36/63/1
f 33/70/5 41/71/5 37/72/5 29/73/5
f 40/74/3 32/75/3 28/76/3 36/77/3
f 32/75/4 33/70/4 29/73/4 28/76/4
f 9/78/3 44/22/3 46/42/3 19/79/3
f 10/1/5 45/16/5 47/38/5 20/37/5
f 19/40/6 46/35/6 47/38/6 21/39/6
f 8/80/3 42/19/3 44/22/3 9/78/3
f 12/13/5 45/16/5 43/5/5 4/14/5
f 4/14/2 43/5/2 42/7/2 8/81/2
f 13/9/3 51/8/3 53/43/3 22/46/3
f 22/46/2 53/43/2 52/26/2 23/25/2
f 2/30/5 48/18/5 50/23/5 14/31/5
f 14/31/5 50/23/5 52/26/5 24/45/5
f 6/82/6 49/11/6 48/18/6 2/30/6
f 15/49/3 51/8/3 49/11/3 6/82/3
f 47/38/1 52/26/1 53/43/1 46/35/1
f 47/83/5 21/84/5 24/85/5 52/86/5
f 53/87/3 25/88/3 19/89/3 46/90/3
f 24/85/4 21/84/4 19/89/4 25/88/4
l 10 17
