# Blender v2.82 (sub 7) OBJ File: 'LargeDoorTile.blend'
# www.blender.org
mtllib LargeDoorTile.mtl
o Cube
v -1.484986 2.000000 -12.000000
v -1.484986 2.000000 12.000000
v -2.484986 2.000000 -12.000000
v -2.484986 2.000000 12.000000
v -1.484986 2.000000 6.000000
v -2.484986 2.000000 6.000000
v -2.484986 2.000000 -6.000000
v -1.484986 2.000000 -6.000000
v -1.484986 2.000000 6.000000
v -2.484986 2.000000 5.500000
v -1.484986 2.000000 5.500000
v -2.484986 2.000000 -5.500000
v -1.484986 2.000000 -5.500000
v -2.484986 7.000000 6.000000
v -1.484986 7.000000 6.000000
v -2.484986 7.000000 5.500000
v -1.484986 7.000000 5.500000
v -2.484986 7.000000 -6.000000
v -1.484986 7.000000 -6.000000
v -2.484986 7.000000 -5.500000
v -1.484986 7.000000 -5.500000
v -2.484986 7.500000 6.000000
v -1.484986 7.500000 6.000000
v -2.484986 7.500000 5.500000
v -1.484986 7.500000 5.500000
v -2.484986 7.500000 -6.000000
v -1.484986 7.500000 -6.000000
v -2.484986 7.500000 -5.500000
v -1.484986 7.500000 -5.500000
v -2.484986 -1.000000 12.000000
v -1.484986 -1.000000 12.000000
v -1.484986 -1.000000 6.000000
v -2.484986 -1.000000 5.500000
v -1.484986 -1.000000 5.500000
v -1.484986 -1.000000 -12.000000
v -2.484986 -1.000000 -12.000000
v -1.484986 -1.000000 -6.000000
v -1.484986 -1.000000 -5.500000
v -2.484986 -1.000000 -5.500000
v -2.484986 8.000000 6.000000
v -1.484986 8.000000 6.000000
v -2.484986 8.000000 5.500000
v -1.484986 8.000000 5.500000
v -2.484986 8.500000 6.000000
v -1.484986 8.500000 6.000000
v -2.484986 8.500000 5.500000
v -1.484986 8.500000 5.500000
v -2.484986 8.000000 -6.000000
v -1.484986 8.000000 -6.000000
v -2.484986 8.000000 -5.500000
v -1.484986 8.000000 -5.500000
v -2.484986 8.500000 -6.000000
v -1.484986 8.500000 -6.000000
v -2.484986 8.500000 -5.500000
v -1.484986 8.500000 -5.500000
v -2.484986 -0.250000 12.000000
v -1.484986 -0.250000 12.000000
v -1.484986 -0.250000 6.000000
v -2.484986 -0.250000 5.500000
v -1.484986 -0.250000 5.500000
v -1.484986 -0.250000 -12.000000
v -2.484986 -0.250000 -12.000000
v -1.484986 -0.250000 -6.000000
v -1.484986 -0.250000 -5.500000
v -2.484986 -0.250000 -5.500000
vt 0.216510 0.916838
vt 0.222373 0.916838
vt 0.222373 0.918304
vt 0.216510 0.918304
vt 0.567411 0.459280
vt 0.564057 0.459280
vt 0.564057 0.459280
vt 0.567411 0.459280
vt 0.577472 0.459280
vt 0.577472 0.459280
vt 0.577472 0.459280
vt 0.577472 0.459280
vt 0.577472 0.459280
vt 0.577472 0.459280
vt 0.577472 0.459280
vt 0.577472 0.459280
vt 0.542611 0.574839
vt 0.589706 0.574839
vt 0.589706 0.593580
vt 0.542611 0.593580
vt 0.212827 0.918304
vt 0.216510 0.924166
vt 0.212827 0.924166
vt 0.211599 0.924166
vt 0.211599 0.918304
vt 0.216510 0.912441
vt 0.222373 0.912441
vt 0.222373 0.913907
vt 0.216510 0.913907
vt 0.546163 0.518616
vt 0.589706 0.518616
vt 0.589706 0.537357
vt 0.546163 0.537357
vt 0.782431 0.968507
vt 0.826259 0.909001
vt 0.826259 0.905257
vt 0.782431 0.967769
vt 0.593487 0.459280
vt 0.593487 0.459280
vt 0.593487 0.459280
vt 0.593487 0.459280
vt 0.577472 0.451273
vt 0.593487 0.451273
vt 0.593487 0.451273
vt 0.593487 0.451273
vt 0.593487 0.451273
vt 0.577472 0.451273
vt 0.577472 0.451273
vt 0.577472 0.451273
vt 0.804361 0.963089
vt 0.804361 0.963726
vt 0.840626 0.912186
vt 0.842080 0.912186
vt 0.577472 0.459280
vt 0.577472 0.459280
vt 0.557870 0.449746
vt 0.595223 0.449746
vt 0.595223 0.449746
vt 0.595223 0.449746
vt 0.595223 0.449746
vt 0.575404 0.449746
vt 0.575404 0.449746
vt 0.575404 0.449746
vt 0.575404 0.449746
vt 0.562953 0.449746
vt 0.558802 0.449746
vt 0.545419 0.449746
vt 0.593487 0.459280
vt 0.593487 0.459280
vt 0.577472 0.451273
vt 0.577472 0.451273
vt 0.577472 0.451273
vt 0.593487 0.451273
vt 0.593487 0.451273
vt 0.525856 0.395244
vt 0.525856 0.395244
vt 0.525856 0.395244
vt 0.525856 0.395244
vt 0.537434 0.415239
vt 0.537434 0.415239
vt 0.537434 0.415239
vt 0.537434 0.415239
vt 0.568170 0.451273
vt 0.577472 0.451273
vt 0.577472 0.451273
vt 0.577472 0.451273
vt 0.568170 0.451273
vt 0.565069 0.451273
vt 0.565069 0.451273
vt 0.785668 0.937936
vt 0.796323 0.937936
vt 0.796323 0.950656
vt 0.785668 0.950656
vt 0.788882 0.899775
vt 0.798733 0.899775
vt 0.798733 0.912495
vt 0.788882 0.912495
vt 0.563892 0.410108
vt 0.560054 0.410108
vt 0.560054 0.439837
vt 0.563892 0.439837
vt 0.561020 0.468957
vt 0.561020 0.468957
vt 0.561020 0.468957
vt 0.561020 0.468957
vt 0.561020 0.389318
vt 0.561020 0.389318
vt 0.561020 0.389318
vt 0.575404 0.410108
vt 0.213105 0.906578
vt 0.216510 0.906578
vt 0.213105 0.912441
vt 0.211970 0.912441
vt 0.211970 0.906578
vn 0.0000 1.0000 0.0000
vn 1.0000 0.0000 0.0000
vn 0.0000 0.0000 1.0000
vn 0.0000 -1.0000 0.0000
vn 0.0000 0.0000 -1.0000
usemtl Material
s off
f 5/1/1 6/2/1 4/3/1 2/4/1
f 58/5/2 32/6/2 34/7/2 60/8/2 11/9/2 17/10/2 25/11/2 43/12/2 41/13/2 23/14/2 15/15/2 5/16/2
f 58/17/2 5/18/2 2/19/2 57/20/2
f 57/21/3 2/4/3 4/22/3 56/23/3 30/24/3 31/25/3
f 1/26/1 3/27/1 7/28/1 8/29/1
f 61/30/2 1/31/2 8/32/2 63/33/2
f 35/34/4 38/35/4 39/36/4 36/37/4
f 6/38/3 5/16/3 15/15/3 23/14/3 41/13/3 40/39/3 22/40/3 14/41/3
f 8/42/5 7/43/5 18/44/5 26/45/5 48/46/5 49/47/5 27/48/5 19/49/5
f 31/50/4 30/51/4 33/52/4 34/53/4
f 41/13/2 43/12/2 47/54/2 45/55/2
f 59/56/5 10/57/5 16/58/5 24/59/5 42/60/5 43/61/5 25/62/5 17/63/5 11/64/5 60/65/5 34/66/5 33/67/5
f 44/68/1 45/55/1 47/54/1 46/69/1
f 40/39/3 41/13/3 45/55/3 44/68/3
f 51/70/2 49/47/2 53/71/2 55/72/2
f 53/71/1 52/73/1 54/74/1 55/72/1
f 49/47/5 48/46/5 52/73/5 53/71/5
f 47/54/1 55/72/1 54/74/1 46/69/1
f 50/75/4 51/76/4 43/77/4 42/78/4
f 51/79/2 55/80/2 47/81/2 43/82/2
f 63/83/2 8/42/2 19/49/2 27/48/2 49/47/2 51/70/2 29/84/2 21/85/2 13/86/2 64/87/2 38/88/2 37/89/2
f 32/90/2 58/91/2 57/92/2 31/93/2
f 35/94/2 61/95/2 63/96/2 37/97/2
f 65/98/3 39/99/3 38/100/3 64/101/3 13/102/3 21/103/3 29/104/3 51/105/3 50/106/3 28/107/3 20/108/3 12/109/3
f 62/110/5 3/111/5 1/26/5 61/112/5 35/113/5 36/114/5
l 5 9
