# Blender v2.82 (sub 7) OBJ File: 'LargeSchoolSign.blend'
# www.blender.org
mtllib LargeSchoolSign.mtl
o Cube
v 0.222822 3.420737 -3.891336
v 0.222822 -0.288322 -3.891336
v 0.222822 3.420737 1.000000
v 0.222822 -0.288322 1.000000
v -1.000000 3.420737 -3.891336
v -1.000000 -0.288322 -3.891336
v -1.000000 3.420737 1.000000
v -1.000000 -0.288322 1.000000
v 0.222822 -0.288322 -5.091336
v -1.000000 -0.288322 -5.091336
v 0.222822 3.420737 -5.091336
v -1.000000 3.420737 -5.091336
v -1.000000 -0.288322 2.200000
v -1.000000 3.420737 2.200000
v 0.222822 3.420737 2.200000
v 0.222822 -0.288322 2.200000
v 0.222822 4.095765 1.000000
v -1.000000 4.095765 1.000000
v 0.222822 4.095765 -3.891336
v -1.000000 4.095765 -3.891336
v 0.222822 4.295765 1.000000
v -1.000000 4.295765 1.000000
v 0.222822 4.295765 -3.891336
v -1.000000 4.295765 -3.891336
v -1.000000 3.620737 -3.891336
v 0.222822 3.620737 -3.891336
v -1.000000 3.620737 -5.091336
v 0.222822 3.620737 -5.091336
v 0.222822 3.620737 1.000000
v -1.000000 3.620737 1.000000
v 0.222822 3.620737 2.200000
v -1.000000 3.620737 2.200000
v 0.322822 4.095765 -3.891336
v 0.322822 4.095765 1.000000
v 0.322822 4.295765 -3.891336
v 0.322822 4.295765 1.000000
v -1.000000 4.095765 -3.991336
v 0.222822 4.095765 -3.991336
v -1.000000 4.295765 -3.991336
v 0.222822 4.295765 -3.991336
v 0.322822 4.295765 -3.991336
v 0.322822 4.095765 -3.991336
v -1.100000 4.095765 1.000000
v -1.100000 4.095765 -3.891336
v -1.100000 4.295765 1.000000
v -1.100000 4.295765 -3.891336
v -1.100000 4.095765 -3.991336
v -1.100000 4.295765 -3.991336
v 0.222822 4.095765 1.100000
v -1.000000 4.095765 1.100000
v 0.222822 4.295765 1.100000
v -1.000000 4.295765 1.100000
v 0.322822 4.295765 1.100000
v 0.322822 4.095765 1.100000
v -1.100000 4.095765 1.100000
v -1.100000 4.295765 1.100000
v -1.100000 3.420737 2.200000
v -1.100000 3.420737 1.000000
v -1.100000 3.620737 2.200000
v -1.100000 3.620737 1.000000
v 0.322822 3.420737 2.200000
v 0.322822 3.420737 1.000000
v 0.322822 3.620737 2.200000
v 0.322822 3.620737 1.000000
v 0.222822 3.420737 2.300000
v -1.000000 3.420737 2.300000
v 0.222822 3.620737 2.300000
v -1.000000 3.620737 2.300000
v -1.100000 3.420737 2.300000
v -1.100000 3.620737 2.300000
v 0.322822 3.620737 2.300000
v 0.322822 3.420737 2.300000
v 0.322822 3.420737 -3.891336
v 0.322822 3.420737 -5.091336
v 0.322822 3.620737 -3.891336
v 0.322822 3.620737 -5.091336
v -1.100000 3.420737 -3.891336
v -1.100000 3.420737 -5.091336
v -1.100000 3.620737 -3.891336
v -1.100000 3.620737 -5.091336
v -1.000000 3.420737 -5.191336
v 0.222822 3.420737 -5.191336
v -1.000000 3.620737 -5.191336
v 0.222822 3.620737 -5.191336
v 0.322822 3.420737 -5.191336
v 0.322822 3.620737 -5.191336
v -1.100000 3.620737 -5.191336
v -1.100000 3.420737 -5.191336
vt 0.447836 0.412387
vt 0.447836 0.393676
vt 0.447836 0.393676
vt 0.447836 0.412387
vt 0.429125 0.393676
vt 0.429125 0.393676
vt 0.447836 0.393676
vt 0.429125 0.412387
vt 0.410414 0.431098
vt 0.429125 0.431098
vt 0.429125 0.449809
vt 0.410414 0.449809
vt 0.447836 0.431098
vt 0.447836 0.449809
vt 0.447836 0.412387
vt 0.429125 0.412387
vt 0.447836 0.431098
vt 0.429125 0.431098
vt 0.410414 0.431098
vt 0.168801 0.919301
vt 0.168801 0.919301
vt 0.168801 0.919301
vt 0.168801 0.919301
vt 0.429125 0.449809
vt 0.447836 0.449809
vt 0.447836 0.468520
vt 0.429125 0.468520
vt 0.410414 0.449809
vt 0.168801 0.956723
vt 0.168801 0.956723
vt 0.168801 0.956723
vt 0.168801 0.956723
vt 0.207664 0.936462
vt 0.207664 0.936462
vt 0.207664 0.936462
vt 0.207664 0.936462
vt 0.447836 0.431098
vt 0.447836 0.449809
vt 0.466547 0.431098
vt 0.466547 0.431098
vt 0.466547 0.449809
vt 0.466547 0.449809
vt 0.188953 0.936462
vt 0.207664 0.955173
vt 0.188953 0.955173
vt 0.207664 0.955173
vt 0.188953 0.955173
vt 0.207664 0.955173
vt 0.188953 0.899040
vt 0.188953 0.899040
vt 0.188953 0.899040
vt 0.188953 0.899040
vt 0.187511 0.938012
vt 0.168801 0.938012
vt 0.168801 0.938012
vt 0.187511 0.938012
vt 0.447836 0.431098
vt 0.466547 0.431098
vt 0.168801 0.919301
vt 0.168801 0.919301
vt 0.168801 0.938012
vt 0.168801 0.938012
vt 0.168801 0.938012
vt 0.168801 0.956723
vt 0.187511 0.956723
vt 0.187511 0.956723
vt 0.168801 0.956723
vt 0.168801 0.900590
vt 0.168801 0.900590
vt 0.168801 0.900590
vt 0.168801 0.900590
vt 0.466547 0.449809
vt 0.447836 0.449809
vt 0.187511 0.956723
vt 0.187511 0.956723
vt 0.187511 0.956723
vt 0.188953 0.955173
vt 0.188953 0.936462
vt 0.188953 0.936462
vt 0.188953 0.955173
vt 0.188953 0.955173
vt 0.188953 0.936462
vt 0.207664 0.936462
vt 0.207664 0.936462
vt 0.188953 0.936462
vt 0.188953 0.936462
vt 0.188953 0.936462
vt 0.188953 0.936462
vt 0.188953 0.917751
vt 0.188953 0.917751
vt 0.188953 0.917751
vt 0.188953 0.917751
vt 0.188953 0.955173
vt 0.188953 0.955173
vt 0.188953 0.917751
vt 0.188953 0.899040
vt 0.207664 0.936462
vt 0.207664 0.936462
vt 0.188953 0.955173
vt 0.207664 0.955173
vt 0.207664 0.955173
vt 0.207664 0.955173
vt 0.188953 0.899040
vt 0.207664 0.955173
vt 0.168801 0.900590
vt 0.168801 0.900590
vt 0.168801 0.956723
vt 0.187511 0.956723
vt 0.187511 0.956723
vt 0.187511 0.956723
vt 0.168801 0.956723
vt 0.168801 0.956723
vt 0.168801 0.956723
vt 0.168801 0.956723
vt 0.168801 0.975434
vt 0.168801 0.956723
vt 0.168801 0.975434
vt 0.168801 0.975434
vt 0.168801 0.975434
vt 0.168801 0.900590
vt 0.168801 0.900590
vt 0.168801 0.975434
vt 0.168801 0.900590
vt 0.168801 0.938012
vt 0.168801 0.938012
vt 0.168801 0.938012
vt 0.168801 0.938012
vt 0.168801 0.938012
vt 0.168801 0.919301
vt 0.168801 0.919301
vt 0.187511 0.938012
vt 0.187511 0.938012
vt 0.187511 0.938012
vt 0.187511 0.938012
vt 0.187511 0.938012
vt 0.168801 0.938012
vt 0.168801 0.938012
vt 0.168801 0.919301
vt 0.168801 0.919301
vt 0.187511 0.938012
vn -1.0000 0.0000 0.0000
vn 0.0000 -1.0000 0.0000
vn 1.0000 0.0000 0.0000
vn 0.0000 0.0000 -1.0000
vn 0.0000 0.0000 1.0000
vn 0.0000 1.0000 0.0000
usemtl Material
s off
f 5/1/1 7/2/1 18/3/1 20/4/1
f 7/2/1 8/5/1 13/6/1 14/7/1
f 8/5/1 7/2/1 5/1/1 6/8/1
f 6/9/2 2/10/2 4/11/2 8/12/2
f 2/10/3 1/13/3 3/14/3 4/11/3
f 6/8/1 5/1/1 12/15/1 10/16/1
f 10/16/4 12/15/4 11/17/4 9/18/4
f 2/10/2 6/9/2 10/19/2 9/18/2
f 12/20/2 5/21/2 77/22/2 78/23/2
f 1/13/3 2/10/3 9/18/3 11/17/3
f 16/24/5 15/25/5 14/26/5 13/27/5
f 8/12/2 4/11/2 16/24/2 13/28/2
f 15/29/2 3/30/2 62/31/2 61/32/2
f 4/11/3 3/14/3 15/25/3 16/24/3
f 24/33/6 39/34/6 48/35/6 46/36/6
f 3/14/3 1/13/3 19/37/3 17/38/3
f 1/13/4 5/39/4 20/40/4 19/37/4
f 7/41/5 3/14/5 17/38/5 18/42/5
f 23/43/6 24/33/6 22/44/6 21/45/6
f 21/45/6 22/44/6 52/46/6 51/47/6
f 22/44/6 24/33/6 46/36/6 45/48/6
f 45/49/1 43/50/1 55/51/1 56/52/1
f 25/53/6 26/54/6 28/55/6 27/56/6
f 5/39/5 1/13/5 26/57/5 25/58/5
f 12/20/2 78/23/2 88/59/2 81/60/2
f 28/55/6 76/61/6 86/62/6 84/63/6
f 29/64/6 30/65/6 32/66/6 31/67/6
f 7/68/2 14/69/2 57/70/2 58/71/2
f 3/14/4 7/41/4 30/72/4 29/73/4
f 32/66/6 59/74/6 70/75/6 68/76/6
f 34/77/3 33/78/3 35/79/3 36/80/3
f 17/81/2 19/82/2 33/78/2 34/77/2
f 19/82/2 20/83/2 37/84/2 38/85/2
f 23/43/6 21/45/6 36/80/6 35/79/6
f 38/85/4 37/84/4 39/34/4 40/86/4
f 38/85/4 40/86/4 41/87/4 42/88/4
f 35/79/3 33/78/3 42/88/3 41/87/3
f 23/43/6 35/79/6 41/87/6 40/86/6
f 24/33/6 23/43/6 40/86/6 39/34/6
f 33/78/2 19/82/2 38/85/2 42/88/2
f 44/89/1 46/90/1 48/91/1 47/92/1
f 44/89/1 43/50/1 45/49/1 46/90/1
f 17/81/2 34/77/2 54/93/2 49/94/2
f 20/95/2 18/96/2 43/50/2 44/89/2
f 37/84/2 20/83/2 44/97/2 47/98/2
f 39/34/4 37/84/4 47/98/4 48/35/4
f 51/47/5 49/94/5 54/93/5 53/99/5
f 50/100/5 49/94/5 51/47/5 52/46/5
f 50/100/5 52/46/5 56/101/5 55/102/5
f 43/50/2 18/96/2 50/103/2 55/51/2
f 22/44/6 45/48/6 56/101/6 52/46/6
f 36/80/6 21/45/6 51/47/6 53/99/6
f 34/77/3 36/80/3 53/99/3 54/93/3
f 18/104/2 17/81/2 49/94/2 50/100/2
f 58/71/1 57/70/1 59/105/1 60/106/1
f 31/67/6 32/66/6 68/76/6 67/107/6
f 32/66/6 30/65/6 60/108/6 59/74/6
f 30/65/4 7/109/4 58/110/4 60/108/4
f 61/32/3 62/31/3 64/111/3 63/112/3
f 3/30/4 29/64/4 64/111/4 62/31/4
f 61/32/3 63/112/3 71/113/3 72/114/3
f 29/64/6 31/67/6 63/112/6 64/111/6
f 66/115/5 65/116/5 67/107/5 68/117/5
f 66/115/5 68/117/5 70/118/5 69/119/5
f 67/107/5 65/116/5 72/114/5 71/113/5
f 63/112/6 31/67/6 67/107/6 71/113/6
f 57/70/2 14/69/2 66/120/2 69/121/2
f 15/29/2 61/32/2 72/114/2 65/116/2
f 14/122/2 15/29/2 65/116/2 66/115/2
f 59/105/1 57/70/1 69/121/1 70/123/1
f 73/124/3 74/125/3 76/61/3 75/126/3
f 28/55/6 26/54/6 75/126/6 76/61/6
f 1/127/2 11/128/2 74/125/2 73/124/2
f 26/54/5 1/127/5 73/124/5 75/126/5
f 78/23/1 77/22/1 79/129/1 80/130/1
f 27/56/6 28/55/6 84/63/6 83/131/6
f 5/132/5 25/53/5 79/133/5 77/134/5
f 25/53/6 27/56/6 80/135/6 79/133/6
f 82/136/4 84/63/4 86/62/4 85/137/4
f 82/136/4 81/60/4 83/138/4 84/63/4
f 83/138/4 81/60/4 88/59/4 87/139/4
f 78/23/1 80/130/1 87/139/1 88/59/1
f 11/128/2 12/20/2 81/60/2 82/136/2
f 74/125/2 11/128/2 82/136/2 85/137/2
f 80/135/6 27/56/6 83/131/6 87/140/6
f 76/61/3 74/125/3 85/137/3 86/62/3
