# Blender v2.82 (sub 7) OBJ File: 'Locker.blend'
# www.blender.org
mtllib Locker.mtl
o Cube
v 1.000000 5.989959 -1.000000
v 1.000000 -1.000000 -1.000000
v 0.800000 5.178355 0.597230
v 0.800000 -0.800000 0.597230
v -1.000000 5.989959 -1.000000
v -1.000000 -1.000000 -1.000000
v -0.800000 5.178355 0.597230
v -0.800000 -0.800000 0.597230
v -1.000000 -1.000000 0.597230
v -1.000000 5.378355 0.597230
v 1.000000 5.378355 0.597230
v 1.000000 -1.000000 0.597230
v -0.800000 -0.800000 0.697230
v -0.800000 5.178355 0.697230
v 0.800000 5.178355 0.697230
v 0.800000 -0.800000 0.697230
v 0.511840 -1.000000 -1.000000
v 0.511840 5.378355 0.597230
v 0.511840 -1.000000 0.597230
v 0.511840 5.989959 -1.000000
v 0.409472 5.178355 0.597230
v 0.409472 -0.800000 0.597230
v 0.409472 5.178355 0.697230
v 0.409472 -0.800000 0.697230
v 0.633137 -1.000000 0.597230
v 0.633137 5.989959 -1.000000
v 0.506510 -0.800000 0.597230
v 0.506510 -0.800000 0.697230
v 0.633137 -1.000000 -1.000000
v 0.633137 5.378355 0.597230
v 0.506510 5.178355 0.597230
v 0.506510 5.178355 0.697230
v 1.000000 1.548788 -1.000000
v -1.000000 1.548788 0.597230
v 1.000000 1.548788 0.597230
v -1.000000 1.548788 -1.000000
v -0.800000 1.588948 0.597230
v 0.800000 1.588948 0.597230
v -0.800000 1.588948 0.697230
v 0.800000 1.588948 0.697230
v 0.409472 1.588948 0.697230
v 0.506510 1.588948 0.697230
v -1.000000 2.167680 0.597230
v -0.800000 2.169029 0.597230
v -0.800000 2.169029 0.697230
v 1.000000 2.167680 -1.000000
v 1.000000 2.167680 0.597230
v -1.000000 2.167680 -1.000000
v 0.800000 2.169029 0.597230
v 0.800000 2.169029 0.697230
v 0.409472 2.169029 0.697230
v 0.506510 2.169029 0.697230
v 0.409472 2.169029 0.797230
v 0.409472 1.588948 0.797230
v 0.506510 2.169029 0.797230
v 0.506510 1.588948 0.797230
v -0.800000 4.211467 0.597230
v -0.775000 4.236467 0.697230
v 0.800000 4.211467 0.597230
v 0.775000 4.236467 0.697230
v -0.800000 4.694911 0.597230
v -0.775000 4.669911 0.697230
v 0.800000 4.694911 0.597230
v 0.775000 4.669911 0.697230
v 0.800000 4.453189 0.597230
v 0.775000 4.478189 0.697230
v -0.800000 4.453189 0.597230
v -0.775000 4.478189 0.697230
v 0.800000 4.332328 0.597230
v 0.775000 4.357328 0.697230
v -0.800000 4.332328 0.597230
v -0.775000 4.357328 0.697230
v -0.800000 4.574050 0.597230
v -0.775000 4.599050 0.697230
v 0.800000 4.574050 0.597230
v 0.775000 4.599050 0.697230
v -0.775000 4.549050 0.697230
v -0.800000 4.694911 0.697230
v 0.800000 4.694911 0.697230
v 0.775000 4.549050 0.697230
v 0.800000 4.574050 0.697230
v 0.775000 4.428189 0.697230
v -0.775000 4.428189 0.697230
v -0.800000 4.574050 0.697230
v -0.775000 4.307328 0.697230
v -0.800000 4.453189 0.697230
v 0.800000 4.453189 0.697230
v 0.775000 4.307328 0.697230
v 0.800000 4.332328 0.697230
v 0.800000 4.211467 0.697230
v -0.800000 4.211467 0.697230
v -0.800000 4.332328 0.697230
v -0.775000 4.599050 0.672230
v -0.775000 4.669911 0.672230
v 0.775000 4.669911 0.672230
v 0.775000 4.599050 0.672230
v 0.775000 4.549050 0.672230
v 0.775000 4.478189 0.672230
v -0.775000 4.478189 0.672230
v -0.775000 4.549050 0.672230
v -0.775000 4.357328 0.672230
v -0.775000 4.428189 0.672230
v 0.775000 4.428189 0.672230
v 0.775000 4.357328 0.672230
v 0.775000 4.307328 0.672230
v 0.775000 4.236467 0.672230
v -0.775000 4.236467 0.672230
v -0.775000 4.307328 0.672230
v -0.775000 4.599050 0.754016
v -0.775000 4.669911 0.722230
v 0.775000 4.669911 0.722230
v 0.775000 4.599050 0.754016
v 0.775000 4.549050 0.722230
v 0.775000 4.478189 0.754016
v -0.775000 4.478189 0.754016
v -0.775000 4.549050 0.722230
v -0.775000 4.357328 0.754016
v -0.775000 4.428189 0.722230
v 0.775000 4.428189 0.722230
v 0.775000 4.357328 0.754016
v 0.775000 4.307328 0.722230
v 0.775000 4.236467 0.754016
v -0.775000 4.236467 0.754016
v -0.775000 4.307328 0.722230
vt 0.292516 0.664617
vt 0.292516 0.658209
vt 0.292516 0.658209
vt 0.292516 0.664617
vt 0.330135 0.658209
vt 0.333445 0.658209
vt 0.333445 0.658209
vt 0.330135 0.658209
vt 0.308871 0.693144
vt 0.292516 0.693144
vt 0.292516 0.693144
vt 0.308871 0.693144
vt 0.333445 0.666736
vt 0.333445 0.693144
vt 0.333445 0.693144
vt 0.333445 0.666736
vt 0.333445 0.664617
vt 0.333445 0.664617
vt 0.435076 0.940578
vt 0.445282 0.940578
vt 0.445282 0.954080
vt 0.435076 0.954080
vt 0.434257 0.954080
vt 0.431780 0.954080
vt 0.431780 0.940578
vt 0.434257 0.940578
vt 0.292516 0.666736
vt 0.292516 0.666736
vt 0.431357 0.957411
vt 0.431357 0.955430
vt 0.431780 0.956556
vt 0.431780 0.957375
vt 0.431780 0.967581
vt 0.431357 0.966231
vt 0.431357 0.958066
vt 0.308871 0.658209
vt 0.308871 0.664617
vt 0.308871 0.666736
vt 0.423759 0.955430
vt 0.418702 0.955430
vt 0.418278 0.954080
vt 0.423674 0.954080
vt 0.424984 0.954080
vt 0.430333 0.955430
vt 0.430078 0.955430
vt 0.429822 0.955430
vt 0.429566 0.955430
vt 0.429310 0.955430
vt 0.424987 0.955430
vt 0.424984 0.940578
vt 0.418278 0.940578
vt 0.423674 0.940578
vt 0.312843 0.693144
vt 0.312843 0.693144
vt 0.308871 0.658209
vt 0.431780 0.938101
vt 0.418278 0.938101
vt 0.418278 0.937282
vt 0.418278 0.927076
vt 0.423674 0.927076
vt 0.424984 0.927076
vt 0.431780 0.927076
vt 0.431780 0.937282
vt 0.418702 0.958066
vt 0.418702 0.966231
vt 0.418278 0.967581
vt 0.418278 0.957375
vt 0.418278 0.956556
vt 0.418702 0.957411
vt 0.424984 0.913574
vt 0.431780 0.913574
vt 0.418278 0.913574
vt 0.423674 0.913574
vt 0.415802 0.940578
vt 0.415802 0.954080
vt 0.414983 0.954080
vt 0.404776 0.954080
vt 0.404776 0.940578
vt 0.414983 0.940578
vt 0.424987 0.966231
vt 0.429310 0.966231
vt 0.429566 0.966231
vt 0.429822 0.966231
vt 0.430078 0.966231
vt 0.430333 0.966231
vt 0.424984 0.967581
vt 0.423674 0.967581
vt 0.423759 0.966231
vt 0.326826 0.693144
vt 0.326826 0.693144
vt 0.312843 0.658209
vt 0.312843 0.664617
vt 0.422067 0.659696
vt 0.426039 0.659696
vt 0.426039 0.659696
vt 0.422067 0.659696
vt 0.312843 0.658209
vt 0.312843 0.666736
vt 0.426039 0.661815
vt 0.422067 0.661815
vt 0.426039 0.661815
vt 0.422067 0.661815
vt 0.476474 0.823816
vt 0.476474 0.811686
vt 0.476474 0.811686
vt 0.476474 0.823816
vt 0.330135 0.693144
vt 0.326826 0.658209
vt 0.327653 0.693144
vt 0.327653 0.693144
vt 0.326826 0.658209
vt 0.330135 0.693144
vt 0.583021 0.778125
vt 0.583021 0.971875
vt 0.583021 0.971875
vt 0.583021 0.778125
vt 0.329308 0.658209
vt 0.329308 0.658209
vt 0.327653 0.658209
vt 0.328481 0.658209
vt 0.328481 0.658209
vt 0.327653 0.658209
vt 0.584981 0.971875
vt 0.584981 0.778125
vt 0.584981 0.778125
vt 0.584981 0.971875
vt 0.329308 0.693144
vt 0.328481 0.693144
vt 0.328481 0.693144
vt 0.329308 0.693144
vt 0.580244 0.971875
vt 0.580244 0.971875
vt 0.592495 0.778125
vt 0.592495 0.971875
vt 0.592495 0.971875
vt 0.592495 0.778125
vt 0.329479 0.692598
vt 0.329964 0.692598
vt 0.329964 0.658755
vt 0.329479 0.658755
vt 0.329137 0.658755
vt 0.328652 0.658755
vt 0.328652 0.692598
vt 0.329137 0.692598
vt 0.327824 0.692598
vt 0.328309 0.692598
vt 0.328309 0.658755
vt 0.327824 0.658755
vt 0.327482 0.658755
vt 0.326997 0.658755
vt 0.326997 0.692598
vt 0.327482 0.692598
vt 0.413609 0.661216
vt 0.413609 0.695059
vt 0.413609 0.695059
vt 0.413609 0.661216
vt 0.416092 0.695059
vt 0.415607 0.695059
vt 0.415607 0.695059
vt 0.416092 0.695059
vt 0.415264 0.661216
vt 0.415264 0.695059
vt 0.415264 0.695059
vt 0.415264 0.661216
vt 0.413124 0.695059
vt 0.413124 0.695059
vt 0.597232 0.971875
vt 0.594455 0.971875
vt 0.594455 0.971875
vt 0.597232 0.971875
vt 0.589718 0.778125
vt 0.589718 0.778125
vt 0.597232 0.778125
vt 0.597232 0.778125
vt 0.587758 0.971875
vt 0.587758 0.971875
vt 0.589718 0.971875
vt 0.589718 0.971875
vt 0.580244 0.778125
vt 0.580244 0.778125
vt 0.594455 0.778125
vt 0.594455 0.778125
vt 0.587758 0.778125
vt 0.587758 0.778125
vt 0.415607 0.661216
vt 0.416092 0.661216
vt 0.413952 0.695059
vt 0.413952 0.661216
vt 0.414437 0.661216
vt 0.414437 0.695059
vt 0.413124 0.661216
vt 0.414779 0.695059
vt 0.414779 0.661216
vt 0.414437 0.695059
vt 0.413952 0.695059
vt 0.416092 0.661216
vt 0.414437 0.661216
vt 0.415607 0.661216
vt 0.413952 0.661216
vt 0.449797 0.724963
vt 0.449797 0.650998
vt 0.449797 0.650998
vt 0.449797 0.724963
vt 0.446181 0.724963
vt 0.446181 0.650998
vt 0.446181 0.650998
vt 0.446181 0.724963
vt 0.414779 0.661216
vt 0.413124 0.661216
vt 0.447989 0.724963
vt 0.447989 0.650998
vt 0.447989 0.650998
vt 0.447989 0.724963
vt 0.444372 0.724963
vt 0.444372 0.650998
vt 0.444372 0.650998
vt 0.444372 0.724963
vt 0.414779 0.695059
vn 0.0000 -1.0000 0.0000
vn 1.0000 0.0000 0.0000
vn -1.0000 0.0000 0.0000
vn 0.0000 1.0000 0.0000
vn 0.0000 0.9339 0.3576
vn 0.0000 0.0000 1.0000
vn 0.0000 0.0000 -1.0000
vn 0.0000 0.4093 0.9124
usemtl Material
s off
f 27/1/1 4/2/1 16/3/1 28/4/1
f 63/5/2 3/6/2 15/7/2 79/8/2
f 37/9/3 8/10/3 13/11/3 39/12/3
f 21/13/4 7/14/4 14/15/4 23/16/4 32/17/4 15/7/4 3/6/4 31/18/4
f 20/19/5 5/20/5 10/21/5 18/22/5 30/23/5 11/24/5 1/25/5 26/26/5
f 8/10/1 22/27/1 24/28/1 13/11/1
f 31/29/6 3/30/6 11/24/6 30/31/6 18/32/6 10/33/6 7/34/6 21/35/6
f 16/3/6 40/36/6 42/37/6 41/38/6 39/12/6 13/11/6 24/28/6 28/4/6
f 38/39/6 4/40/6 12/41/6 35/42/6 47/43/6 11/24/6 3/30/6 63/44/6 75/45/6 65/46/6 69/47/6 59/48/6 49/49/6
f 22/27/1 27/1/1 28/4/1 24/28/1
f 46/50/2 1/25/2 11/24/2 47/43/2 35/42/2 12/41/2 2/51/2 33/52/2
f 44/53/3 37/9/3 39/12/3 45/54/3
f 4/2/2 38/55/2 40/36/2 16/3/2
f 26/56/7 1/25/7 46/50/7 33/52/7 2/51/7 29/57/7 17/58/7 6/59/7 36/60/7 48/61/7 5/62/7 20/63/7
f 22/64/6 8/65/6 9/66/6 19/67/6 25/68/6 12/41/6 4/40/6 27/69/6
f 43/70/3 10/71/3 5/62/3 48/61/3 36/60/3 6/59/3 9/72/3 34/73/3
f 29/74/1 2/51/1 12/41/1 25/75/1 19/76/1 9/77/1 6/78/1 17/79/1
f 44/80/6 57/81/6 71/82/6 67/83/6 73/84/6 61/85/6 7/34/6 10/33/6 43/86/6 34/87/6 9/66/6 8/65/6 37/88/6
f 57/89/3 44/53/3 45/54/3 91/90/3
f 40/36/6 50/91/6 52/92/6 42/37/6
f 42/93/2 52/94/2 55/95/2 56/96/2
f 38/55/2 49/97/2 50/91/2 40/36/2
f 41/38/6 51/98/6 45/54/6 39/12/6
f 56/96/6 55/95/6 53/99/6 54/100/6
f 51/101/3 41/102/3 54/100/3 53/99/3
f 52/94/4 51/101/4 53/99/4 55/95/4
f 41/103/1 42/104/1 56/105/1 54/106/1
f 78/107/6 79/8/6 15/7/6 14/15/6
f 45/54/6 50/91/6 90/108/6 91/90/6
f 71/109/3 57/89/3 91/90/3 92/110/3
f 49/97/2 59/111/2 90/108/2 50/91/2
f 7/14/3 61/112/3 78/107/3 14/15/3
f 88/113/1 85/114/1 108/115/1 105/116/1
f 75/117/2 63/5/2 79/8/2 81/118/2
f 69/119/2 65/120/2 87/121/2 89/122/2
f 72/123/4 70/124/4 104/125/4 101/126/4
f 73/127/3 67/128/3 86/129/3 84/130/3
f 85/114/2 58/131/2 107/132/2 108/115/2
f 59/111/2 69/119/2 89/122/2 90/108/2
f 67/128/3 71/109/3 92/110/3 86/129/3
f 61/112/3 73/127/3 84/130/3 78/107/3
f 65/120/2 75/117/2 81/118/2 87/121/2
f 80/133/1 77/134/1 100/135/1 97/136/1
f 74/137/6 62/138/6 78/107/6 84/130/6
f 62/138/6 64/139/6 79/8/6 78/107/6
f 64/139/6 76/140/6 81/118/6 79/8/6
f 76/140/6 74/137/6 84/130/6 81/118/6
f 80/141/6 66/142/6 87/121/6 81/118/6
f 66/142/6 68/143/6 86/129/6 87/121/6
f 68/143/6 77/144/6 84/130/6 86/129/6
f 77/144/6 80/141/6 81/118/6 84/130/6
f 72/145/6 83/146/6 86/129/6 92/110/6
f 83/146/6 82/147/6 87/121/6 86/129/6
f 82/147/6 70/148/6 89/122/6 87/121/6
f 70/148/6 72/145/6 92/110/6 89/122/6
f 88/149/6 60/150/6 90/108/6 89/122/6
f 60/150/6 58/151/6 91/90/6 90/108/6
f 58/151/6 85/152/6 92/110/6 91/90/6
f 85/152/6 88/149/6 89/122/6 92/110/6
f 105/153/4 108/154/4 124/155/4 121/156/4
f 94/157/3 93/158/3 109/159/3 110/160/3
f 97/161/4 100/162/4 116/163/4 113/164/4
f 108/154/3 107/165/3 123/166/3 124/155/3
f 62/167/2 74/168/2 93/169/2 94/170/2
f 66/171/3 80/133/3 97/136/3 98/172/3
f 64/173/1 62/167/1 94/170/1 95/174/1
f 83/175/2 72/123/2 101/126/2 102/176/2
f 68/177/4 66/171/4 98/172/4 99/178/4
f 60/179/3 88/113/3 105/116/3 106/180/3
f 76/181/3 64/173/3 95/174/3 96/182/3
f 82/183/1 83/175/1 102/176/1 103/184/1
f 77/134/2 68/177/2 99/178/2 100/135/2
f 58/131/4 60/179/4 106/180/4 107/132/4
f 74/168/4 76/181/4 96/182/4 93/169/4
f 70/124/3 82/183/3 103/184/3 104/125/3
f 109/159/8 112/185/8 111/186/8 110/160/8
f 117/187/8 120/188/8 119/189/8 118/190/8
f 123/166/8 122/191/8 121/156/8 124/155/8
f 115/192/8 114/193/8 113/164/8 116/163/8
f 102/194/3 101/195/3 117/187/3 118/190/3
f 95/196/4 94/157/4 110/160/4 111/186/4
f 103/197/4 102/194/4 118/190/4 119/189/4
f 96/198/2 95/196/2 111/186/2 112/185/2
f 104/199/2 103/197/2 119/189/2 120/188/2
f 93/200/1 96/201/1 112/202/1 109/203/1
f 101/204/1 104/205/1 120/206/1 117/207/1
f 98/208/2 97/161/2 113/164/2 114/193/2
f 106/209/2 105/153/2 121/156/2 122/191/2
f 99/210/1 98/211/1 114/212/1 115/213/1
f 107/214/1 106/215/1 122/216/1 123/217/1
f 100/162/3 99/218/3 115/192/3 116/163/3
