# Blender v2.82 (sub 7) OBJ File: 'Locker.blend'
# www.blender.org
mtllib Locker.mtl
o Cube
v 1.000000 5.989959 -1.000000
v 1.000000 -1.000000 -1.000000
v 0.800000 5.178355 0.597230
v 0.800000 -0.800000 0.597230
v -1.000000 5.989959 -1.000000
v -1.000000 -1.000000 -1.000000
v -0.800000 5.178355 0.597230
v -0.800000 -0.800000 0.597230
v -1.000000 -1.000000 0.597230
v -1.000000 5.378355 0.597230
v 1.000000 5.378355 0.597230
v 1.000000 -1.000000 0.597230
v -0.800000 -0.800000 0.697230
v -0.800000 5.178355 0.697230
v 0.800000 5.178355 0.697230
v 0.800000 -0.800000 0.697230
v 0.511840 -1.000000 -1.000000
v 0.511840 5.378355 0.597230
v 0.511840 -1.000000 0.597230
v 0.511840 5.989959 -1.000000
v 0.409472 5.178355 0.597230
v 0.409472 -0.800000 0.597230
v 0.409472 5.178355 0.697230
v 0.409472 -0.800000 0.697230
v 0.633137 -1.000000 0.597230
v 0.633137 5.989959 -1.000000
v 0.506510 -0.800000 0.597230
v 0.506510 -0.800000 0.697230
v 0.633137 -1.000000 -1.000000
v 0.633137 5.378355 0.597230
v 0.506510 5.178355 0.597230
v 0.506510 5.178355 0.697230
v 1.000000 1.548788 -1.000000
v -1.000000 1.548788 0.597230
v 1.000000 1.548788 0.597230
v -1.000000 1.548788 -1.000000
v -0.800000 1.588948 0.597230
v 0.800000 1.588948 0.597230
v -0.800000 1.588948 0.697230
v 0.800000 1.588948 0.697230
v 0.409472 1.588948 0.697230
v 0.506510 1.588948 0.697230
v -1.000000 2.167680 0.597230
v -0.800000 2.169029 0.597230
v -0.800000 2.169029 0.697230
v 1.000000 2.167680 -1.000000
v 1.000000 2.167680 0.597230
v -1.000000 2.167680 -1.000000
v 0.800000 2.169029 0.597230
v 0.800000 2.169029 0.697230
v 0.409472 2.169029 0.697230
v 0.506510 2.169029 0.697230
v 0.409472 2.169029 0.797230
v 0.409472 1.588948 0.797230
v 0.506510 2.169029 0.797230
v 0.506510 1.588948 0.797230
v -0.800000 4.211467 0.597230
v -0.775000 4.236467 0.697230
v 0.800000 4.211467 0.597230
v 0.775000 4.236467 0.697230
v -0.800000 4.694911 0.597230
v -0.775000 4.669911 0.697230
v 0.800000 4.694911 0.597230
v 0.775000 4.669911 0.697230
v 0.800000 4.453189 0.597230
v 0.775000 4.478189 0.697230
v -0.800000 4.453189 0.597230
v -0.775000 4.478189 0.697230
v 0.800000 4.332328 0.597230
v 0.775000 4.357328 0.697230
v -0.800000 4.332328 0.597230
v -0.775000 4.357328 0.697230
v -0.800000 4.574050 0.597230
v -0.775000 4.599050 0.697230
v 0.800000 4.574050 0.597230
v 0.775000 4.599050 0.697230
v -0.775000 4.549050 0.697230
v -0.800000 4.694911 0.697230
v 0.800000 4.694911 0.697230
v 0.775000 4.549050 0.697230
v 0.800000 4.574050 0.697230
v 0.775000 4.428189 0.697230
v -0.775000 4.428189 0.697230
v -0.800000 4.574050 0.697230
v -0.775000 4.307328 0.697230
v -0.800000 4.453189 0.697230
v 0.800000 4.453189 0.697230
v 0.775000 4.307328 0.697230
v 0.800000 4.332328 0.697230
v 0.800000 4.211467 0.697230
v -0.800000 4.211467 0.697230
v -0.800000 4.332328 0.697230
v -0.775000 4.599050 0.672230
v -0.775000 4.669911 0.672230
v 0.775000 4.669911 0.672230
v 0.775000 4.599050 0.672230
v 0.775000 4.549050 0.672230
v 0.775000 4.478189 0.672230
v -0.775000 4.478189 0.672230
v -0.775000 4.549050 0.672230
v -0.775000 4.357328 0.672230
v -0.775000 4.428189 0.672230
v 0.775000 4.428189 0.672230
v 0.775000 4.357328 0.672230
v 0.775000 4.307328 0.672230
v 0.775000 4.236467 0.672230
v -0.775000 4.236467 0.672230
v -0.775000 4.307328 0.672230
v -0.775000 4.599050 0.754016
v -0.775000 4.669911 0.722230
v 0.775000 4.669911 0.722230
v 0.775000 4.599050 0.754016
v 0.775000 4.549050 0.722230
v 0.775000 4.478189 0.754016
v -0.775000 4.478189 0.754016
v -0.775000 4.549050 0.722230
v -0.775000 4.357328 0.754016
v -0.775000 4.428189 0.722230
v 0.775000 4.428189 0.722230
v 0.775000 4.357328 0.754016
v 0.775000 4.307328 0.722230
v 0.775000 4.236467 0.754016
v -0.775000 4.236467 0.754016
v -0.775000 4.307328 0.722230
vt 0.382839 0.811686
vt 0.382839 0.775000
vt 0.382839 0.775000
vt 0.382839 0.811686
vt 0.598212 0.775000
vt 0.617161 0.775000
vt 0.617161 0.775000
vt 0.598212 0.775000
vt 0.476474 0.975000
vt 0.382839 0.975000
vt 0.382839 0.975000
vt 0.476474 0.975000
vt 0.617161 0.823816
vt 0.617161 0.975000
vt 0.617161 0.975000
vt 0.617161 0.823816
vt 0.617161 0.811686
vt 0.617161 0.811686
vt 0.686020 0.500000
vt 0.875000 0.500000
vt 0.875000 0.750000
vt 0.686020 0.750000
vt 0.670858 0.750000
vt 0.625000 0.750000
vt 0.625000 0.500000
vt 0.670858 0.500000
vt 0.382839 0.823816
vt 0.382839 0.823816
vt 0.625000 0.795858
vt 0.625000 0.811020
vt 0.625000 1.000000
vt 0.476474 0.775000
vt 0.476474 0.811686
vt 0.476474 0.823816
vt 0.476474 0.775000
vt 0.375000 0.750000
vt 0.474900 0.750000
vt 0.499157 0.750000
vt 0.593475 0.775000
vt 0.588738 0.775000
vt 0.584001 0.775000
vt 0.579264 0.775000
vt 0.499210 0.775000
vt 0.499157 0.500000
vt 0.375000 0.500000
vt 0.474900 0.500000
vt 0.499210 0.975000
vt 0.499210 0.975000
vt 0.625000 0.454142
vt 0.375000 0.454142
vt 0.375000 0.438980
vt 0.375000 0.250000
vt 0.474900 0.250000
vt 0.499157 0.250000
vt 0.625000 0.250000
vt 0.625000 0.438980
vt 0.375000 1.000000
vt 0.375000 0.811020
vt 0.375000 0.795858
vt 0.499157 0.000000
vt 0.625000 0.000000
vt 0.375000 0.000000
vt 0.474900 0.000000
vt 0.329142 0.500000
vt 0.329142 0.750000
vt 0.313980 0.750000
vt 0.125000 0.750000
vt 0.125000 0.500000
vt 0.313980 0.500000
vt 0.579264 0.975000
vt 0.584001 0.975000
vt 0.588738 0.975000
vt 0.593475 0.975000
vt 0.598212 0.975000
vt 0.499157 1.000000
vt 0.474900 1.000000
vt 0.579264 0.975000
vt 0.499210 0.775000
vt 0.499210 0.811686
vt 0.499210 0.811686
vt 0.476474 0.811686
vt 0.499210 0.823816
vt 0.499210 0.823816
vt 0.476474 0.823816
vt 0.598212 0.975000
vt 0.579264 0.775000
vt 0.584001 0.975000
vt 0.583021 0.778125
vt 0.583021 0.971875
vt 0.583021 0.971875
vt 0.583021 0.778125
vt 0.593475 0.775000
vt 0.588738 0.775000
vt 0.584001 0.775000
vt 0.584981 0.971875
vt 0.584981 0.778125
vt 0.584981 0.778125
vt 0.584981 0.971875
vt 0.588738 0.975000
vt 0.593475 0.975000
vt 0.580244 0.971875
vt 0.580244 0.971875
vt 0.592495 0.778125
vt 0.592495 0.971875
vt 0.592495 0.971875
vt 0.592495 0.778125
vt 0.594455 0.971875
vt 0.597232 0.971875
vt 0.597232 0.778125
vt 0.594455 0.778125
vt 0.589718 0.778125
vt 0.589718 0.971875
vt 0.587758 0.971875
vt 0.587758 0.778125
vt 0.580244 0.778125
vt 0.583021 0.971875
vt 0.583021 0.778125
vt 0.597232 0.971875
vt 0.594455 0.971875
vt 0.594455 0.971875
vt 0.597232 0.971875
vt 0.592495 0.971875
vt 0.592495 0.778125
vt 0.580244 0.971875
vt 0.589718 0.778125
vt 0.597232 0.778125
vt 0.587758 0.971875
vt 0.589718 0.971875
vt 0.580244 0.778125
vt 0.594455 0.778125
vt 0.587758 0.778125
vt 0.594455 0.778125
vt 0.597232 0.778125
vt 0.584981 0.971875
vt 0.584981 0.778125
vt 0.587758 0.778125
vt 0.587758 0.971875
vt 0.580244 0.778125
vt 0.589718 0.971875
vt 0.589718 0.778125
vn 0.0000 -1.0000 0.0000
vn 1.0000 0.0000 0.0000
vn -1.0000 0.0000 0.0000
vn 0.0000 1.0000 0.0000
vn 0.0000 0.9339 0.3576
vn 0.0000 0.0000 1.0000
vn 0.0000 0.0000 -1.0000
vn 0.0000 0.4093 0.9124
usemtl Material
s off
f 27/1/1 4/2/1 16/3/1 28/4/1
f 63/5/2 3/6/2 15/7/2 79/8/2
f 37/9/3 8/10/3 13/11/3 39/12/3
f 21/13/4 7/14/4 14/15/4 23/16/4 32/17/4 15/7/4 3/6/4 31/18/4
f 20/19/5 5/20/5 10/21/5 18/22/5 30/23/5 11/24/5 1/25/5 26/26/5
f 8/10/1 22/27/1 24/28/1 13/11/1
f 31/18/6 3/6/6 11/24/6 30/29/6 18/30/6 10/31/6 7/14/6 21/13/6
f 16/3/6 40/32/6 42/33/6 41/34/6 39/12/6 13/11/6 24/28/6 28/4/6
f 38/35/6 4/2/6 12/36/6 35/37/6 47/38/6 11/24/6 3/6/6 63/5/6 75/39/6 65/40/6 69/41/6 59/42/6 49/43/6
f 22/27/1 27/1/1 28/4/1 24/28/1
f 46/44/2 1/25/2 11/24/2 47/38/2 35/37/2 12/36/2 2/45/2 33/46/2
f 44/47/3 37/9/3 39/12/3 45/48/3
f 4/2/2 38/35/2 40/32/2 16/3/2
f 26/49/7 1/25/7 46/44/7 33/46/7 2/45/7 29/50/7 17/51/7 6/52/7 36/53/7 48/54/7 5/55/7 20/56/7
f 22/27/6 8/10/6 9/57/6 19/58/6 25/59/6 12/36/6 4/2/6 27/1/6
f 43/60/3 10/61/3 5/55/3 48/54/3 36/53/3 6/52/3 9/62/3 34/63/3
f 29/64/1 2/45/1 12/36/1 25/65/1 19/66/1 9/67/1 6/68/1 17/69/1
f 44/47/6 57/70/6 71/71/6 67/72/6 73/73/6 61/74/6 7/14/6 10/31/6 43/75/6 34/76/6 9/57/6 8/10/6 37/9/6
f 57/70/3 44/47/3 45/48/3 91/77/3
f 40/32/6 50/78/6 52/79/6 42/33/6
f 42/33/2 52/79/2 55/80/2 56/81/2
f 38/35/2 49/43/2 50/78/2 40/32/2
f 41/34/6 51/82/6 45/48/6 39/12/6
f 56/81/6 55/80/6 53/83/6 54/84/6
f 51/82/3 41/34/3 54/84/3 53/83/3
f 52/79/4 51/82/4 53/83/4 55/80/4
f 41/34/1 42/33/1 56/81/1 54/84/1
f 78/85/6 79/8/6 15/7/6 14/15/6
f 45/48/6 50/78/6 90/86/6 91/77/6
f 71/71/3 57/70/3 91/77/3 92/87/3
f 49/43/2 59/42/2 90/86/2 50/78/2
f 7/14/3 61/74/3 78/85/3 14/15/3
f 88/88/1 85/89/1 108/90/1 105/91/1
f 75/39/2 63/5/2 79/8/2 81/92/2
f 69/41/2 65/40/2 87/93/2 89/94/2
f 72/95/4 70/96/4 104/97/4 101/98/4
f 73/73/3 67/72/3 86/99/3 84/100/3
f 85/89/2 58/101/2 107/102/2 108/90/2
f 59/42/2 69/41/2 89/94/2 90/86/2
f 67/72/3 71/71/3 92/87/3 86/99/3
f 61/74/3 73/73/3 84/100/3 78/85/3
f 65/40/2 75/39/2 81/92/2 87/93/2
f 80/103/1 77/104/1 100/105/1 97/106/1
f 74/107/6 62/108/6 78/85/6 84/100/6
f 62/108/6 64/109/6 79/8/6 78/85/6
f 64/109/6 76/110/6 81/92/6 79/8/6
f 76/110/6 74/107/6 84/100/6 81/92/6
f 80/103/6 66/111/6 87/93/6 81/92/6
f 66/111/6 68/112/6 86/99/6 87/93/6
f 68/112/6 77/104/6 84/100/6 86/99/6
f 77/104/6 80/103/6 81/92/6 84/100/6
f 72/95/6 83/113/6 86/99/6 92/87/6
f 83/113/6 82/114/6 87/93/6 86/99/6
f 82/114/6 70/96/6 89/94/6 87/93/6
f 70/96/6 72/95/6 92/87/6 89/94/6
f 88/88/6 60/115/6 90/86/6 89/94/6
f 60/115/6 58/101/6 91/77/6 90/86/6
f 58/101/6 85/89/6 92/87/6 91/77/6
f 85/89/6 88/88/6 89/94/6 92/87/6
f 105/91/4 108/90/4 124/116/4 121/117/4
f 94/118/3 93/119/3 109/120/3 110/121/3
f 97/106/4 100/105/4 116/122/4 113/123/4
f 108/90/3 107/102/3 123/124/3 124/116/3
f 62/108/2 74/107/2 93/119/2 94/118/2
f 66/111/3 80/103/3 97/106/3 98/125/3
f 64/109/1 62/108/1 94/118/1 95/126/1
f 83/113/2 72/95/2 101/98/2 102/127/2
f 68/112/4 66/111/4 98/125/4 99/128/4
f 60/115/3 88/88/3 105/91/3 106/129/3
f 76/110/3 64/109/3 95/126/3 96/130/3
f 82/114/1 83/113/1 102/127/1 103/131/1
f 77/104/2 68/112/2 99/128/2 100/105/2
f 58/101/4 60/115/4 106/129/4 107/102/4
f 74/107/4 76/110/4 96/130/4 93/119/4
f 70/96/3 82/114/3 103/131/3 104/97/3
f 109/120/8 112/132/8 111/133/8 110/121/8
f 117/134/8 120/135/8 119/136/8 118/137/8
f 123/124/8 122/138/8 121/117/8 124/116/8
f 115/139/8 114/140/8 113/123/8 116/122/8
f 102/127/3 101/98/3 117/134/3 118/137/3
f 95/126/4 94/118/4 110/121/4 111/133/4
f 103/131/4 102/127/4 118/137/4 119/136/4
f 96/130/2 95/126/2 111/133/2 112/132/2
f 104/97/2 103/131/2 119/136/2 120/135/2
f 93/119/1 96/130/1 112/132/1 109/120/1
f 101/98/1 104/97/1 120/135/1 117/134/1
f 98/125/2 97/106/2 113/123/2 114/140/2
f 106/129/2 105/91/2 121/117/2 122/138/2
f 99/128/1 98/125/1 114/140/1 115/139/1
f 107/102/1 106/129/1 122/138/1 123/124/1
f 100/105/3 99/128/3 115/139/3 116/122/3
