# Blender v2.82 (sub 7) OBJ File: 'Milk.blend'
# www.blender.org
mtllib Milk.mtl
o Cube_Cube.001
v -0.252012 -0.252012 0.252012
v -0.252012 0.598942 0.252012
v -0.252012 -0.252012 -0.408661
v -0.252012 0.598942 -0.408661
v 0.252012 -0.252012 0.252012
v 0.252012 0.598942 0.252012
v 0.252012 -0.252012 -0.408661
v 0.252012 0.598942 -0.408661
v 0.000000 -0.252012 -0.408661
v 0.000000 0.768245 -0.408661
v 0.000000 -0.252012 0.252012
v 0.000000 0.768245 0.252012
v -0.252012 0.598942 0.252012
v -0.252012 0.598942 -0.408661
v 0.252012 0.598942 -0.408661
v 0.252012 0.598942 0.252012
v 0.000000 0.598942 0.252012
v 0.000000 0.598942 -0.408661
v -0.252012 0.598942 -0.408661
v 0.252012 0.598942 -0.408661
v 0.252012 0.598942 0.252012
v 0.000000 0.598942 0.252012
v 0.000000 0.598942 -0.408661
v -0.252012 0.598942 0.252012
vt 0.053599 0.156699
vt 0.053599 0.156699
vt 0.053599 0.170146
vt 0.053599 0.170146
vt 0.182505 0.926870
vt 0.182505 0.926870
vt 0.182505 0.933594
vt 0.182505 0.933594
vt 0.053599 0.183594
vt 0.053599 0.183594
vt 0.053599 0.197041
vt 0.053599 0.197041
vt 0.182505 0.910796
vt 0.182505 0.910796
vt 0.182505 0.917520
vt 0.182505 0.917520
vt 0.033428 0.183594
vt 0.040151 0.183594
vt 0.040151 0.197041
vt 0.033428 0.197041
vt 0.068135 0.175781
vt 0.074859 0.175781
vt 0.074859 0.189229
vt 0.068135 0.189229
vt 0.061411 0.175781
vt 0.061411 0.189229
vt 0.026704 0.183594
vt 0.026704 0.197041
vt 0.182505 0.904073
vt 0.182505 0.904073
vt 0.182505 0.920146
vt 0.182505 0.920146
vt 0.053599 0.170146
vt 0.053599 0.176870
vt 0.053599 0.176870
vt 0.053599 0.197041
vt 0.053599 0.203765
vt 0.053599 0.203765
vt 0.053599 0.210489
vt 0.053599 0.210489
vt 0.053599 0.183594
vt 0.053599 0.156699
vt 0.047964 0.148886
vt 0.061411 0.148886
vt 0.061411 0.162334
vt 0.047964 0.162334
vt 0.047964 0.169058
vt 0.061411 0.169058
vt 0.061411 0.175781
vt 0.047964 0.175781
vt 0.061411 0.189229
vt 0.047964 0.189229
vt 0.047964 0.195952
vt 0.061411 0.195952
vt 0.061411 0.202676
vt 0.047964 0.202676
vn 0.0000 0.0000 1.0000
vn 0.0000 0.0000 -1.0000
vn 0.0000 -1.0000 0.0000
vn -0.5576 0.8301 0.0000
vn 0.5576 0.8301 0.0000
vn -1.0000 0.0000 0.0000
vn 1.0000 0.0000 0.0000
usemtl Material.002
s off
f 13/1/1 2/2/1 4/3/1 14/4/1
f 18/5/2 10/6/2 8/7/2 15/8/2
f 15/9/1 8/10/1 6/11/1 16/12/1
f 17/13/1 12/14/1 2/15/1 13/16/1
f 9/17/3 7/18/3 5/19/3 11/20/3
f 10/21/4 4/22/4 2/23/4 12/24/4
f 8/25/5 10/21/5 12/24/5 6/26/5
f 3/27/3 9/17/3 11/20/3 1/28/3
f 16/29/1 6/30/1 12/14/1 17/13/1
f 14/31/2 4/32/2 10/6/2 18/5/2
f 19/33/1 14/4/1 18/34/1 23/35/1
f 21/36/1 16/12/1 17/37/1 22/38/1
f 22/38/1 17/37/1 13/39/1 24/40/1
f 20/41/1 15/9/1 16/12/1 21/36/1
f 23/35/1 18/34/1 15/9/1 20/41/1
f 24/42/1 13/1/1 14/4/1 19/33/1
f 1/43/6 24/44/6 19/45/6 3/46/6
f 9/47/2 23/48/2 20/49/2 7/50/2
f 7/50/7 20/49/7 21/51/7 5/52/7
f 11/53/1 22/54/1 24/55/1 1/56/1
f 5/52/1 21/51/1 22/54/1 11/53/1
f 3/46/2 19/45/2 23/48/2 9/47/2
