# Blender v2.82 (sub 7) OBJ File: 'Plant.blend'
# www.blender.org
mtllib Plant.mtl
o Cube
v 1.080112 2.487640 -1.080112
v 1.000000 -1.000000 -1.000000
v 1.080112 2.487640 1.080112
v 1.000000 -1.000000 1.000000
v -1.080112 2.487640 -1.080112
v -1.000000 -1.000000 -1.000000
v -1.080112 2.487640 1.080112
v -1.000000 -1.000000 1.000000
v 1.266127 2.487640 1.266127
v -1.266127 2.487640 1.266127
v 1.266127 2.487640 -1.266127
v -1.266127 2.487640 -1.266127
v 0.233577 1.877517 0.233577
v -0.233577 1.877517 0.233577
v 0.233577 1.877517 -0.233577
v -0.233577 1.877517 -0.233577
v 1.080112 1.877517 1.080112
v -1.080112 1.877517 1.080112
v 1.080112 1.877517 -1.080112
v -1.080112 1.877517 -1.080112
v 0.875914 3.172384 0.875914
v -0.875914 3.172384 0.875914
v 0.875914 3.172384 -0.875914
v -0.875914 3.172384 -0.875914
v 0.875914 5.903560 0.875914
v -0.875914 5.903560 0.875914
v 0.875914 5.903560 -0.875914
v -0.875914 5.903560 -0.875914
v -0.233577 3.172384 -0.233577
v 0.233577 3.172384 -0.233577
v 0.233577 3.172384 0.233577
v -0.233577 3.172384 0.233577
v 1.245563 2.218141 -1.245563
v -1.245563 2.218141 1.245563
v 1.245563 2.218141 1.245563
v -1.245563 2.218141 -1.245563
v -1.266127 2.483836 -1.315982
v 1.266127 2.483836 -1.315982
v 1.245563 2.214336 -1.295418
v -1.245563 2.214336 -1.295418
v -1.245563 2.214336 1.295418
v -1.266127 2.483836 1.315982
v 1.266127 2.483836 1.315982
v 1.245563 2.214336 1.295418
v 1.315984 2.483850 -1.266127
v 1.315984 2.483850 1.266127
v 1.295419 2.214351 -1.245563
v 1.295419 2.214351 1.245563
v 1.315984 2.480046 -1.315982
v 1.295419 2.210547 -1.295418
v 1.315984 2.480046 1.315982
v 1.295419 2.210547 1.295418
v -1.295419 2.214351 1.245563
v -1.315984 2.483850 1.266127
v -1.315984 2.483850 -1.266127
v -1.295419 2.214351 -1.245563
v -1.315984 2.480046 -1.315982
v -1.295419 2.210547 -1.295418
v -1.295419 2.210547 1.295418
v -1.315984 2.480046 1.315982
vt 0.305650 0.688958
vt 0.305650 0.705885
vt 0.305650 0.705885
vt 0.305650 0.688958
vt 0.287265 0.707343
vt 0.307107 0.707343
vt 0.307107 0.707343
vt 0.287265 0.707343
vt 0.314609 0.667657
vt 0.313075 0.667657
vt 0.313075 0.667657
vt 0.314609 0.667657
vt 0.294455 0.671875
vt 0.314297 0.671875
vt 0.314297 0.691718
vt 0.294455 0.691718
vt 0.313075 0.687500
vt 0.313075 0.687500
vt 0.313075 0.687500
vt 0.313075 0.687500
vt 0.313075 0.667657
vt 0.288723 0.705885
vt 0.288723 0.688958
vt 0.287265 0.687500
vt 0.307107 0.687500
vt 0.666450 0.808872
vt 0.670110 0.808872
vt 0.670110 0.808872
vt 0.666450 0.808872
vt 0.288723 0.705885
vt 0.312160 0.669426
vt 0.329087 0.669426
vt 0.329087 0.669426
vt 0.312160 0.669426
vt 0.288723 0.688958
vt 0.775825 0.437533
vt 0.779485 0.437533
vt 0.786119 0.444166
vt 0.769191 0.444166
vt 0.775825 0.433872
vt 0.769191 0.427239
vt 0.779485 0.433872
vt 0.786119 0.427239
vt 0.670110 0.812533
vt 0.670110 0.812533
vt 0.670110 0.808872
vt 0.666450 0.812533
vt 0.666450 0.812533
vt 0.670110 0.812533
vt 0.666450 0.808872
vt 0.666450 0.812533
vt 0.564642 0.441439
vt 0.560981 0.441439
vt 0.560981 0.441439
vt 0.564642 0.441439
vt 0.564642 0.437779
vt 0.564642 0.437779
vt 0.560981 0.437779
vt 0.560981 0.437779
vt 0.294766 0.667657
vt 0.294766 0.687500
vt 0.313075 0.707343
vt 0.294766 0.707343
vt 0.294766 0.647815
vt 0.313075 0.647815
vt 0.313075 0.727185
vt 0.294766 0.727185
vt 0.314609 0.687500
vt 0.287265 0.707343
vt 0.287265 0.687500
vt 0.287265 0.687500
vt 0.307107 0.687500
vt 0.313075 0.667657
vt 0.313075 0.707343
vt 0.314609 0.707343
vt 0.314609 0.727185
vt 0.313075 0.727185
vt 0.287265 0.707343
vt 0.313075 0.727185
vt 0.313075 0.727185
vt 0.314609 0.687500
vt 0.314609 0.707343
vt 0.313075 0.707343
vt 0.314609 0.687500
vt 0.314609 0.707343
vt 0.313075 0.707343
vt 0.287265 0.687500
vt 0.313075 0.647815
vt 0.314609 0.647815
vt 0.314609 0.667657
vt 0.313075 0.647815
vt 0.314609 0.647815
vt 0.307107 0.687500
vt 0.307107 0.687500
vt 0.307107 0.707343
vt 0.307107 0.707343
vt 0.314609 0.727185
vn 1.0000 0.0000 0.0000
vn 0.0000 0.9971 0.0761
vn 0.0058 -0.0756 -0.9971
vn 0.0000 -1.0000 0.0000
vn -0.0756 -0.9942 0.0759
vn 0.0000 -0.9971 0.0761
vn 0.0000 1.0000 -0.0000
vn 0.0000 0.0000 -1.0000
vn 0.0000 0.0000 1.0000
vn -1.0000 0.0000 0.0000
vn 0.0000 -0.0761 -0.9971
vn 0.9971 -0.0761 0.0000
vn -0.9971 -0.0761 0.0000
vn 0.0000 -0.0761 0.9971
vn 0.0758 0.9971 0.0000
vn 0.0000 0.9971 -0.0761
vn 0.0756 -0.9942 0.0759
vn 0.0756 0.9942 0.0759
vn 0.0756 -0.9942 -0.0759
vn 0.0000 -0.9971 -0.0761
vn 0.9971 -0.0756 0.0058
vn 0.9971 -0.0756 -0.0058
vn -0.0756 -0.9942 -0.0759
vn -0.0058 -0.0756 -0.9971
vn -0.0058 -0.0756 0.9971
vn -0.0758 -0.9971 0.0000
vn 0.0756 0.9942 -0.0759
vn -0.9971 -0.0756 0.0058
vn -0.9971 -0.0756 -0.0058
vn 0.0758 -0.9971 0.0000
vn -0.0756 0.9942 -0.0759
vn -0.0758 0.9971 0.0000
vn -0.0756 0.9942 0.0759
vn 0.0058 -0.0756 0.9971
usemtl Material
s off
f 5/1/1 7/2/1 18/3/1 20/4/1
f 9/5/2 10/6/2 42/7/2 43/8/2
f 37/9/3 40/10/3 58/11/3 57/12/3
f 6/13/4 2/14/4 4/15/4 8/16/4
f 33/17/5 39/18/5 50/19/5 47/20/5
f 33/17/6 36/21/6 40/10/6 39/18/6
f 3/22/7 7/2/7 10/6/7 9/5/7
f 1/23/7 3/22/7 9/5/7 11/24/7
f 7/2/7 5/1/7 12/25/7 10/6/7
f 5/1/7 1/23/7 11/24/7 12/25/7
f 30/26/4 29/27/4 24/28/4 23/29/4
f 7/2/8 3/22/8 17/30/8 18/3/8
f 1/31/9 5/32/9 20/33/9 19/34/9
f 3/22/10 1/23/10 19/35/10 17/30/10
f 13/36/7 14/37/7 18/38/7 17/39/7
f 15/40/7 13/36/7 17/39/7 19/41/7
f 14/37/7 16/42/7 20/43/7 18/38/7
f 16/42/7 15/40/7 19/41/7 20/43/7
f 24/28/10 22/44/10 26/45/10 28/46/10
f 31/47/4 30/26/4 23/29/4 21/48/4
f 29/27/4 32/49/4 22/44/4 24/28/4
f 32/49/4 31/47/4 21/48/4 22/44/4
f 27/50/7 28/46/7 26/45/7 25/51/7
f 22/44/9 21/48/9 25/51/9 26/45/9
f 23/29/8 24/28/8 28/46/8 27/50/8
f 21/48/1 23/29/1 27/50/1 25/51/1
f 14/52/9 13/53/9 31/54/9 32/55/9
f 16/56/10 14/52/10 32/55/10 29/57/10
f 13/53/1 15/58/1 30/59/1 31/54/1
f 15/58/8 16/56/8 29/57/8 30/59/8
f 6/60/11 36/21/11 33/17/11 2/61/11
f 2/61/12 33/17/12 35/62/12 4/63/12
f 8/64/13 34/65/13 36/21/13 6/60/13
f 4/63/14 35/62/14 34/66/14 8/67/14
f 40/10/11 37/9/11 38/68/11 39/18/11
f 11/24/15 9/5/15 46/69/15 45/70/15
f 12/25/16 11/24/16 38/71/16 37/72/16
f 40/10/17 36/21/17 56/73/17 58/11/17
f 44/74/14 43/75/14 42/76/14 41/77/14
f 9/5/18 43/8/18 51/78/18 46/69/18
f 34/66/19 41/77/19 59/79/19 53/80/19
f 34/66/20 35/62/20 44/74/20 41/77/20
f 47/20/12 45/81/12 46/82/12 48/83/12
f 45/81/21 47/20/21 50/19/21 49/84/21
f 48/83/22 46/82/22 51/85/22 52/86/22
f 44/74/23 35/62/23 48/83/23 52/86/23
f 39/18/24 38/68/24 49/84/24 50/19/24
f 43/75/25 44/74/25 52/86/25 51/85/25
f 35/62/26 33/17/26 47/20/26 48/83/26
f 38/71/27 11/24/27 45/70/27 49/87/27
f 53/88/13 54/89/13 55/90/13 56/73/13
f 56/73/28 55/90/28 57/12/28 58/11/28
f 54/89/29 53/88/29 59/91/29 60/92/29
f 36/21/30 34/65/30 53/88/30 56/73/30
f 12/25/31 37/72/31 57/93/31 55/94/31
f 10/6/32 12/25/32 55/94/32 54/95/32
f 42/7/33 10/6/33 54/95/33 60/96/33
f 41/77/34 42/76/34 60/97/34 59/79/34
