# Blender v2.82 (sub 7) OBJ File: 'PoleLint.blend'
# www.blender.org
mtllib PoleLint.mtl
o Cube
v 0.400000 0.434808 -0.400000
v 1.000000 0.184808 -1.000000
v 0.400000 0.434808 0.400000
v 1.000000 0.184808 1.000000
v -0.400000 0.434808 -0.400000
v -1.000000 0.184808 -1.000000
v -0.400000 0.434808 0.400000
v -1.000000 0.184808 1.000000
v 1.000000 0.434808 1.000000
v -1.000000 0.434808 1.000000
v 1.000000 0.434808 -1.000000
v -1.000000 0.434808 -1.000000
v 0.400000 8.677525 0.400000
v -0.400000 8.677525 0.400000
v 0.400000 8.677525 -0.400000
v -0.400000 8.677525 -0.400000
v 0.000000 0.184808 -1.000000
v 0.000000 0.434808 1.000000
v 0.000000 0.184808 1.000000
v 0.000000 0.434808 -1.000000
v 0.000000 0.434808 0.400000
v 0.000000 0.434808 -0.400000
v 0.000000 8.677525 0.400000
v 0.000000 8.677525 -0.400000
v 0.400000 6.480168 0.400000
v -0.400000 6.480168 0.400000
v -0.400000 6.480168 -0.400000
v 0.400000 6.480168 -0.400000
v 0.000000 6.480168 -0.400000
v 0.000000 6.480168 0.400000
v 0.400000 7.578846 0.400000
v -0.400000 7.578846 -0.400000
v 0.000000 7.578846 -0.400000
v 0.000000 7.578846 0.400000
v -0.400000 7.578846 0.400000
v 0.400000 7.578846 -0.400000
v 0.000000 6.480168 -10.400000
v 0.000000 7.578846 -10.400000
vt 0.592303 0.934339
vt 0.589858 0.934339
vt 0.589858 0.934339
vt 0.592303 0.934339
vt 0.573966 0.944118
vt 0.586191 0.944118
vt 0.586191 0.950231
vt 0.573966 0.950231
vt 0.573966 0.901332
vt 0.586191 0.901332
vt 0.586191 0.913556
vt 0.573966 0.913556
vt 0.567853 0.925781
vt 0.573966 0.925781
vt 0.573966 0.938006
vt 0.567853 0.938006
vt 0.586191 0.925781
vt 0.586191 0.938006
vt 0.573966 0.919669
vt 0.586191 0.919669
vt 0.592303 0.934339
vt 0.594748 0.934339
vt 0.598415 0.938006
vt 0.592303 0.938006
vt 0.589858 0.929449
vt 0.589858 0.934339
vt 0.594748 0.929449
vt 0.598415 0.925781
vt 0.592303 0.929449
vt 0.592303 0.925781
vt 0.592303 0.929449
vt 0.594748 0.929449
vt 0.594748 0.934339
vt 0.592303 0.929449
vt 0.594748 0.929449
vt 0.589858 0.929449
vt 0.589858 0.929449
vt 0.594748 0.934339
vt 0.561741 0.925781
vt 0.561741 0.938006
vt 0.592303 0.934339
vt 0.594748 0.934339
vt 0.592303 0.929449
vt 0.589858 0.929449
vt 0.594748 0.929449
vt 0.589858 0.934339
vt 0.309100 0.683355
vt 0.309100 0.683355
vt 0.309100 0.683355
vt 0.309100 0.683355
vn 0.0000 0.0000 1.0000
vn -1.0000 0.0000 0.0000
vn 0.0000 -1.0000 0.0000
vn 1.0000 0.0000 0.0000
vn 0.0000 0.0000 -1.0000
vn 0.0000 1.0000 0.0000
usemtl Material
s off
f 34/1/1 31/2/1 13/3/1 23/4/1
f 19/5/1 18/6/1 10/7/1 8/8/1
f 8/9/2 10/10/2 12/11/2 6/12/2
f 17/13/3 2/14/3 4/15/3 19/16/3
f 2/14/4 11/17/4 9/18/4 4/15/4
f 17/19/5 20/20/5 11/17/5 2/14/5
f 21/21/6 7/22/6 10/23/6 18/24/6
f 1/25/6 3/26/6 9/18/6 11/17/6
f 7/22/6 5/27/6 12/28/6 10/23/6
f 22/29/6 1/25/6 11/17/6 20/30/6
f 24/31/6 16/32/6 14/33/6 23/4/6
f 33/34/5 32/35/5 16/32/5 24/31/5
f 31/2/4 36/36/4 15/37/4 13/3/4
f 32/35/2 35/38/2 14/33/2 16/32/2
f 36/36/5 33/34/5 24/31/5 15/37/5
f 15/37/6 24/31/6 23/4/6 13/3/6
f 5/27/6 22/29/6 20/30/6 12/28/6
f 3/26/6 21/21/6 18/24/6 9/18/6
f 6/12/5 12/11/5 20/20/5 17/19/5
f 6/39/3 17/13/3 19/16/3 8/40/3
f 4/15/1 9/18/1 18/6/1 19/5/1
f 35/38/1 34/1/1 23/4/1 14/33/1
f 7/22/1 21/21/1 30/41/1 26/42/1
f 1/25/5 22/29/5 29/43/5 28/44/5
f 5/27/2 7/22/2 26/42/2 27/45/2
f 3/26/4 1/25/4 28/44/4 25/46/4
f 22/29/5 5/27/5 27/45/5 29/43/5
f 21/21/1 3/26/1 25/46/1 30/41/1
f 26/42/1 30/41/1 34/1/1 35/38/1
f 28/44/5 29/43/5 33/34/5 36/36/5
f 27/45/2 26/42/2 35/38/2 32/35/2
f 25/46/4 28/44/4 36/36/4 31/2/4
f 29/43/5 27/45/5 32/35/5 33/34/5
f 30/41/1 25/46/1 31/2/1 34/1/1
f 29/47/2 33/48/2 38/49/2 37/50/2
