# Blender v2.82 (sub 7) OBJ File: 'Rock.blend'
# www.blender.org
mtllib Rock.mtl
o Sphere.001_Sphere.003
v 0.520889 -0.671158 -0.501847
v 0.139796 1.049635 -0.459360
v -0.387784 0.892744 0.579560
v -0.038362 0.974202 -0.631530
v -1.037010 -0.395411 0.216532
v -0.563499 -0.834049 0.350153
v -0.996718 -0.034235 -0.588511
v -0.685219 0.075113 0.942477
v 0.198973 0.892685 -0.661262
v -0.320844 1.053522 0.024801
v -0.808406 -0.585848 0.605945
v -0.396804 0.185295 -1.007148
v -0.300804 0.748009 0.812850
v 0.654177 0.367016 0.735211
v -0.071921 -0.414536 1.002689
v 0.033741 0.811374 0.758597
v 0.836981 -0.544378 0.778601
v 0.952899 0.492783 -0.143310
v 0.901580 -0.673606 0.332395
v -0.376673 -0.499982 1.012425
v 0.849505 0.579727 0.436692
v -0.096359 -0.917328 -0.575861
v -0.556494 -0.920298 -0.412898
v 0.275571 -0.916085 0.058999
v 0.713580 -0.710266 0.586864
v 0.692321 -0.813195 0.006120
v 1.014757 -0.513640 -0.015446
v 0.159604 -0.248446 -1.054979
v -0.371330 -0.672224 0.941267
v -0.828770 -0.794738 0.035520
v -0.298646 0.505300 -0.976683
v -0.445730 0.730806 -0.543326
v -0.993573 -0.077866 0.211953
v 0.493464 0.869338 -0.170438
v 0.799883 -0.321319 -0.488291
v -0.836278 -0.662024 -0.486850
v -1.006332 -0.240209 -0.590530
v -0.656095 0.255519 0.874503
v -0.225901 0.966111 0.616133
v 0.870964 0.416878 0.614697
v 1.046450 0.529506 0.116945
v 0.313036 -0.107961 -1.020470
v -0.007439 0.470846 -1.040701
v 1.101443 -0.027039 -0.151509
v -0.411511 -0.826360 -0.648268
vt 0.682086 0.936319
vt 0.682086 0.936319
vt 0.682086 0.936319
vt 0.682086 0.936319
vt 0.682086 0.936319
vt 0.682086 0.936319
vt 0.682086 0.936319
vt 0.682086 0.936319
vt 0.682086 0.936319
vt 0.682086 0.936319
vt 0.682086 0.936319
vt 0.682086 0.936319
vt 0.682086 0.936319
vt 0.682086 0.936319
vt 0.682086 0.936319
vt 0.682086 0.936319
vt 0.682086 0.936319
vt 0.682086 0.936319
vt 0.682086 0.936319
vt 0.682086 0.936319
vt 0.682086 0.936319
vt 0.682086 0.936319
vt 0.682086 0.936319
vt 0.682086 0.936319
vt 0.682086 0.936319
vt 0.682086 0.936318
vt 0.682086 0.936319
vt 0.682086 0.936319
vt 0.682086 0.936319
vt 0.682086 0.936319
vt 0.682086 0.936319
vt 0.682086 0.936319
vt 0.682086 0.936319
vt 0.682086 0.936319
vt 0.682086 0.936319
vt 0.682086 0.936319
vt 0.682086 0.936319
vt 0.682086 0.936319
vt 0.682086 0.936319
vt 0.682086 0.936319
vt 0.682086 0.936319
vt 0.682086 0.936319
vt 0.682086 0.936319
vt 0.682086 0.936319
vt 0.682086 0.936319
vn -0.9062 0.2692 0.3261
vn -0.4438 -0.8171 0.3680
vn -0.3792 0.3792 0.8440
vn 0.4364 0.5729 0.6938
vn 0.2512 0.0962 0.9631
vn -0.2674 -0.9578 0.1058
vn -0.6410 -0.7460 -0.1803
vn -0.9229 0.1315 0.3620
vn 0.4579 0.1337 0.8789
vn 0.2046 0.8010 -0.5627
vn -0.4755 -0.6762 -0.5628
vn 0.0168 -0.5865 -0.8098
vn 0.1639 -0.4049 0.8995
vn -0.9121 -0.3949 -0.1106
vn 0.1377 0.9828 0.1232
vn 0.5617 -0.7694 0.3042
vn -0.5171 0.6747 -0.5266
vn -0.1950 0.1521 -0.9689
vn 0.1627 -0.7956 0.5836
vn -0.4406 0.6800 0.5861
vn -0.2072 0.9566 -0.2048
vn 0.6311 0.3248 -0.7044
vn 0.4614 0.8750 0.1468
vn 0.1920 0.7355 0.6497
vn 0.5711 -0.4283 -0.7003
vn -0.4536 -0.3809 -0.8057
vn -0.8997 -0.4260 -0.0953
vn -0.0024 -0.9643 0.2648
vn -0.9985 0.0469 -0.0289
vn -0.6147 0.2595 -0.7448
vn -0.0858 -0.0001 -0.9963
vn 0.3353 -0.6300 -0.7005
vn -0.0019 0.1198 0.9928
vn -0.8194 -0.5282 0.2227
vn 0.3242 0.9282 0.1823
vn 0.1337 0.1349 0.9818
vn -0.6159 -0.3170 0.7212
vn 0.3786 -0.9136 0.1481
vn 0.1541 0.1887 0.9699
vn 0.1206 0.6306 -0.7667
vn -0.0069 0.6711 0.7414
vn 0.1678 0.0585 -0.9841
vn 0.0059 -1.0000 -0.0015
vn -0.0583 -0.9920 0.1116
vn 0.2223 -0.9665 -0.1284
vn 0.0688 -0.9475 0.3123
vn -0.5359 0.7793 -0.3248
vn -0.3205 -0.3126 -0.8942
vn 0.2557 -0.9535 0.1596
vn 0.1344 -0.3748 0.9173
vn -0.6361 -0.2526 0.7290
vn -0.8761 -0.0789 0.4757
vn -0.6344 0.5283 0.5643
vn 0.0376 0.1683 0.9850
vn -0.8568 0.5147 0.0314
vn 0.5643 -0.4456 -0.6949
vn -0.9907 0.1357 0.0113
vn 0.6777 -0.5203 -0.5196
vn -0.0966 0.6242 -0.7752
vn -0.8552 0.5162 0.0464
vn -0.7971 0.5833 -0.1561
vn -0.4416 0.8746 0.2002
vn 0.6401 0.1946 -0.7432
vn -0.8632 0.4599 0.2083
vn 0.6716 -0.7314 -0.1178
vn 0.7569 0.1292 -0.6406
vn 0.3823 -0.8484 -0.3662
vn -0.3840 -0.3037 -0.8720
vn 0.8242 -0.2838 -0.4900
vn 0.6101 -0.6854 -0.3975
vn 0.6115 0.7229 -0.3218
vn 0.6359 0.6885 -0.3488
vn 0.9705 -0.1134 0.2129
vn 0.9517 -0.2293 0.2042
vn -0.5805 0.0351 -0.8135
vn 0.9411 0.0242 0.3373
vn 0.8959 0.2617 -0.3590
vn 0.9656 -0.0292 0.2583
vn -0.1522 -0.8821 -0.4458
vn 0.3621 0.9059 0.2197
vn 0.3662 0.8835 0.2922
vn 0.7602 0.5224 0.3862
vn 0.6462 0.3220 -0.6919
vn -0.6858 0.5238 -0.5053
vn 0.6097 0.7200 -0.3316
vn -0.4933 -0.8110 0.3146
usemtl Material.001
s off
f 8/1/1 38/2/1 33/3/1
f 6/4/2 29/5/2 11/6/2
f 13/7/3 38/2/3 8/1/3
f 21/8/4 16/9/4 14/10/4
f 17/11/5 14/10/5 15/12/5
f 23/13/6 6/4/6 30/14/6
f 36/15/7 23/13/7 30/14/7
f 33/3/8 5/16/8 8/1/8
f 17/11/9 40/17/9 14/10/9
f 9/18/10 4/19/10 2/20/10
f 23/13/11 36/15/11 45/21/11
f 45/21/12 28/22/12 22/23/12
f 15/12/13 29/5/13 17/11/13
f 36/15/14 5/16/14 37/24/14
f 10/25/15 39/26/15 2/20/15
f 17/11/16 25/27/16 19/28/16
f 4/19/17 31/29/17 32/30/17
f 43/31/18 12/32/18 31/29/18
f 25/27/19 17/11/19 29/5/19
f 13/7/20 39/26/20 3/33/20
f 10/25/21 2/20/21 4/19/21
f 43/31/22 9/18/22 42/34/22
f 41/35/23 34/36/23 21/8/23
f 21/8/24 14/10/24 40/17/24
f 1/37/25 28/22/25 35/38/25
f 37/24/26 45/21/26 36/15/26
f 36/15/27 30/14/27 5/16/27
f 24/39/28 29/5/28 6/4/28
f 37/24/29 5/16/29 7/40/29
f 31/29/30 12/32/30 7/40/30
f 28/22/31 12/32/31 43/31/31
f 22/23/32 28/22/32 1/37/32
f 8/1/33 20/41/33 15/12/33
f 30/14/34 11/6/34 5/16/34
f 2/20/35 39/26/35 34/36/35
f 13/7/36 14/10/36 16/9/36
f 11/6/37 29/5/37 20/41/37
f 25/27/38 26/42/38 19/28/38
f 15/12/39 14/10/39 13/7/39
f 43/31/40 4/19/40 9/18/40
f 39/26/41 13/7/41 16/9/41
f 43/31/42 42/34/42 28/22/42
f 24/39/43 23/13/43 22/23/43
f 24/39/44 6/4/44 23/13/44
f 24/39/45 22/23/45 26/42/45
f 29/5/46 24/39/46 25/27/46
f 32/30/47 10/25/47 4/19/47
f 28/22/48 45/21/48 12/32/48
f 26/42/49 25/27/49 24/39/49
f 15/12/50 20/41/50 29/5/50
f 8/1/51 11/6/51 20/41/51
f 11/6/52 8/1/52 5/16/52
f 3/33/53 38/2/53 13/7/53
f 8/1/54 15/12/54 13/7/54
f 10/25/55 7/40/55 33/3/55
f 28/22/56 42/34/56 35/38/56
f 7/40/57 5/16/57 33/3/57
f 27/43/58 1/37/58 35/38/58
f 43/31/59 31/29/59 4/19/59
f 3/33/60 10/25/60 33/3/60
f 7/40/61 10/25/61 32/30/61
f 3/33/62 39/26/62 10/25/62
f 35/38/63 18/44/63 44/45/63
f 38/2/64 3/33/64 33/3/64
f 27/43/65 19/28/65 26/42/65
f 35/38/66 42/34/66 18/44/66
f 1/37/67 26/42/67 22/23/67
f 37/24/68 12/32/68 45/21/68
f 35/38/69 44/45/69 27/43/69
f 26/42/70 1/37/70 27/43/70
f 34/36/71 41/35/71 18/44/71
f 9/18/72 2/20/72 34/36/72
f 27/43/73 44/45/73 17/11/73
f 17/11/74 19/28/74 27/43/74
f 12/32/75 37/24/75 7/40/75
f 40/17/76 17/11/76 41/35/76
f 41/35/77 44/45/77 18/44/77
f 44/45/78 41/35/78 17/11/78
f 45/21/79 22/23/79 23/13/79
f 21/8/80 34/36/80 39/26/80
f 21/8/81 39/26/81 16/9/81
f 40/17/82 41/35/82 21/8/82
f 18/44/83 42/34/83 9/18/83
f 32/30/84 31/29/84 7/40/84
f 34/36/85 18/44/85 9/18/85
f 6/4/86 11/6/86 30/14/86
