# Blender v2.82 (sub 7) OBJ File: 'Table.blend'
# www.blender.org
mtllib Table.mtl
o Cube
v 1.000000 2.815390 -1.000000
v 1.000000 2.641973 -1.000000
v 1.000000 2.815390 2.972418
v 1.000000 2.641973 2.972418
v -1.541258 2.815390 -1.000000
v -1.541258 2.641973 -1.000000
v -1.541258 2.815390 2.972418
v -1.541258 2.641973 2.972418
v -1.541258 2.641973 2.873107
v -1.541258 2.815390 2.873107
v 1.000000 2.641973 2.873107
v -1.541258 2.815390 -0.903172
v 1.000000 2.641973 -0.903172
v -1.541258 2.641973 -0.903172
v -1.541258 2.641973 -0.714358
v -1.541258 2.815390 -0.714358
v 1.000000 2.641973 -0.714358
v -1.541258 2.641973 2.693734
v -1.541258 2.815390 2.693734
v 1.000000 2.641973 2.693734
v 0.974489 2.541974 2.873107
v 0.974489 2.541974 2.693734
v 0.974489 2.541974 -0.714358
v 0.974489 2.541974 -0.903172
v -1.058419 2.815390 -1.000000
v -1.058419 2.641973 2.972418
v -1.287132 2.641973 -1.000000
v -1.287132 2.815390 2.972418
v -1.287132 2.641973 2.972418
v -1.287132 2.815390 -1.000000
v -1.287132 2.641973 2.873107
v -1.287132 2.641973 -0.903172
v -1.287132 2.641973 -0.714358
v -1.287132 2.641973 2.693734
v -1.287132 2.541974 2.873107
v -1.287132 2.541974 2.693734
v -1.287132 2.541974 -0.903172
v -1.287132 2.541974 -0.714358
v -1.058419 2.641973 -1.000000
v -1.058419 2.815390 2.972418
v -1.058419 2.641973 2.873107
v -1.058419 2.641973 -0.903172
v -1.058419 2.641973 -0.714358
v -1.058419 2.641973 2.693734
v -1.058419 2.541974 2.873107
v -1.058419 2.541974 2.693734
v -1.058419 2.541974 -0.903172
v -1.058419 2.541974 -0.714358
v -1.058419 0.541974 2.973107
v -1.287132 0.541974 2.973107
v -1.058419 0.541974 2.793734
v -1.287132 0.541974 2.793734
v -1.058419 0.541974 -1.003172
v -1.287132 0.541974 -1.003172
v -1.058419 0.541974 -0.814358
v -1.287132 0.541974 -0.814358
v -1.287132 0.641974 2.788734
v -1.287132 0.641974 2.968107
v -1.058419 0.641974 2.788734
v -1.058419 0.641974 2.968107
v -1.287132 0.641974 -0.998172
v -1.287132 0.641974 -0.809358
v -1.058419 0.641974 -0.809358
v -1.058419 0.641974 -0.998172
v 0.941581 0.541974 2.693734
v 0.941581 0.541974 2.873107
v 0.941581 0.597647 2.688734
v 0.941581 0.597647 2.868107
v 0.941581 0.541974 -0.903172
v 0.941581 0.541974 -0.714358
v 0.941581 0.597647 -0.709358
v 0.941581 0.597647 -0.898172
v 1.038677 2.815390 -1.000000
v 1.038677 2.641973 -1.000000
v 1.038677 2.815390 2.972418
v 1.038677 2.641973 2.972418
v 1.038677 2.815390 2.873107
v 1.038677 2.641973 -0.903172
v 1.038677 2.815390 2.693734
v 1.038677 2.641973 2.873107
v 1.038677 2.641973 -0.714358
v 1.038677 2.815390 -0.903172
v 1.038677 2.815390 -0.714358
v 1.038677 2.641973 2.693734
vt 0.664465 0.556598
vt 0.669282 0.556598
vt 0.669282 0.556743
vt 0.664465 0.556743
vt 0.663930 0.556743
vt 0.663930 0.556598
vt 0.673825 0.954156
vt 0.700666 0.954156
vt 0.700666 0.954156
vt 0.673825 0.954156
vt 0.675228 0.551782
vt 0.675228 0.556598
vt 0.669282 0.551782
vt 0.669282 0.551246
vt 0.669282 0.550652
vt 0.675228 0.550652
vt 0.675228 0.551246
vt 0.670843 0.925727
vt 0.670843 0.924152
vt 0.670843 0.924152
vt 0.670843 0.924152
vt 0.670843 0.924152
vt 0.670843 0.925727
vt 0.670843 0.925727
vt 0.670843 0.925727
vt 0.673825 0.924152
vt 0.700666 0.924152
vt 0.700666 0.924152
vt 0.673825 0.924152
vt 0.664465 0.557026
vt 0.669282 0.557026
vt 0.669282 0.562127
vt 0.664465 0.562127
vt 0.700666 0.955652
vt 0.673825 0.955652
vt 0.675228 0.562396
vt 0.675228 0.562127
vt 0.675228 0.557026
vt 0.675228 0.556743
vt 0.675228 0.556598
vt 0.680044 0.556598
vt 0.680579 0.556598
vt 0.681174 0.556598
vt 0.681174 0.556743
vt 0.681174 0.557026
vt 0.681174 0.562127
vt 0.681174 0.562396
vt 0.681174 0.562544
vt 0.680579 0.562544
vt 0.680044 0.562544
vt 0.675228 0.562544
vt 0.675228 0.562544
vt 0.700666 0.955652
vt 0.700666 0.925727
vt 0.673825 0.925727
vt 0.700666 0.925727
vt 0.669282 0.562544
vt 0.669282 0.562544
vt 0.675228 0.567361
vt 0.675228 0.567896
vt 0.675228 0.568490
vt 0.669282 0.568490
vt 0.669282 0.567896
vt 0.669282 0.567361
vt 0.664465 0.562396
vt 0.669282 0.562396
vt 0.664465 0.562544
vt 0.663930 0.562544
vt 0.663930 0.562396
vt 0.669282 0.556598
vt 0.669282 0.556743
vt 0.669282 0.557026
vt 0.669282 0.562127
vt 0.669282 0.562396
vt 0.673825 0.955652
vt 0.673825 0.925727
vt 0.670843 0.955652
vt 0.670843 0.954156
vt 0.670843 0.954156
vt 0.670843 0.954156
vt 0.670843 0.954156
vt 0.670843 0.955652
vt 0.670843 0.955652
vt 0.670843 0.955652
vt 0.673825 0.954156
vt 0.673825 0.954156
vt 0.663930 0.557026
vt 0.663930 0.562127
vt 0.673825 0.955652
vt 0.673825 0.924152
vt 0.673825 0.924152
vt 0.673825 0.925727
vt 0.673825 0.925727
vt 0.673825 0.924152
vt 0.673825 0.925727
vt 0.673825 0.924152
vt 0.673825 0.925727
vt 0.673825 0.955652
vt 0.673825 0.954156
vt 0.673825 0.955652
vt 0.673825 0.955652
vt 0.673825 0.954156
vt 0.675228 0.550507
vt 0.669282 0.550507
vt 0.669282 0.550224
vt 0.669282 0.545123
vt 0.669282 0.544854
vt 0.669282 0.544706
vt 0.675228 0.544706
vt 0.675228 0.544854
vt 0.675228 0.545123
vt 0.675228 0.550224
vt 0.663336 0.562544
vt 0.663336 0.562396
vt 0.663336 0.562127
vt 0.663336 0.556743
vt 0.663336 0.556598
vn 0.0000 -1.0000 0.0000
vn 0.0000 0.0000 -1.0000
vn -1.0000 -0.0000 0.0000
vn 0.0000 1.0000 0.0000
vn 0.9690 -0.2472 0.0000
vn 0.0000 0.0000 1.0000
vn 0.0000 -0.0476 -0.9989
vn 0.0000 0.0476 -0.9989
vn 0.0222 0.9998 0.0000
vn 0.0000 -0.0476 0.9989
vn 0.0000 0.0476 0.9989
vn 1.0000 0.0000 0.0000
vn 0.0505 0.0640 0.9967
vn 0.0505 0.0640 -0.9967
vn -0.0505 -0.0640 -0.9967
vn -0.0505 -0.0640 0.9967
usemtl Material
s off
f 39/1/1 2/2/1 13/3/1 42/4/1 32/5/1 27/6/1
f 44/7/2 20/8/2 22/9/2 46/10/2
f 25/11/2 1/12/2 2/2/2 39/13/2 27/14/2 6/15/2 5/16/2 30/17/2
f 33/18/3 32/19/3 37/20/3 61/21/3 54/22/3 56/23/3 62/24/3 38/25/3
f 42/26/2 13/27/2 24/28/2 47/29/2
f 43/30/1 17/31/1 20/32/1 44/33/1
f 46/10/1 22/9/1 21/34/1 45/35/1
f 77/36/4 79/37/4 83/38/4 82/39/4 73/40/4 1/12/4 25/41/4 30/42/4 5/43/4 12/44/4 16/45/4 19/46/4 10/47/4 7/48/4 28/49/4 40/50/4 3/51/4 75/52/4
f 20/8/5 11/53/5 21/34/5 22/9/5
f 47/29/1 24/28/1 23/54/1 48/55/1
f 13/27/5 17/56/5 23/54/5 24/28/5
f 4/57/6 76/58/6 75/52/6 3/51/6 40/59/6 28/60/6 7/61/6 8/62/6 29/63/6 26/64/6
f 41/65/1 11/66/1 4/57/1 26/67/1 29/68/1 31/69/1
f 20/32/1 17/31/1 13/3/1 2/2/1 74/70/1 78/71/1 81/72/1 84/73/1 80/74/1 76/58/1 4/57/1 11/66/1
f 11/53/6 41/75/6 45/35/6 21/34/6
f 17/56/6 43/76/6 48/55/6 23/54/6
f 31/77/3 34/78/3 36/79/3 57/80/3 52/81/3 50/82/3 58/83/3 35/84/3
f 34/78/7 44/7/7 46/10/7 59/85/7 51/86/7 52/81/7 57/80/7 36/79/7
f 33/87/1 43/30/1 44/33/1 34/88/1
f 52/81/1 51/86/1 49/89/1 50/82/1
f 32/19/8 42/26/8 47/29/8 64/90/8 53/91/8 54/22/8 61/21/8 37/20/8
f 64/90/9 63/92/9 71/93/9 72/94/9
f 43/76/10 33/18/10 38/25/10 62/24/10 56/23/10 55/95/10 63/92/10 48/55/10
f 54/22/1 53/91/1 55/95/1 56/23/1
f 55/95/1 53/91/1 69/96/1 70/97/1
f 41/75/11 31/77/11 35/84/11 58/83/11 50/82/11 49/89/11 60/98/11 45/35/11
f 46/10/12 45/35/12 60/98/12 59/85/12
f 47/29/12 48/55/12 63/92/12 64/90/12
f 67/99/12 68/100/12 66/101/12 65/102/12
f 72/94/12 71/93/12 70/97/12 69/96/12
f 60/98/13 49/89/13 66/101/13 68/100/13
f 53/91/14 64/90/14 72/94/14 69/96/14
f 49/89/1 51/86/1 65/102/1 66/101/1
f 59/85/9 60/98/9 68/100/9 67/99/9
f 51/86/15 59/85/15 67/99/15 65/102/15
f 63/92/16 55/95/16 70/97/16 71/93/16
f 77/36/12 75/52/12 76/58/12 80/74/12 84/73/12 81/72/12 78/71/12 74/70/12 73/40/12 82/39/12 83/38/12 79/37/12
f 2/2/2 1/12/2 73/40/2 74/70/2
f 12/103/3 5/16/3 6/15/3 14/104/3 15/105/3 18/106/3 9/107/3 8/108/3 7/109/3 10/110/3 19/111/3 16/112/3
f 34/88/1 31/69/1 29/68/1 8/113/1 9/114/1 18/115/1 15/105/1 14/116/1 6/117/1 27/6/1 32/5/1 33/87/1
