# Blender v2.82 (sub 7) OBJ File: 'Table.blend'
# www.blender.org
mtllib Table.mtl
o Cube
v 1.000000 2.815390 -1.000000
v 1.000000 2.641973 -1.000000
v 1.000000 2.815390 2.972418
v 1.000000 2.641973 2.972418
v -1.541258 2.815390 -1.000000
v -1.541258 2.641973 -1.000000
v -1.541258 2.815390 2.972418
v -1.541258 2.641973 2.972418
v -1.541258 2.641973 2.873107
v -1.541258 2.815390 2.873107
v 1.000000 2.641973 2.873107
v -1.541258 2.815390 -0.903172
v 1.000000 2.641973 -0.903172
v -1.541258 2.641973 -0.903172
v -1.541258 2.641973 -0.714358
v -1.541258 2.815390 -0.714358
v 1.000000 2.641973 -0.714358
v -1.541258 2.641973 2.693734
v -1.541258 2.815390 2.693734
v 1.000000 2.641973 2.693734
v 0.974489 2.541974 2.873107
v 0.974489 2.541974 2.693734
v 0.974489 2.541974 -0.714358
v 0.974489 2.541974 -0.903172
v -1.058419 2.815390 -1.000000
v -1.058419 2.641973 2.972418
v -1.287132 2.641973 -1.000000
v -1.287132 2.815390 2.972418
v -1.287132 2.641973 2.972418
v -1.287132 2.815390 -1.000000
v -1.287132 2.641973 2.873107
v -1.287132 2.641973 -0.903172
v -1.287132 2.641973 -0.714358
v -1.287132 2.641973 2.693734
v -1.287132 2.541974 2.873107
v -1.287132 2.541974 2.693734
v -1.287132 2.541974 -0.903172
v -1.287132 2.541974 -0.714358
v -1.058419 2.641973 -1.000000
v -1.058419 2.815390 2.972418
v -1.058419 2.641973 2.873107
v -1.058419 2.641973 -0.903172
v -1.058419 2.641973 -0.714358
v -1.058419 2.641973 2.693734
v -1.058419 2.541974 2.873107
v -1.058419 2.541974 2.693734
v -1.058419 2.541974 -0.903172
v -1.058419 2.541974 -0.714358
v -1.058419 0.541974 2.973107
v -1.287132 0.541974 2.973107
v -1.058419 0.541974 2.793734
v -1.287132 0.541974 2.793734
v -1.058419 0.541974 -1.003172
v -1.287132 0.541974 -1.003172
v -1.058419 0.541974 -0.814358
v -1.287132 0.541974 -0.814358
v -1.287132 0.641974 2.788734
v -1.287132 0.641974 2.968107
v -1.058419 0.641974 2.788734
v -1.058419 0.641974 2.968107
v -1.287132 0.641974 -0.998172
v -1.287132 0.641974 -0.809358
v -1.058419 0.641974 -0.809358
v -1.058419 0.641974 -0.998172
v 0.941581 0.541974 2.693734
v 0.941581 0.541974 2.873107
v 0.941581 0.597647 2.688734
v 0.941581 0.597647 2.868107
v 0.941581 0.541974 -0.903172
v 0.941581 0.541974 -0.714358
v 0.941581 0.597647 -0.709358
v 0.941581 0.597647 -0.898172
v 1.038677 2.815390 -1.000000
v 1.038677 2.641973 -1.000000
v 1.038677 2.815390 2.972418
v 1.038677 2.641973 2.972418
v 1.038677 2.815390 2.873107
v 1.038677 2.641973 -0.903172
v 1.038677 2.815390 2.693734
v 1.038677 2.641973 2.873107
v 1.038677 2.641973 -0.714358
v 1.038677 2.815390 -0.903172
v 1.038677 2.815390 -0.714358
v 1.038677 2.641973 2.693734
vt 0.172500 0.500000
vt 0.375000 0.500000
vt 0.375000 0.506094
vt 0.172500 0.506094
vt 0.150000 0.506094
vt 0.150000 0.500000
vt 0.172500 0.732461
vt 0.375000 0.732461
vt 0.375000 0.732461
vt 0.172500 0.732462
vt 0.625000 0.297500
vt 0.625000 0.500000
vt 0.375000 0.297500
vt 0.375000 0.275000
vt 0.375000 0.250000
vt 0.625000 0.250000
vt 0.625000 0.275000
vt 0.150000 0.517977
vt 0.150000 0.506094
vt 0.150000 0.506094
vt 0.150000 0.506094
vt 0.150000 0.517977
vt 0.150000 0.517977
vt 0.150000 0.517977
vt 0.375000 0.506094
vt 0.172500 0.506094
vt 0.172500 0.517977
vt 0.375000 0.517977
vt 0.375000 0.743750
vt 0.172500 0.743750
vt 0.625000 0.743750
vt 0.625000 0.732461
vt 0.625000 0.517977
vt 0.625000 0.506094
vt 0.625000 0.500000
vt 0.827500 0.500000
vt 0.850000 0.500000
vt 0.875000 0.500000
vt 0.875000 0.506094
vt 0.875000 0.517977
vt 0.875000 0.732461
vt 0.875000 0.743750
vt 0.875000 0.750000
vt 0.850000 0.750000
vt 0.827500 0.750000
vt 0.625000 0.750000
vt 0.625000 0.750000
vt 0.375000 0.743750
vt 0.375000 0.517977
vt 0.172500 0.517977
vt 0.375000 0.750000
vt 0.375000 0.750000
vt 0.625000 0.952500
vt 0.625000 0.975000
vt 0.625000 1.000000
vt 0.375000 1.000000
vt 0.375000 0.975000
vt 0.375000 0.952500
vt 0.172500 0.743750
vt 0.172500 0.750000
vt 0.150000 0.750000
vt 0.150000 0.743750
vt 0.375000 0.500000
vt 0.375000 0.506094
vt 0.375000 0.517977
vt 0.375000 0.732461
vt 0.375000 0.743750
vt 0.150000 0.732461
vt 0.150000 0.732461
vt 0.150000 0.732461
vt 0.150000 0.732461
vt 0.150000 0.743750
vt 0.150000 0.743750
vt 0.150000 0.743750
vt 0.172500 0.732462
vt 0.172500 0.732462
vt 0.172500 0.743750
vt 0.172500 0.506094
vt 0.172500 0.506094
vt 0.172500 0.517977
vt 0.172500 0.517977
vt 0.172500 0.506094
vt 0.172500 0.517977
vt 0.172500 0.506094
vt 0.172500 0.517977
vt 0.172500 0.743750
vt 0.172500 0.732462
vt 0.172500 0.743750
vt 0.172500 0.743750
vt 0.172500 0.732462
vt 0.625000 0.243906
vt 0.375000 0.243906
vt 0.375000 0.232023
vt 0.375000 0.017539
vt 0.375000 0.006250
vt 0.375000 0.000000
vt 0.625000 0.000000
vt 0.625000 0.006250
vt 0.625000 0.017539
vt 0.625000 0.232023
vt 0.125000 0.750000
vt 0.125000 0.743750
vt 0.125000 0.732461
vt 0.125000 0.506094
vt 0.125000 0.500000
vn 0.0000 -1.0000 0.0000
vn 0.0000 0.0000 -1.0000
vn -1.0000 -0.0000 0.0000
vn 0.0000 1.0000 0.0000
vn 0.9690 -0.2472 0.0000
vn 0.0000 0.0000 1.0000
vn 0.0000 -0.0476 -0.9989
vn 0.0000 0.0476 -0.9989
vn 0.0222 0.9998 0.0000
vn 0.0000 -0.0476 0.9989
vn 0.0000 0.0476 0.9989
vn 1.0000 0.0000 0.0000
vn 0.0505 0.0640 0.9967
vn 0.0505 0.0640 -0.9967
vn -0.0505 -0.0640 -0.9967
vn -0.0505 -0.0640 0.9967
usemtl Material
s off
f 39/1/1 2/2/1 13/3/1 42/4/1 32/5/1 27/6/1
f 44/7/2 20/8/2 22/9/2 46/10/2
f 25/11/2 1/12/2 2/2/2 39/13/2 27/14/2 6/15/2 5/16/2 30/17/2
f 33/18/3 32/5/3 37/19/3 61/20/3 54/21/3 56/22/3 62/23/3 38/24/3
f 42/4/2 13/3/2 24/25/2 47/26/2
f 43/27/1 17/28/1 20/8/1 44/7/1
f 46/10/1 22/9/1 21/29/1 45/30/1
f 77/31/4 79/32/4 83/33/4 82/34/4 73/35/4 1/12/4 25/36/4 30/37/4 5/38/4 12/39/4 16/40/4 19/41/4 10/42/4 7/43/4 28/44/4 40/45/4 3/46/4 75/47/4
f 20/8/5 11/48/5 21/29/5 22/9/5
f 47/26/1 24/25/1 23/49/1 48/50/1
f 13/3/5 17/28/5 23/49/5 24/25/5
f 4/51/6 76/52/6 75/47/6 3/46/6 40/53/6 28/54/6 7/55/6 8/56/6 29/57/6 26/58/6
f 41/59/1 11/48/1 4/51/1 26/60/1 29/61/1 31/62/1
f 20/8/1 17/28/1 13/3/1 2/2/1 74/63/1 78/64/1 81/65/1 84/66/1 80/67/1 76/52/1 4/51/1 11/48/1
f 11/48/6 41/59/6 45/30/6 21/29/6
f 17/28/6 43/27/6 48/50/6 23/49/6
f 31/62/3 34/68/3 36/69/3 57/70/3 52/71/3 50/72/3 58/73/3 35/74/3
f 34/68/7 44/7/7 46/10/7 59/75/7 51/76/7 52/71/7 57/70/7 36/69/7
f 33/18/1 43/27/1 44/7/1 34/68/1
f 52/71/1 51/76/1 49/77/1 50/72/1
f 32/5/8 42/4/8 47/26/8 64/78/8 53/79/8 54/21/8 61/20/8 37/19/8
f 64/78/9 63/80/9 71/81/9 72/82/9
f 43/27/10 33/18/10 38/24/10 62/23/10 56/22/10 55/83/10 63/80/10 48/50/10
f 54/21/1 53/79/1 55/83/1 56/22/1
f 55/83/1 53/79/1 69/84/1 70/85/1
f 41/59/11 31/62/11 35/74/11 58/73/11 50/72/11 49/77/11 60/86/11 45/30/11
f 46/10/12 45/30/12 60/86/12 59/75/12
f 47/26/12 48/50/12 63/80/12 64/78/12
f 67/87/12 68/88/12 66/89/12 65/90/12
f 72/82/12 71/81/12 70/85/12 69/84/12
f 60/86/13 49/77/13 66/89/13 68/88/13
f 53/79/14 64/78/14 72/82/14 69/84/14
f 49/77/1 51/76/1 65/90/1 66/89/1
f 59/75/9 60/86/9 68/88/9 67/87/9
f 51/76/15 59/75/15 67/87/15 65/90/15
f 63/80/16 55/83/16 70/85/16 71/81/16
f 77/31/12 75/47/12 76/52/12 80/67/12 84/66/12 81/65/12 78/64/12 74/63/12 73/35/12 82/34/12 83/33/12 79/32/12
f 2/2/2 1/12/2 73/35/2 74/63/2
f 12/91/3 5/16/3 6/15/3 14/92/3 15/93/3 18/94/3 9/95/3 8/96/3 7/97/3 10/98/3 19/99/3 16/100/3
f 34/68/1 31/62/1 29/61/1 8/101/1 9/102/1 18/103/1 15/93/1 14/104/1 6/105/1 27/6/1 32/5/1 33/18/1
