# Blender v2.82 (sub 7) OBJ File: 'WallTile.blend'
# www.blender.org
mtllib WallTile.mtl
o Cube.001
v -0.500000 2.000000 6.000000
v -0.500000 2.000000 -6.000000
v 0.500000 2.000000 6.000000
v 0.500000 2.000000 -6.000000
v -0.500000 -1.000000 6.000000
v -0.500000 -1.000000 -6.000000
v 0.500000 -1.000000 -6.000000
v 0.500000 -1.000000 6.000000
v -0.500000 -0.250000 6.000000
v -0.500000 -0.250000 -6.000000
v 0.500000 -0.250000 -6.000000
v 0.500000 -0.250000 6.000000
vt 0.186149 0.908196
vt 0.192550 0.908196
vt 0.192550 0.919575
vt 0.186149 0.919575
vt 0.177629 0.918824
vt 0.178269 0.918824
vt 0.178269 0.919962
vt 0.177629 0.919962
vt 0.553974 0.531064
vt 0.586405 0.531064
vt 0.586405 0.588719
vt 0.553974 0.588719
vt 0.177629 0.921099
vt 0.178269 0.921099
vt 0.178269 0.922237
vt 0.177629 0.922237
vt 0.192550 0.930955
vt 0.203929 0.930955
vt 0.203929 0.942334
vt 0.192550 0.942334
vt 0.855945 0.947670
vt 0.776827 0.944456
vt 0.856164 0.945093
vt 0.855945 0.947630
vt 0.203758 0.959528
vt 0.203971 0.959528
vt 0.203971 0.960665
vt 0.203758 0.960665
vt 0.203758 0.957253
vt 0.203971 0.957253
vt 0.203971 0.958390
vt 0.203758 0.958390
vt 0.184016 0.908196
vt 0.184016 0.919575
vt 0.827115 0.933995
vt 0.837892 0.908022
vt 0.827176 0.934323
vt 0.827115 0.934323
vn -1.0000 0.0000 0.0000
vn 0.0000 0.0000 -1.0000
vn 1.0000 0.0000 0.0000
vn 0.0000 0.0000 1.0000
vn 0.0000 1.0000 0.0000
vn 0.0000 -1.0000 0.0000
usemtl Material.002
s off
f 9/1/1 1/2/1 2/3/1 10/4/1
f 10/5/2 2/6/2 4/7/2 11/8/2
f 11/9/3 4/10/3 3/11/3 12/12/3
f 12/13/4 3/14/4 1/15/4 9/16/4
f 4/17/5 2/18/5 1/19/5 3/20/5
f 8/21/6 5/22/6 6/23/6 7/24/6
f 8/25/4 12/26/4 9/27/4 5/28/4
f 6/29/2 10/30/2 11/31/2 7/32/2
f 5/33/1 9/1/1 10/4/1 6/34/1
f 7/35/3 11/36/3 12/37/3 8/38/3
