# Blender v2.82 (sub 7) OBJ File: 'Window.blend'
# www.blender.org
mtllib Window.mtl
o Cube_Cube.002
v -0.250000 2.823279 2.309834
v -0.250000 8.823279 2.309834
v -0.250000 2.823279 -1.690166
v -0.250000 8.823279 -1.690166
v 0.250000 3.123280 2.109834
v 0.250000 8.523279 2.109834
v 0.250000 3.123280 -1.490165
v 0.250000 8.523279 -1.490165
v 0.250000 8.823279 -1.690166
v 0.250000 2.823279 -1.690166
v 0.250000 2.823279 2.309834
v 0.250000 8.823279 2.309834
v -0.250000 2.573279 -1.690166
v -0.250000 2.573279 2.309834
v 0.250000 2.573279 -1.690166
v 0.250000 2.573279 2.309834
v 0.750000 2.823279 2.309834
v 0.750000 2.823279 -1.690166
v 0.750000 2.573279 2.309834
v 0.750000 2.573279 -1.690166
v 0.150000 8.523279 -1.490165
v 0.150000 3.123280 -1.490165
v 0.150000 3.123280 2.109834
v 0.150000 8.523279 2.109834
v -0.250000 2.823279 0.309834
v -0.250000 8.823279 0.309834
v 0.250000 2.823279 0.309834
v 0.250000 8.823279 0.309834
v 0.250000 3.123280 0.309834
v 0.250000 8.523279 0.309834
v -0.250000 2.573279 0.309834
v 0.250000 2.573279 0.309834
v 0.750000 2.823279 0.309834
v 0.750000 2.573279 0.309834
v 0.150000 3.123280 0.309834
v 0.150000 8.523279 0.309834
v -0.250000 5.823279 2.309834
v -0.250000 5.823279 -1.690166
v 0.250000 5.823279 -1.690166
v 0.250000 5.823279 2.309834
v 0.250000 5.823279 -1.490165
v 0.250000 5.823279 2.109834
v 0.150000 5.823279 -1.490165
v 0.150000 5.823279 2.109834
v -0.250000 5.823279 0.309834
v -0.250000 5.898279 2.309834
v -0.250000 5.898279 -1.690166
v 0.250000 5.898279 -1.690166
v 0.250000 5.898279 2.309834
v 0.250000 5.890779 -1.490165
v 0.250000 5.890779 2.109834
v 0.150000 5.890779 -1.490165
v 0.150000 5.890779 2.109834
v -0.250000 5.898279 0.309834
v -0.250000 5.748280 -1.690166
v 0.250000 5.748280 -1.690166
v 0.250000 5.748280 2.309834
v 0.250000 5.755779 -1.490165
v 0.250000 5.755779 2.109834
v 0.150000 5.755779 -1.490165
v 0.150000 5.755779 2.109834
v -0.250000 5.748280 0.309834
v -0.250000 5.748280 2.309834
v -0.250000 2.823279 0.384834
v 0.250000 8.823279 0.384834
v 0.250000 8.523279 0.377334
v -0.250000 2.573279 0.384834
v 0.150000 8.523279 0.377334
v -0.250000 8.823279 0.384834
v 0.250000 2.823279 0.384834
v 0.250000 3.123280 0.377334
v 0.250000 2.573279 0.384834
v 0.750000 2.823279 0.384834
v 0.750000 2.573279 0.384834
v 0.150000 3.123280 0.377334
v -0.250000 5.823279 0.384834
v -0.250000 5.898279 0.384834
v 0.150000 5.890779 0.377334
v 0.150000 5.755779 0.377334
v -0.250000 5.748280 0.384834
v -0.250000 8.823279 0.234834
v 0.250000 2.823279 0.234834
v 0.250000 3.123280 0.242334
v 0.250000 2.573279 0.234834
v 0.750000 2.823279 0.234834
v 0.750000 2.573279 0.234834
v 0.150000 3.123280 0.242334
v -0.250000 2.823279 0.234834
v 0.250000 8.823279 0.234834
v 0.250000 8.523279 0.242334
v -0.250000 2.573279 0.234834
v 0.150000 8.523279 0.242334
v -0.250000 5.823279 0.234834
v 0.150000 5.890779 0.242334
v -0.250000 5.898279 0.234834
v -0.250000 5.748280 0.234834
v 0.150000 5.755779 0.242334
v 0.250000 3.123280 0.377334
v 0.250000 3.123280 0.309834
v 0.250000 8.523279 0.242334
v 0.250000 8.523279 0.309834
v 0.250000 5.755779 0.309834
v 0.250000 5.890779 -1.490165
v 0.250000 5.823279 -1.490165
v 0.250000 5.890779 2.109834
v 0.250000 5.823279 2.109834
v 0.250000 5.890779 0.309834
v 0.250000 5.823279 0.309834
v 0.250000 5.823279 0.242334
v 0.250000 5.823279 0.377334
v 0.250000 5.890779 0.242334
v 0.250000 5.890779 0.377334
v 0.250000 5.755779 -1.490165
v 0.250000 5.755779 2.109834
v 0.250000 5.755779 0.377334
v 0.250000 5.755779 0.242334
v 0.250000 8.523279 0.377334
v 0.250000 3.123280 0.242334
vt 0.178196 0.940357
vt 0.199973 0.940357
vt 0.199973 0.961855
vt 0.178196 0.961855
vt 0.564930 0.404771
vt 0.573324 0.404771
vt 0.573324 0.421989
vt 0.564930 0.421989
vt 0.572463 0.430889
vt 0.572463 0.438346
vt 0.572463 0.438346
vt 0.572463 0.430889
vt 0.564930 0.439207
vt 0.573324 0.439207
vt 0.573324 0.456426
vt 0.564930 0.456426
vt 0.556105 0.439207
vt 0.556105 0.456426
vt 0.556105 0.456426
vt 0.556105 0.439207
vt 0.573324 0.430921
vt 0.590542 0.430921
vt 0.590542 0.439207
vt 0.564521 0.422850
vt 0.556966 0.422850
vt 0.556105 0.421989
vt 0.564499 0.421989
vt 0.554600 0.453485
vt 0.554600 0.472463
vt 0.552409 0.474654
vt 0.552409 0.453567
vt 0.572463 0.430308
vt 0.572463 0.422850
vt 0.573324 0.430275
vt 0.564908 0.438346
vt 0.774661 0.933686
vt 0.832692 0.933686
vt 0.832692 0.961613
vt 0.774661 0.961613
vt 0.556105 0.404771
vt 0.556105 0.421989
vt 0.556105 0.404771
vt 0.155302 0.940357
vt 0.155302 0.961855
vt 0.155302 0.961855
vt 0.155302 0.940357
vt 0.808098 0.956461
vt 0.808098 0.956461
vt 0.808098 0.956461
vt 0.808098 0.956461
vt 0.808098 0.935861
vt 0.808098 0.935861
vt 0.808098 0.913656
vt 0.808098 0.913656
vt 0.808098 0.913656
vt 0.808098 0.913656
vt 0.832692 0.931510
vt 0.832692 0.903582
vt 0.832692 0.903582
vt 0.832692 0.931510
vt 0.808098 0.935861
vt 0.173463 0.815602
vt 0.202619 0.815602
vt 0.202619 0.844383
vt 0.173463 0.844383
vt 0.564908 0.422850
vt 0.572463 0.422850
vt 0.564908 0.422850
vt 0.564521 0.438346
vt 0.556966 0.438346
vt 0.556966 0.438346
vt 0.564521 0.438346
vt 0.556966 0.430308
vt 0.556966 0.422850
vt 0.556966 0.430308
vt 0.556966 0.430889
vt 0.556966 0.430598
vt 0.556966 0.430598
vt 0.556966 0.430889
vt 0.572463 0.430598
vt 0.572463 0.430889
vt 0.572463 0.430598
vt 0.808098 0.934256
vt 0.808098 0.935059
vt 0.808098 0.935059
vt 0.808098 0.934256
vt 0.832692 0.932598
vt 0.832692 0.932598
vt 0.832692 0.933686
vt 0.808098 0.935059
vt 0.808098 0.934256
vt 0.155302 0.938682
vt 0.155302 0.939519
vt 0.155302 0.939519
vt 0.155302 0.938682
vt 0.774661 0.931510
vt 0.774661 0.932598
vt 0.572463 0.430598
vt 0.573324 0.430598
vt 0.554600 0.452006
vt 0.554600 0.452745
vt 0.552409 0.452745
vt 0.552409 0.451924
vt 0.590542 0.430275
vt 0.590542 0.430598
vt 0.572463 0.430308
vt 0.178196 0.938682
vt 0.199973 0.938682
vt 0.199973 0.939519
vt 0.178196 0.939519
vt 0.177079 0.938682
vt 0.177637 0.938682
vt 0.177637 0.939519
vt 0.177079 0.939519
vt 0.543920 0.429477
vt 0.573076 0.429477
vt 0.573076 0.429477
vt 0.543920 0.429477
vt 0.564714 0.438346
vt 0.564714 0.438346
vt 0.564908 0.438346
vt 0.564714 0.422850
vt 0.564714 0.422850
vt 0.564521 0.422850
vt 0.582919 0.470344
vt 0.582919 0.441563
vt 0.582919 0.441563
vt 0.582919 0.470344
vt 0.564714 0.439207
vt 0.564499 0.439207
vt 0.564714 0.421989
vt 0.564714 0.456426
vt 0.564499 0.456426
vt 0.564499 0.404771
vt 0.564714 0.404771
vt 0.177079 0.940357
vt 0.177637 0.940357
vt 0.177637 0.961855
vt 0.177079 0.961855
vt 0.582919 0.439320
vt 0.582919 0.410538
vt 0.582919 0.410538
vt 0.582919 0.439320
vt 0.572463 0.430308
vt 0.142813 0.815602
vt 0.171968 0.815602
vt 0.171968 0.844383
vt 0.142813 0.844383
vt 0.564521 0.438346
vt 0.564714 0.438346
vt 0.155302 0.917184
vt 0.177079 0.917184
vt 0.556966 0.430598
vt 0.556966 0.430889
vt 0.564714 0.422850
vt 0.564521 0.422850
vt 0.177637 0.917184
vt 0.178196 0.917184
vt 0.566815 0.451406
vt 0.537659 0.451406
vt 0.537659 0.451406
vt 0.566815 0.451406
vt 0.199973 0.917184
vt 0.155302 0.917184
vt 0.832692 0.961613
vt 0.537659 0.449163
vt 0.566815 0.449163
vt 0.566815 0.449163
vt 0.537659 0.449163
vt 0.142813 0.784577
vt 0.171968 0.784577
vt 0.171968 0.813359
vt 0.142813 0.813359
vt 0.564908 0.438346
vt 0.574571 0.400695
vt 0.574571 0.429477
vt 0.574571 0.429477
vt 0.574571 0.400695
vt 0.590542 0.421989
vt 0.554600 0.433027
vt 0.552409 0.430836
vt 0.774661 0.903582
vt 0.173463 0.784577
vt 0.202619 0.784577
vt 0.202619 0.813359
vt 0.173463 0.813359
vt 0.566815 0.450284
vt 0.537659 0.450284
vt 0.573823 0.429477
vt 0.573823 0.430598
vt 0.573076 0.430598
vt 0.573076 0.431720
vt 0.573823 0.431720
vt 0.573823 0.460501
vt 0.573076 0.460501
vt 0.574571 0.430598
vt 0.574571 0.431720
vt 0.574571 0.460501
vt 0.543920 0.430598
vt 0.543920 0.431720
vt 0.573823 0.400695
vt 0.573076 0.400695
vt 0.573076 0.431720
vt 0.543920 0.431720
vt 0.574571 0.431720
vt 0.574571 0.460501
vt 0.556966 0.430308
vt 0.564908 0.422850
vn -1.0000 0.0000 0.0000
vn 0.0000 0.0000 -1.0000
vn 0.0000 -1.0000 0.0000
vn 0.0000 0.0000 1.0000
vn 0.0000 1.0000 0.0000
vn 1.0000 0.0000 0.0000
usemtl Material.002
s off
f 95/1/1 81/2/1 4/3/1 47/4/1
f 47/5/2 4/6/2 9/7/2 48/8/2
f 66/9/3 6/10/3 24/11/3 68/12/3
f 49/13/4 12/14/4 2/15/4 46/16/4
f 11/17/4 1/18/4 14/19/4 16/20/4
f 65/21/5 69/22/5 2/23/5 12/14/5
f 58/24/6 7/25/6 10/26/6 56/27/6
f 71/28/6 5/29/6 11/30/6 70/31/6
f 90/32/6 8/33/6 9/7/6 89/34/6
f 51/35/6 6/10/6 12/14/6 49/13/6
f 67/36/3 72/37/3 16/38/3 14/39/3
f 3/40/2 10/26/2 15/41/2 13/42/2
f 88/43/1 3/44/1 13/45/1 91/46/1
f 11/47/4 16/48/4 19/49/4 17/50/4
f 73/51/6 17/50/6 19/49/6 74/52/6
f 15/53/2 10/54/2 18/55/2 20/56/2
f 84/57/3 15/58/3 20/59/3 86/60/3
f 70/61/5 11/47/5 17/50/5 73/51/5
f 78/62/6 68/63/6 24/64/6 53/65/6
f 50/66/4 8/33/4 21/67/4 52/68/4
f 59/69/2 5/70/2 23/71/2 61/72/2
f 83/73/5 7/25/5 22/74/5 87/75/5
f 71/76/5 29/77/5 35/78/5 75/79/5
f 36/80/5 68/12/5 117/81/5 101/82/5
f 82/83/5 27/84/5 33/85/5 85/86/5
f 72/37/3 32/87/3 34/88/3 74/89/3
f 85/86/6 33/85/6 34/90/6 86/91/6
f 64/92/1 25/93/1 31/94/1 67/95/1
f 91/96/3 84/57/3 32/87/3 31/97/3
f 66/9/6 30/98/6 28/99/6 65/21/6
f 83/100/6 29/101/6 27/102/6 82/103/6
f 89/34/5 81/104/5 26/105/5 28/99/5
f 90/32/3 30/98/3 36/80/3 92/106/3
f 77/107/1 69/108/1 26/109/1 54/110/1
f 80/111/1 76/112/1 45/113/1 62/114/1
f 87/115/2 97/116/2 116/117/2 118/118/2
f 51/35/2 42/119/2 44/120/2 53/121/2
f 58/24/4 41/122/4 43/123/4 60/124/4
f 61/125/3 79/126/3 115/127/3 114/128/3
f 59/69/6 42/119/6 40/129/6 57/130/6
f 50/66/6 41/122/6 39/131/6 48/8/6
f 57/130/4 40/129/4 37/132/4 63/133/4
f 55/134/2 38/135/2 39/131/2 56/27/2
f 96/136/1 93/137/1 38/138/1 55/139/1
f 8/33/6 50/66/6 48/8/6 9/7/6
f 6/10/2 51/35/2 53/121/2 24/11/2
f 76/112/1 77/107/1 54/110/1 45/113/1
f 97/140/3 60/141/3 113/142/3 116/143/3
f 41/122/4 50/66/4 52/68/4 43/123/4
f 92/106/5 36/80/5 101/82/5 100/144/5
f 42/119/6 51/35/6 49/13/6 40/129/6
f 40/129/4 49/13/4 46/16/4 37/132/4
f 38/135/2 47/5/2 48/8/2 39/131/2
f 93/137/1 95/1/1 47/4/1 38/138/1
f 88/43/1 96/136/1 55/139/1 3/44/1
f 3/40/2 55/134/2 56/27/2 10/26/2
f 11/17/4 57/130/4 63/133/4 1/18/4
f 5/70/6 59/69/6 57/130/6 11/17/6
f 75/145/6 79/146/6 61/147/6 23/148/6
f 7/25/4 58/24/4 60/124/4 22/74/4
f 44/120/4 61/72/4 114/149/4 106/150/4
f 64/92/1 80/111/1 62/114/1 25/93/1
f 42/119/2 59/69/2 61/72/2 44/120/2
f 41/122/6 58/24/6 56/27/6 39/131/6
f 1/151/1 63/152/1 80/111/1 64/92/1
f 75/79/3 35/78/3 99/153/3 98/154/3
f 60/124/2 43/123/2 104/155/2 113/156/2
f 37/157/1 46/158/1 77/107/1 76/112/1
f 68/159/4 78/160/4 112/161/4 117/162/4
f 63/152/1 37/157/1 76/112/1 80/111/1
f 46/158/1 2/163/1 69/108/1 77/107/1
f 6/10/6 66/9/6 65/21/6 12/14/6
f 1/151/1 64/92/1 67/95/1 14/164/1
f 16/38/3 72/37/3 74/89/3 19/165/3
f 5/70/5 71/76/5 75/79/5 23/71/5
f 94/166/2 92/167/2 100/168/2 111/169/2
f 27/84/5 70/61/5 73/51/5 33/85/5
f 33/85/6 73/51/6 74/52/6 34/90/6
f 31/97/3 32/87/3 72/37/3 67/36/3
f 29/101/6 71/28/6 70/31/6 27/102/6
f 28/99/5 26/105/5 69/22/5 65/21/5
f 30/98/3 66/9/3 68/12/3 36/80/3
f 22/170/6 60/171/6 97/172/6 87/173/6
f 25/93/1 62/114/1 96/136/1 88/43/1
f 45/113/1 54/110/1 95/1/1 93/137/1
f 53/121/4 44/120/4 106/150/4 105/174/4
f 62/114/1 45/113/1 93/137/1 96/136/1
f 52/175/5 94/176/5 111/177/5 103/178/5
f 8/33/3 90/32/3 92/106/3 21/67/3
f 9/7/5 4/179/5 81/104/5 89/34/5
f 7/180/6 83/100/6 82/103/6 10/181/6
f 13/182/3 15/58/3 84/57/3 91/96/3
f 18/55/6 85/86/6 86/91/6 20/56/6
f 10/54/5 82/83/5 85/86/5 18/55/5
f 52/183/6 21/184/6 92/185/6 94/186/6
f 29/77/5 83/73/5 87/75/5 35/78/5
f 32/87/3 84/57/3 86/60/3 34/88/3
f 25/93/1 88/43/1 91/46/1 31/94/1
f 30/98/6 90/32/6 89/34/6 28/99/6
f 54/110/1 26/109/1 81/2/1 95/1/1
f 111/169/6 100/168/6 101/187/6 107/188/6
f 116/117/6 109/189/6 108/190/6 102/191/6
f 115/192/6 110/193/6 106/194/6 114/195/6
f 109/189/6 111/177/6 107/196/6 108/190/6
f 110/193/6 112/197/6 105/198/6 106/194/6
f 118/118/6 116/117/6 102/191/6 99/199/6
f 99/199/6 102/191/6 115/192/6 98/200/6
f 108/190/6 107/196/6 112/197/6 110/193/6
f 102/191/6 108/190/6 110/193/6 115/192/6
f 107/188/6 101/187/6 117/162/6 112/161/6
f 104/201/6 103/178/6 111/177/6 109/189/6
f 113/202/6 104/201/6 109/189/6 116/117/6
f 79/203/4 75/204/4 98/200/4 115/192/4
f 78/205/5 53/206/5 105/198/5 112/197/5
f 35/78/3 87/75/3 118/207/3 99/153/3
f 43/123/2 52/68/2 103/208/2 104/155/2
